<?xml version="1.0" standalone="no"?>
<!DOCTYPE svg PUBLIC "-//W3C//DTD SVG 1.1//EN" "http://www.w3.org/Graphics/SVG/1.1/DTD/svg11.dtd" >
<svg xmlns="http://www.w3.org/2000/svg" xmlns:xlink="http://www.w3.org/1999/xlink" version="1.1">
<metadata>
Created by FontForge 20190801 at Mon Nov 25 21:50:27 2019
 By Jimmy Wärting
Copyright \(c\) 2019 by Jonathan Hill. All rights reserved.
</metadata>
<defs>
<font id="Roag-Light" horiz-adv-x="760" >
  <font-face 
    font-family="Roag-Light"
    font-weight="300"
    font-stretch="normal"
    units-per-em="1000"
    panose-1="2 11 4 4 4 5 2 3 2 3"
    ascent="800"
    descent="-200"
    x-height="488"
    cap-height="700"
    bbox="-157 -195 1304 1072"
    underline-thickness="50"
    underline-position="-125"
    stemh="54"
    stemv="57"
    unicode-range="U+0020-1F169"
  />
<missing-glyph horiz-adv-x="500" 
d="M50 30v600h400v-600h-400zM120 100h260v460h-260v-460z" />
    <glyph glyph-name="fi" unicode="fi" horiz-adv-x="496" 
d="M92 554c0 125 52 156 143 156h39v-54h-39c-69 0 -86 -37 -86 -102v-66h105v-52h-105v-436h-57v436h-68v52h68v66zM354 674h62v-85h-62v85zM357 0v488h57v-488h-57z" />
    <glyph glyph-name="fl" unicode="fl" horiz-adv-x="505" 
d="M92 554c0 125 52 156 143 156h39v-54h-39c-69 0 -86 -37 -86 -102v-66h105v-52h-105v-436h-57v436h-68v52h68v66zM468 44h20v-54h-26c-88 0 -111 52 -111 129v581h57v-581c0 -59 24 -75 60 -75z" />
    <glyph glyph-name=".notdef" horiz-adv-x="500" 
d="M50 30v600h400v-600h-400zM120 100h260v460h-260v-460z" />
    <glyph glyph-name="space" unicode=" " horiz-adv-x="209" 
 />
    <glyph glyph-name="exclam" unicode="!" horiz-adv-x="290" 
d="M122 182l-12 518h70l-12 -518h-46zM108 0v97h73v-97h-73z" />
    <glyph glyph-name="quotedbl" unicode="&#x22;" horiz-adv-x="386" 
d="M99 530v180h59v-180h-59zM228 530v180h59v-180h-59z" />
    <glyph glyph-name="numbersign" unicode="#" horiz-adv-x="566" 
d="M512 429h-96l-21 -155h89v-50h-96l-31 -224h-52l31 224h-139l-31 -224h-52l31 224h-90v50h97l21 155h-90v50h97l30 221h52l-30 -221h139l30 221h52l-30 -221h89v-50zM343 274l21 155h-139l-21 -155h139z" />
    <glyph glyph-name="dollar" unicode="$" horiz-adv-x="547" 
d="M502 187c0 -135 -85 -196 -212 -197v-98h-44v98c-144 0 -210 69 -210 173h61c0 -84 59 -116 149 -116h42c110 0 153 57 153 139c0 91 -67 111 -156 130c-151 32 -239 65 -239 192c0 121 80 181 200 182v98h44v-98c131 -3 193 -71 193 -173h-61c0 84 -56 116 -140 116h-34
c-103 0 -140 -53 -140 -123c0 -96 81 -114 190 -137c152 -32 204 -83 204 -186z" />
    <glyph glyph-name="percent" unicode="%" horiz-adv-x="810" 
d="M170 -10l416 720h49l-416 -720h-49zM189 324c-69 0 -115 45 -115 110v157c0 69 46 115 115 115h35c70 0 116 -46 116 -115v-157c0 -65 -46 -110 -116 -110h-35zM190 368h32c43 0 69 26 69 65v159c0 44 -26 70 -69 70h-32c-42 0 -68 -26 -68 -70v-159c0 -40 26 -65 68 -65
zM586 -6c-70 0 -116 45 -116 110v157c0 69 46 115 116 115h35c69 0 116 -46 116 -115v-157c0 -65 -47 -110 -116 -110h-35zM587 38h32c43 0 69 26 69 65v159c0 44 -26 70 -69 70h-32c-42 0 -68 -26 -68 -70v-159c0 -40 26 -65 68 -65z" />
    <glyph glyph-name="ampersand" unicode="&#x26;" horiz-adv-x="632" 
d="M581 0h-75l-38 50c-47 -41 -110 -60 -183 -60h-13c-143 0 -205 72 -205 173c0 98 56 152 149 215l-47 62c-27 37 -53 72 -53 127c0 93 71 143 178 143h7c124 0 178 -57 178 -143c0 -74 -33 -109 -179 -204l168 -217c21 40 31 91 31 153h59c0 -87 -18 -155 -51 -204z
M294 655c-81 0 -119 -34 -119 -88c0 -35 19 -67 48 -105l42 -54c131 82 155 108 155 158c0 65 -45 89 -119 89h-7zM285 45c63 0 112 18 147 52l-182 238c-85 -59 -124 -101 -124 -172c0 -79 51 -118 146 -118h13z" />
    <glyph glyph-name="quotesingle" unicode="'" horiz-adv-x="256" 
d="M99 530v180h59v-180h-59z" />
    <glyph glyph-name="parenleft" unicode="(" horiz-adv-x="263" 
d="M191 -81c-90 135 -132 287 -132 430c0 166 55 317 129 411h51c-83 -136 -118 -280 -118 -410c0 -150 45 -294 121 -431h-51z" />
    <glyph glyph-name="parenright" unicode=")" horiz-adv-x="263" 
d="M21 -81c75 136 121 280 121 431c0 129 -35 274 -118 410h51c74 -94 129 -245 129 -411c0 -142 -42 -295 -132 -430h-51z" />
    <glyph glyph-name="asterisk" unicode="*" horiz-adv-x="407" 
d="M350 586l-112 -34l71 -93l-39 -29l-67 98l-66 -96l-39 28l70 93l-111 33l14 46l111 -39l-3 117h48l-2 -117l110 39z" />
    <glyph glyph-name="plus" unicode="+" horiz-adv-x="541" 
d="M479 312v-55h-181v-181h-55v181h-181v55h181v181h55v-181h181z" />
    <glyph glyph-name="comma" unicode="," horiz-adv-x="221" 
d="M42 -122l44 219h76l-65 -219h-55z" />
    <glyph glyph-name="hyphen" unicode="-" horiz-adv-x="445" 
d="M81 246v57h283v-57h-283z" />
    <glyph glyph-name="period" unicode="." horiz-adv-x="221" 
d="M73 0v97h75v-97h-75z" />
    <glyph glyph-name="slash" unicode="/" horiz-adv-x="293" 
d="M1 -10l237 720h54l-237 -720h-54z" />
    <glyph glyph-name="zero" unicode="0" horiz-adv-x="617" 
d="M339 690c118 0 196 -78 196 -198v-313c0 -114 -78 -189 -196 -189h-59c-120 0 -198 75 -198 189v313c0 120 78 198 198 198h59zM339 632h-59c-84 0 -137 -54 -137 -140v-313c0 -80 53 -131 137 -131h59c82 0 135 52 135 131v313c0 86 -53 140 -135 140z" />
    <glyph glyph-name="one" unicode="1" horiz-adv-x="305" 
d="M151 680h55v-680h-61v605l-125 -88v68z" />
    <glyph glyph-name="two" unicode="2" horiz-adv-x="537" 
d="M125 57h360v-57h-422v148c0 110 70 155 182 183c135 36 174 72 174 171c0 90 -52 131 -142 131h-8c-96 0 -140 -46 -140 -123h-61c0 122 81 180 201 180h8c141 0 203 -79 203 -189c0 -135 -57 -180 -222 -226c-69 -20 -133 -43 -133 -127v-91z" />
    <glyph glyph-name="three" unicode="3" horiz-adv-x="555" 
d="M378 352c70 -24 114 -79 114 -155v-27c0 -108 -79 -180 -197 -180h-60c-119 0 -198 73 -198 178h61c0 -72 55 -120 137 -120h60c83 0 135 48 135 122v27c0 75 -52 123 -135 123h-103v57h83c85 0 135 50 135 122v21c0 71 -54 115 -135 115h-20c-84 0 -135 -44 -135 -112
h-61c0 98 76 167 196 167h20c116 0 196 -68 196 -170v-21c0 -68 -35 -120 -93 -147z" />
    <glyph glyph-name="four" unicode="4" horiz-adv-x="503" 
d="M484 203v-57h-114v-146h-61v146h-280v50l205 484h63l-198 -477h210v192h61v-192h114z" />
    <glyph glyph-name="five" unicode="5" horiz-adv-x="540" 
d="M292 419c116 0 197 -72 197 -179v-70c0 -108 -78 -180 -196 -180h-34c-118 0 -198 73 -198 176h62c0 -70 54 -118 136 -118h34c82 0 135 48 135 122v70c0 73 -55 122 -136 122h-199v318h358v-57h-297v-204h138z" />
    <glyph glyph-name="six" unicode="6" horiz-adv-x="588" 
d="M329 433c116 0 194 -75 194 -188v-76c0 -106 -80 -179 -199 -179h-44c-119 0 -198 73 -198 179v337c0 108 81 184 192 184h39c112 0 194 -76 194 -187h-61c0 76 -55 129 -133 129h-39c-76 0 -131 -53 -131 -126v-137c26 40 73 64 133 64h53zM462 169v76
c0 81 -53 130 -133 130h-64c-73 0 -122 -48 -122 -131v-75c0 -75 54 -121 137 -121h44c86 0 138 48 138 121z" />
    <glyph glyph-name="seven" unicode="7" horiz-adv-x="417" 
d="M18 680h376v-52l-243 -628h-66l244 623h-311v57z" />
    <glyph glyph-name="eight" unicode="8" horiz-adv-x="595" 
d="M420 362c70 -24 112 -80 112 -156v-35c0 -108 -79 -181 -197 -181h-75c-119 0 -198 73 -198 181v35c0 76 43 132 113 156c-58 26 -92 77 -92 143v16c0 101 78 169 197 169h35c118 0 196 -68 196 -169v-16c0 -66 -34 -117 -91 -143zM144 521v-16c0 -72 53 -117 136 -117
h35c85 0 135 47 135 117v16c0 71 -53 114 -135 114h-35c-85 0 -136 -45 -136 -114zM471 171v35c0 77 -53 125 -136 125h-75c-83 0 -136 -47 -136 -125v-35c0 -75 53 -123 136 -123h75c82 0 136 48 136 123z" />
    <glyph glyph-name="nine" unicode="9" horiz-adv-x="588" 
d="M308 690c119 0 198 -73 198 -179v-337c0 -117 -81 -184 -197 -184h-34c-112 0 -194 76 -194 187h61c0 -76 55 -129 133 -129h34c87 0 136 50 136 126v129c-25 -39 -72 -63 -132 -63h-54c-116 0 -194 75 -194 188v83c0 106 81 179 199 179h44zM323 298
c73 0 122 48 122 130v83c0 75 -54 121 -137 121h-44c-86 0 -138 -48 -138 -121v-83c0 -82 53 -130 133 -130h64z" />
    <glyph glyph-name="colon" unicode=":" horiz-adv-x="221" 
d="M73 391v97h75v-97h-75zM73 0v97h75v-97h-75z" />
    <glyph glyph-name="semicolon" unicode=";" horiz-adv-x="221" 
d="M73 391v97h75v-97h-75zM42 -122l44 219h76l-65 -219h-55z" />
    <glyph glyph-name="less" unicode="&#x3c;" horiz-adv-x="541" 
d="M478 486v-60l-341 -141l341 -142v-60l-415 176v51z" />
    <glyph glyph-name="equal" unicode="=" horiz-adv-x="541" 
d="M62 359v55h417v-55h-417zM62 159v55h417v-55h-417z" />
    <glyph glyph-name="greater" unicode="&#x3e;" horiz-adv-x="541" 
d="M63 486l415 -176v-51l-415 -176v60l340 142l-340 141v60z" />
    <glyph glyph-name="question" unicode="?" horiz-adv-x="491" 
d="M174 182c0 109 55 150 111 182c78 47 97 91 97 152c0 95 -51 139 -140 139h-8c-98 0 -143 -44 -143 -121h-58c0 119 79 176 201 176h8c134 0 199 -74 199 -193c0 -98 -40 -153 -131 -206c-51 -29 -85 -62 -86 -129h-50zM161 0v97h74v-97h-74z" />
    <glyph glyph-name="at" unicode="@" horiz-adv-x="932" 
d="M467 675c254 0 400 -161 400 -404c0 -142 -65 -209 -162 -209c-64 0 -108 30 -126 79c-20 -51 -69 -81 -128 -81h-20c-89 0 -150 64 -150 159v115c0 100 63 166 157 166h18c48 0 86 -21 108 -56v56h52v-302c0 -57 37 -86 89 -86c74 0 108 59 108 159
c0 216 -127 353 -346 353c-211 0 -345 -126 -345 -345c0 -212 126 -346 345 -346c90 0 164 22 224 67v-63c-62 -36 -137 -55 -224 -55c-255 0 -400 159 -400 397c0 256 164 396 400 396zM457 110c62 0 107 43 107 112v114c0 73 -42 115 -102 115h-24
c-66 0 -105 -46 -105 -117v-115c0 -68 40 -109 100 -109h24z" />
    <glyph glyph-name="A" unicode="A" horiz-adv-x="603" 
d="M514 0l-62 180h-301l-62 -180h-65l248 700h59l248 -700h-65zM171 237h261l-48 140c-28 83 -55 163 -83 253c-28 -90 -54 -171 -83 -255z" />
    <glyph glyph-name="B" unicode="B" horiz-adv-x="611" 
d="M457 366c66 -19 104 -82 104 -158v-26c0 -112 -74 -182 -185 -182h-283v700h255c111 0 185 -68 185 -176v-24c0 -59 -29 -110 -76 -134zM348 642h-195v-252h218c60 0 100 46 100 111v23c0 75 -46 118 -123 118zM499 182v25c0 76 -44 124 -113 124h-233v-273h223
c79 0 123 47 123 124z" />
    <glyph glyph-name="C" unicode="C" horiz-adv-x="571" 
d="M284 -10c-150 0 -228 99 -228 235v247c0 138 83 238 228 238h34c126 0 206 -77 206 -185h-62c0 82 -59 127 -144 127h-34c-107 0 -167 -68 -167 -179v-248c0 -117 64 -177 167 -177h34c86 0 145 47 145 129h61c0 -109 -79 -187 -206 -187h-34z" />
    <glyph glyph-name="D" unicode="D" horiz-adv-x="622" 
d="M328 700c152 0 238 -102 238 -243v-218c0 -139 -86 -239 -238 -239h-235v700h235zM505 239v219c0 118 -68 185 -177 185h-175v-586h175c112 0 177 70 177 182z" />
    <glyph glyph-name="E" unicode="E" horiz-adv-x="543" 
d="M517 643h-364v-259h315v-57h-315v-270h364v-57h-424v700h424v-57z" />
    <glyph glyph-name="F" unicode="F" horiz-adv-x="515" 
d="M498 643h-345v-272h296v-57h-296v-314h-60v700h405v-57z" />
    <glyph glyph-name="G" unicode="G" horiz-adv-x="607" 
d="M326 363h232v-134c0 -152 -82 -239 -212 -239h-67c-144 0 -223 96 -223 241v233c0 156 96 246 239 246h56c116 0 195 -75 195 -181h-62c0 75 -51 123 -131 123h-59c-117 0 -177 -74 -177 -188v-233c0 -124 68 -183 162 -183h67c102 0 151 71 151 181v78h-171v56z" />
    <glyph glyph-name="H" unicode="H" horiz-adv-x="682" 
d="M529 700h61v-700h-61v321h-376v-321h-60v700h60v-322h376v322z" />
    <glyph glyph-name="I" unicode="I" horiz-adv-x="246" 
d="M93 0v700h60v-700h-60z" />
    <glyph glyph-name="J" unicode="J" horiz-adv-x="421" 
d="M13 0v58h120c89 0 135 68 135 173v469h61v-469c0 -146 -79 -231 -196 -231h-120z" />
    <glyph glyph-name="K" unicode="K" horiz-adv-x="602" 
d="M520 0l-224 382l-143 -166v-216h-60v700h60v-400l346 400h72l-235 -272l253 -428h-69z" />
    <glyph glyph-name="L" unicode="L" horiz-adv-x="523" 
d="M153 57h345v-57h-405v700h60v-643z" />
    <glyph glyph-name="M" unicode="M" horiz-adv-x="761" 
d="M669 700v-700h-60v572c-28 -66 -56 -130 -84 -193l-124 -273h-43l-122 273c-28 62 -55 125 -83 190v-569h-60v700h61l133 -300c32 -72 62 -143 93 -216c31 74 62 145 94 217l132 299h63z" />
    <glyph glyph-name="N" unicode="N" horiz-adv-x="675" 
d="M522 700h60v-700h-61l-194 308c-67 107 -122 198 -174 286v-594h-60v700h60v-2l194 -310c65 -104 121 -196 175 -288v600z" />
    <glyph glyph-name="O" unicode="O" horiz-adv-x="631" 
d="M295 -10c-153 0 -239 101 -239 239v239c0 141 87 242 239 242h41c152 0 239 -102 239 -242v-239c0 -139 -87 -239 -239 -239h-41zM294 48h42c113 0 177 69 177 181v239c0 117 -68 184 -177 184h-42c-112 0 -177 -70 -177 -184v-239c0 -115 68 -181 177 -181z" />
    <glyph glyph-name="P" unicode="P" horiz-adv-x="576" 
d="M359 700c114 0 190 -76 190 -190v-25c0 -112 -75 -188 -190 -188h-205v-297h-61v700h266zM488 485v26c0 82 -50 132 -129 132h-205v-289h205c81 0 129 52 129 131z" />
    <glyph glyph-name="Q" unicode="Q" horiz-adv-x="631" 
d="M588 -39l-45 -38l-84 95c-34 -18 -75 -28 -123 -28h-41c-153 0 -239 101 -239 239v239c0 141 87 242 239 242h41c152 0 239 -102 239 -242v-239c0 -73 -24 -135 -68 -177zM294 48h42c32 0 61 6 85 16l-93 103l41 36l97 -108c31 32 47 77 47 134v239
c0 117 -68 184 -177 184h-42c-112 0 -177 -70 -177 -184v-239c0 -115 68 -181 177 -181z" />
    <glyph glyph-name="R" unicode="R" horiz-adv-x="583" 
d="M498 0l-160 312h-184v-312h-61v700h266c113 0 190 -77 190 -191v-9c0 -98 -58 -168 -148 -184l168 -316h-71zM154 643v-274h205c80 0 129 51 129 131v9c0 84 -51 134 -129 134h-205z" />
    <glyph glyph-name="S" unicode="S" horiz-adv-x="575" 
d="M262 -10c-145 0 -211 70 -211 177h61c0 -87 60 -120 149 -120h42c111 0 153 59 153 144c0 95 -67 115 -157 135c-150 33 -237 67 -237 197c0 126 80 187 202 187h33c136 0 202 -71 202 -178h-61c0 88 -58 121 -141 121h-33c-104 0 -141 -55 -141 -128
c0 -100 81 -118 190 -142c152 -33 204 -85 204 -191c0 -140 -86 -202 -214 -202h-41z" />
    <glyph glyph-name="T" unicode="T" horiz-adv-x="512" 
d="M499 700v-57h-213v-643h-61v643h-212v57h486z" />
    <glyph glyph-name="U" unicode="U" horiz-adv-x="658" 
d="M316 -10c-148 0 -232 101 -232 239v471h61v-471c0 -116 66 -181 171 -181h26c108 0 171 69 171 181v471h61v-471c0 -139 -85 -239 -232 -239h-26z" />
    <glyph glyph-name="V" unicode="V" horiz-adv-x="553" 
d="M476 700h65l-235 -700h-58l-236 700h66l122 -375c31 -93 55 -169 77 -243c23 75 47 152 77 244z" />
    <glyph glyph-name="W" unicode="W" horiz-adv-x="797" 
d="M719 700h66l-172 -700h-53l-86 310c-26 93 -51 198 -75 297c-22 -98 -48 -202 -73 -294l-88 -313h-51l-175 700h66l75 -320c21 -88 42 -188 61 -280c21 91 46 188 70 276l88 324h54l90 -329c24 -86 47 -180 69 -269c18 88 38 182 58 268z" />
    <glyph glyph-name="X" unicode="X" horiz-adv-x="531" 
d="M518 0h-70l-183 308l-181 -308h-71l217 361l-205 339h71l170 -287l170 287h70l-205 -340z" />
    <glyph glyph-name="Y" unicode="Y" horiz-adv-x="510" 
d="M498 700l-211 -391v-309h-61v306l-214 394h71l121 -232c18 -34 34 -69 51 -106c17 36 33 70 52 105l122 233h69z" />
    <glyph glyph-name="Z" unicode="Z" horiz-adv-x="523" 
d="M109 57h374v-57h-443v57l365 586h-336v57h404v-57z" />
    <glyph glyph-name="bracketleft" unicode="[" horiz-adv-x="280" 
d="M249 709h-87v-739h87v-51h-148v841h148v-51z" />
    <glyph glyph-name="backslash" unicode="\" horiz-adv-x="293" 
d="M238 -10l-237 720h54l237 -720h-54z" />
    <glyph glyph-name="bracketright" unicode="]" horiz-adv-x="280" 
d="M179 760v-841h-148v51h87v739h-87v51h148z" />
    <glyph glyph-name="asciicircum" unicode="^" horiz-adv-x="511" 
d="M465 292h-57l-152 333l-153 -333h-57l185 408h49z" />
    <glyph glyph-name="underscore" unicode="_" horiz-adv-x="630" 
d="M81 -121v46h468v-46h-468z" />
    <glyph glyph-name="grave" unicode="`" horiz-adv-x="333" 
d="M165 560l-103 142h69l88 -142h-54z" />
    <glyph glyph-name="a" unicode="a" horiz-adv-x="484" 
d="M252 498c97 0 158 -58 158 -145v-353h-43l-6 65c-23 -47 -68 -75 -125 -75h-32c-103 0 -162 60 -162 149c0 84 53 145 138 145h173v67c0 61 -40 93 -99 93h-38c-61 0 -95 -36 -95 -91h-57c0 87 61 145 155 145h33zM236 44c69 0 117 52 117 130v56h-173
c-51 0 -80 -36 -80 -91c0 -60 39 -95 104 -95h32z" />
    <glyph glyph-name="b" unicode="b" horiz-adv-x="519" 
d="M292 498c107 0 175 -72 175 -186v-141c0 -109 -66 -181 -172 -181h-23c-68 0 -116 32 -139 84l-6 -74h-44v700h57v-273c25 45 70 71 132 71h20zM409 171v141c0 81 -42 132 -117 132h-27c-78 0 -125 -53 -125 -142v-116c0 -88 46 -142 125 -142h27c74 0 117 48 117 127z
" />
    <glyph glyph-name="c" unicode="c" horiz-adv-x="455" 
d="M230 -10c-116 0 -178 72 -178 181v141c0 113 62 186 178 186h29c87 0 155 -50 155 -141h-57c0 60 -44 87 -98 87h-29c-84 0 -120 -51 -120 -132v-141c0 -82 40 -127 120 -127h29c58 0 98 30 98 88h57c0 -91 -66 -142 -155 -142h-29z" />
    <glyph glyph-name="d" unicode="d" horiz-adv-x="519" 
d="M379 700h57v-700h-44l-6 74c-23 -53 -71 -84 -139 -84h-22c-107 0 -173 72 -173 181v141c0 114 68 186 175 186h20c62 0 107 -26 132 -70v272zM254 44c80 0 125 54 125 142v116c0 90 -47 142 -125 142h-27c-75 0 -117 -51 -117 -132v-141c0 -79 43 -127 117 -127h27z" />
    <glyph glyph-name="e" unicode="e" horiz-adv-x="475" 
d="M110 212v-61c0 -68 43 -107 117 -107h32c66 0 105 34 105 91h57c0 -88 -64 -145 -162 -145h-32c-108 0 -175 63 -175 161v161c0 113 67 186 175 186h23c107 0 174 -72 174 -186v-100h-314zM227 444c-76 0 -117 -51 -117 -132v-47h257v47c0 84 -44 132 -117 132h-23z" />
    <glyph glyph-name="f" unicode="f" horiz-adv-x="274" 
d="M235 656c-69 0 -86 -37 -86 -102v-66h105v-52h-105v-436h-57v436h-68v52h68v66c0 125 52 156 143 156h39v-54h-39z" />
    <glyph glyph-name="g" unicode="g" horiz-adv-x="505" 
d="M385 488h43v-513c0 -103 -66 -170 -175 -170h-29c-94 0 -162 53 -162 145h57c-1 -60 42 -91 105 -91h29c74 0 118 43 118 116v102c-25 -43 -68 -69 -129 -69h-17c-106 0 -173 72 -173 186v123c0 109 65 181 170 181h20c67 0 113 -31 136 -83zM249 62c77 0 122 52 122 142
v98c0 88 -44 142 -122 142h-24c-73 0 -115 -48 -115 -127v-123c0 -81 41 -132 115 -132h24z" />
    <glyph glyph-name="h" unicode="h" horiz-adv-x="527" 
d="M294 498c99 0 159 -61 159 -157v-341h-57v340c0 68 -39 104 -99 104h-35c-73 0 -122 -56 -122 -145v-299h-57v700h57v-272c25 44 72 70 132 70h22z" />
    <glyph glyph-name="i" unicode="i" horiz-adv-x="222" 
d="M80 589v85h62v-85h-62zM83 0v488h57v-488h-57z" />
    <glyph glyph-name="j" unicode="j" horiz-adv-x="222" 
d="M80 589v85h62v-85h-62zM-15 -195v54h24c60 0 74 36 74 96v533h57v-533c0 -120 -49 -150 -131 -150h-24z" />
    <glyph glyph-name="k" unicode="k" horiz-adv-x="478" 
d="M404 0l-165 259l-99 -113v-146h-57v700h57v-476l230 264h70l-163 -186l194 -302h-67z" />
    <glyph glyph-name="l" unicode="l" horiz-adv-x="231" 
d="M188 -10c-88 0 -111 52 -111 129v581h57v-581c0 -59 24 -75 60 -75h20v-54h-26z" />
    <glyph glyph-name="m" unicode="m" horiz-adv-x="828" 
d="M597 498c98 0 157 -61 157 -157v-341h-57v340c0 68 -38 104 -97 104h-32c-72 0 -121 -52 -121 -133v-311h-57v340c0 68 -38 104 -97 104h-32c-72 0 -121 -52 -121 -133v-311h-57v488h44l6 -68c22 48 72 78 138 78h19c70 0 120 -31 143 -83c24 51 78 83 145 83h19z" />
    <glyph glyph-name="n" unicode="n" horiz-adv-x="527" 
d="M294 498c99 0 159 -61 159 -157v-341h-57v340c0 69 -40 104 -99 104h-35c-75 0 -122 -54 -122 -133v-311h-57v488h44l6 -68c22 48 72 78 139 78h22z" />
    <glyph glyph-name="o" unicode="o" horiz-adv-x="504" 
d="M264 498c115 0 187 -72 187 -186v-141c0 -109 -71 -181 -187 -181h-24c-116 0 -188 72 -188 181v141c0 113 72 186 188 186h24zM264 444h-24c-84 0 -130 -51 -130 -132v-141c0 -82 51 -127 130 -127h24c85 0 130 50 130 127v141c0 84 -49 132 -130 132z" />
    <glyph glyph-name="p" unicode="p" horiz-adv-x="517" 
d="M293 498c106 0 172 -72 172 -181v-141c0 -114 -68 -186 -175 -186h-20c-62 0 -107 26 -132 71v-246h-57v673h44l6 -74c23 52 71 84 139 84h23zM407 176v141c0 79 -43 127 -117 127h-27c-79 0 -125 -54 -125 -142v-116c0 -89 47 -142 125 -142h27c75 0 117 51 117 132z
" />
    <glyph glyph-name="q" unicode="q" horiz-adv-x="517" 
d="M392 488h44v-673h-57v245c-25 -44 -70 -70 -132 -70h-20c-107 0 -175 72 -175 186v141c0 109 66 181 173 181h22c68 0 116 -31 139 -84zM254 44c78 0 125 52 125 142v116c0 88 -45 142 -125 142h-27c-74 0 -117 -48 -117 -127v-141c0 -81 42 -132 117 -132h27z" />
    <glyph glyph-name="r" unicode="r" horiz-adv-x="313" 
d="M272 498h31v-54h-38c-77 0 -125 -59 -125 -147v-297h-57v488h44l6 -74c23 52 73 84 139 84z" />
    <glyph glyph-name="s" unicode="s" horiz-adv-x="460" 
d="M207 -10c-98 0 -163 44 -163 146h57c0 -70 42 -92 106 -92h28c63 0 123 18 123 91c0 67 -50 81 -124 90c-121 15 -183 39 -183 135c0 93 66 138 168 138h16c98 0 164 -44 164 -146h-58c0 70 -42 92 -106 92h-17c-58 0 -111 -16 -111 -83c0 -59 43 -69 135 -81
c109 -13 173 -43 173 -143c0 -103 -71 -147 -181 -147h-27z" />
    <glyph glyph-name="t" unicode="t" horiz-adv-x="298" 
d="M239 44h42v-54h-42c-119 0 -149 48 -149 151v295h-66v52h66v154h57v-154h117v-52h-117v-295c0 -78 33 -97 92 -97z" />
    <glyph glyph-name="u" unicode="u" horiz-adv-x="522" 
d="M384 488h57v-488h-43l-6 69c-22 -49 -72 -79 -140 -79h-22c-99 0 -159 61 -159 157v341h57v-340c0 -69 40 -104 100 -104h34c75 0 122 54 122 133v311z" />
    <glyph glyph-name="v" unicode="v" horiz-adv-x="430" 
d="M361 488h61l-180 -488h-53l-181 488h61l92 -255c19 -52 37 -104 55 -158c17 54 34 105 53 158z" />
    <glyph glyph-name="w" unicode="w" horiz-adv-x="705" 
d="M634 488h62l-158 -488h-52l-77 231l-56 180c-18 -62 -37 -123 -56 -181l-76 -230h-54l-158 488h62l65 -215c20 -66 39 -135 59 -207c21 71 42 144 64 210l69 212h51l66 -205c23 -68 45 -143 65 -214c20 70 40 143 60 210z" />
    <glyph glyph-name="x" unicode="x" horiz-adv-x="437" 
d="M429 0h-66l-145 208l-144 -208h-66l177 254l-162 234h66l129 -188l130 188h66l-163 -233z" />
    <glyph glyph-name="y" unicode="y" horiz-adv-x="434" 
d="M363 488h63l-216 -587c-26 -70 -69 -95 -131 -95h-28v54h31c42 0 66 22 79 60l30 85l-183 483h63l91 -245c21 -56 40 -109 59 -166c18 57 37 112 56 165z" />
    <glyph glyph-name="z" unicode="z" horiz-adv-x="425" 
d="M102 53h292v-53h-364v53l287 382h-273v53h342v-53z" />
    <glyph glyph-name="braceleft" unicode="{" horiz-adv-x="281" 
d="M158 448c0 -58 -15 -89 -49 -103c33 -13 49 -43 49 -104v-200c0 -52 10 -71 63 -71h34v-51h-34c-79 0 -120 21 -120 123v199c0 41 -9 74 -47 74h-25v60h25c35 0 47 29 47 73v189c0 95 33 123 120 123h34v-51h-34c-46 0 -63 -12 -63 -71v-190z" />
    <glyph glyph-name="bar" unicode="|" horiz-adv-x="262" 
d="M103 -81v843h57v-843h-57z" />
    <glyph glyph-name="braceright" unicode="}" horiz-adv-x="281" 
d="M227 375h25v-60h-25c-36 0 -47 -29 -47 -74v-199c0 -95 -33 -123 -121 -123h-33v51h34c48 0 63 13 63 71v200c0 58 15 90 49 103c-32 13 -49 43 -49 104v190c0 52 -10 71 -63 71h-34v51h33c80 0 121 -21 121 -123v-189c0 -40 9 -73 47 -73z" />
    <glyph glyph-name="asciitilde" unicode="~" horiz-adv-x="541" 
d="M369 221c-39 0 -70 15 -108 39c-35 22 -52 30 -80 30c-44 0 -69 -23 -69 -67h-53c0 75 53 120 125 120c37 0 63 -11 105 -40c19 -12 48 -31 80 -31c40 0 60 26 60 67h52c0 -71 -46 -118 -112 -118z" />
    <glyph glyph-name="uni00A0" unicode="&#xa0;" horiz-adv-x="209" 
 />
    <glyph glyph-name="exclamdown" unicode="&#xa1;" horiz-adv-x="290" 
d="M108 418v97h73v-97h-73zM110 -185l12 517h46l12 -517h-70z" />
    <glyph glyph-name="cent" unicode="&#xa2;" horiz-adv-x="461" 
d="M420 132c0 -89 -63 -140 -149 -142v-87h-44v87c-111 4 -169 75 -169 181v141c0 110 58 182 169 186v98h44v-98c84 -2 148 -52 148 -141h-57c0 60 -44 87 -97 87h-29c-85 0 -121 -51 -121 -132v-141c0 -82 40 -127 121 -127h29c57 0 98 30 98 88h57z" />
    <glyph glyph-name="sterling" unicode="&#xa3;" horiz-adv-x="547" 
d="M145 57h373v-57h-488v57h21c41 0 52 33 52 77v168h-65v54h65v170c0 125 82 184 205 184h7c127 0 187 -71 187 -178h-61c0 83 -46 121 -126 121h-7c-99 0 -143 -47 -143 -127v-170h225v-54h-225v-168c0 -34 -7 -59 -20 -77z" />
    <glyph glyph-name="currency" unicode="&#xa4;" horiz-adv-x="541" 
d="M481 284c0 -49 -17 -94 -46 -129l59 -59l-37 -37l-59 60c-36 -26 -80 -42 -127 -42c-48 0 -92 16 -127 43l-61 -61l-37 37l60 60c-27 35 -44 80 -44 128s16 92 44 127l-60 60l37 36l60 -59c35 28 80 44 128 44s92 -16 128 -43l58 58l37 -36l-58 -59
c28 -35 45 -80 45 -128zM271 129c84 0 153 69 153 155c0 85 -69 155 -153 155c-86 0 -154 -70 -154 -155c0 -86 68 -155 154 -155z" />
    <glyph glyph-name="yen" unicode="&#xa5;" horiz-adv-x="547" 
d="M499 700l-181 -361h136v-52h-150v-75h150v-52h-150v-160h-60v160h-151v52h151v75h-151v52h136l-182 361h70l157 -331l156 331h69z" />
    <glyph glyph-name="brokenbar" unicode="&#xa6;" horiz-adv-x="305" 
d="M124 402v360h58v-360h-58zM124 -81v360h58v-360h-58z" />
    <glyph glyph-name="section" unicode="&#xa7;" horiz-adv-x="589" 
d="M432 117c40 -27 62 -64 62 -124c0 -118 -73 -176 -190 -176h-38c-125 0 -188 58 -188 152h55c0 -73 53 -100 133 -100h38c97 0 134 49 134 124c0 85 -62 98 -140 116c-134 31 -208 59 -208 172c0 77 32 118 86 138c-46 25 -70 62 -70 127c0 113 72 164 179 164h27
c120 0 178 -61 178 -155h-55c0 72 -45 104 -123 104h-27c-83 0 -124 -38 -124 -111c0 -78 49 -97 164 -122c118 -25 185 -62 185 -169c0 -72 -29 -115 -78 -140zM145 283c0 -77 49 -98 165 -123c25 -5 47 -11 68 -18c54 17 76 60 76 114c0 87 -60 101 -140 119
c-26 6 -49 11 -70 17c-70 -7 -99 -47 -99 -109z" />
    <glyph glyph-name="dieresis" unicode="&#xa8;" horiz-adv-x="333" 
d="M34 587v83h65v-83h-65zM233 587v83h65v-83h-65z" />
    <glyph glyph-name="copyright" unicode="&#xa9;" horiz-adv-x="861" 
d="M431 -10c-216 0 -360 144 -360 360s144 360 360 360s360 -144 360 -360s-144 -360 -360 -360zM431 38c187 0 309 124 309 312s-122 312 -309 312s-309 -124 -309 -312s122 -312 309 -312zM422 152c-84 0 -136 47 -136 131v133c0 82 52 132 134 132h16
c68 0 114 -47 114 -110h-50c0 38 -20 65 -63 65h-20c-53 0 -81 -30 -81 -87v-133c0 -56 27 -86 82 -86h21c40 0 62 27 62 68h49c0 -66 -44 -113 -113 -113h-15z" />
    <glyph glyph-name="ordfeminine" unicode="&#xaa;" horiz-adv-x="343" 
d="M181 706c67 0 113 -42 113 -105v-244h-37l-5 40c-16 -30 -46 -47 -84 -47h-30c-68 0 -110 42 -110 105c0 60 40 104 102 104h115v42c0 38 -25 60 -66 60h-24c-41 0 -65 -23 -65 -60h-48c0 62 44 105 112 105h27zM171 394c42 0 74 29 74 74v49h-115c-33 0 -53 -25 -53 -62
c0 -38 23 -61 64 -61h30z" />
    <glyph glyph-name="guillemotleft" unicode="&#xab;" horiz-adv-x="549" 
d="M305 479l-194 -206l194 -204h-66l-200 204l200 206h66zM510 479l-194 -206l194 -204h-66l-200 204l200 206h66z" />
    <glyph glyph-name="logicalnot" unicode="&#xac;" horiz-adv-x="541" 
d="M62 414h417v-255h-55v200h-362v55z" />
    <glyph glyph-name="uni00AD" unicode="&#xad;" horiz-adv-x="445" 
d="M81 246v57h283v-57h-283z" />
    <glyph glyph-name="registered" unicode="&#xae;" horiz-adv-x="648" 
d="M324 710c144 0 240 -96 240 -240s-96 -240 -240 -240s-240 96 -240 240s96 240 240 240zM324 265c122 0 202 82 202 205s-80 205 -202 205c-123 0 -203 -82 -203 -205s80 -205 203 -205zM412 525c0 -32 -19 -58 -49 -67l60 -114h-42l-55 110h-52v-110h-36v257h100
c42 0 74 -29 74 -72v-4zM274 568v-82h64c24 0 37 15 37 39v4c0 24 -13 39 -37 39h-64z" />
    <glyph glyph-name="macron" unicode="&#xaf;" horiz-adv-x="333" 
d="M42 606v49h248v-49h-248z" />
    <glyph glyph-name="degree" unicode="&#xb0;" horiz-adv-x="449" 
d="M224 416c-87 0 -149 58 -149 145s62 146 149 146c88 0 150 -59 150 -146s-62 -145 -150 -145zM224 457c64 0 106 42 106 104c0 63 -43 105 -106 105s-105 -42 -105 -105c0 -62 42 -104 105 -104z" />
    <glyph glyph-name="plusminus" unicode="&#xb1;" horiz-adv-x="541" 
d="M298 364h181v-56h-181v-181h-55v181h-182v56h182v180h55v-180zM61 0v55h418v-55h-418z" />
    <glyph glyph-name="uni00B2" unicode="&#xb2;" horiz-adv-x="321" 
d="M82 437h212v-45h-263v91c0 61 30 93 109 113c77 21 101 41 101 95c0 49 -27 70 -76 70h-4c-53 0 -76 -23 -76 -65h-49c0 74 50 110 126 110h4c86 0 125 -46 125 -115c0 -81 -41 -112 -135 -138c-39 -11 -74 -23 -74 -70v-46z" />
    <glyph glyph-name="uni00B3" unicode="&#xb3;" horiz-adv-x="327" 
d="M232 605c39 -16 63 -50 63 -94v-15c0 -66 -48 -110 -120 -110h-37c-73 0 -121 44 -121 110h49c0 -39 28 -65 73 -65h33c45 0 73 26 73 66v15c0 43 -30 68 -73 68h-60v44h49c45 0 73 26 73 65v12c0 39 -28 61 -72 61h-12c-46 0 -73 -25 -73 -61h-49c0 64 51 105 122 105
h13c73 0 120 -42 120 -104v-12c0 -39 -19 -69 -51 -85z" />
    <glyph glyph-name="acute" unicode="&#xb4;" horiz-adv-x="333" 
d="M114 560l88 142h69l-102 -142h-55z" />
    <glyph glyph-name="paragraph" unicode="&#xb6;" horiz-adv-x="606" 
d="M486 700v-57h-7v-828h-58v828h-102v-828h-58v486h-18c-113 0 -188 75 -188 187v25c0 112 75 187 188 187h243z" />
    <glyph glyph-name="periodcentered" unicode="&#xb7;" horiz-adv-x="221" 
d="M74 248v98h74v-98h-74z" />
    <glyph glyph-name="cedilla" unicode="&#xb8;" horiz-adv-x="333" 
d="M186 -43c44 -6 70 -30 70 -70c0 -49 -39 -82 -91 -82c-54 0 -89 31 -89 79h45c0 -26 14 -40 44 -40c29 0 46 17 46 43c0 25 -16 37 -48 37h-36l37 85h53z" />
    <glyph glyph-name="uni00B9" unicode="&#xb9;" horiz-adv-x="194" 
d="M92 800h46v-408h-50v348l-75 -52v54z" />
    <glyph glyph-name="ordmasculine" unicode="&#xba;" horiz-adv-x="363" 
d="M191 706c80 0 134 -54 134 -134v-95c0 -76 -54 -127 -134 -127h-19c-80 0 -134 51 -134 127v95c0 80 53 134 134 134h19zM190 661h-16c-55 0 -87 -35 -87 -89v-94c0 -52 34 -83 87 -83h16c54 0 86 33 86 83v94c0 56 -34 89 -86 89z" />
    <glyph glyph-name="guillemotright" unicode="&#xbb;" horiz-adv-x="549" 
d="M105 479l200 -206l-200 -204h-66l193 204l-193 206h66zM310 479l200 -206l-200 -204h-66l193 204l-193 206h66z" />
    <glyph glyph-name="onequarter" unicode="&#xbc;" horiz-adv-x="673" 
d="M491 710h54l-416 -720h-54zM88 292v348l-75 -52v54l79 58h46v-408h-50zM663 127v-45h-62v-82h-49v82h-171v40l119 286h53l-115 -281h114v106h49v-106h62z" />
    <glyph glyph-name="onehalf" unicode="&#xbd;" horiz-adv-x="722" 
d="M491 710h54l-416 -720h-54zM88 292v348l-75 -52v54l79 58h46v-408h-50zM483 45h212v-45h-263v91c0 61 30 93 109 113c77 21 101 41 101 95c0 49 -27 70 -76 70h-4c-53 0 -76 -23 -76 -65h-49c0 74 50 110 126 110h4c86 0 125 -46 125 -115c0 -81 -41 -112 -135 -138
c-39 -11 -74 -23 -74 -70v-46z" />
    <glyph glyph-name="threequarters" unicode="&#xbe;" horiz-adv-x="766" 
d="M584 710h54l-416 -720h-54zM295 396c0 -66 -48 -110 -120 -110h-37c-73 0 -121 44 -121 110h49c0 -39 28 -65 73 -65h33c45 0 73 26 73 66v15c0 43 -30 68 -73 68h-60v44h49c45 0 73 26 73 65v12c0 39 -28 61 -72 61h-12c-46 0 -73 -25 -73 -61h-49c0 64 51 105 122 105
h13c73 0 120 -42 120 -104v-12c0 -39 -19 -69 -51 -85c39 -16 63 -50 63 -94v-15zM756 127v-45h-62v-82h-49v82h-171v40l119 286h53l-115 -281h114v106h49v-106h62z" />
    <glyph glyph-name="questiondown" unicode="&#xbf;" horiz-adv-x="491" 
d="M256 418v97h73v-97h-73zM248 -195c-134 0 -199 74 -199 193c0 98 40 154 131 206c51 29 85 62 86 129h50c0 -109 -55 -150 -111 -182c-78 -47 -98 -91 -98 -152c0 -95 52 -139 141 -139h8c98 0 143 44 143 121h58c0 -119 -79 -176 -201 -176h-8z" />
    <glyph glyph-name="Agrave" unicode="&#xc0;" horiz-adv-x="603" 
d="M331 772h-55l-102 142h69zM514 0l-62 180h-301l-62 -180h-65l248 700h59l248 -700h-65zM171 237h261l-48 140c-28 83 -55 163 -83 253c-28 -90 -54 -171 -83 -255z" />
    <glyph glyph-name="Aacute" unicode="&#xc1;" horiz-adv-x="603" 
d="M427 914l-102 -142h-55l88 142h69zM514 0l-62 180h-301l-62 -180h-65l248 700h59l248 -700h-65zM171 237h261l-48 140c-28 83 -55 163 -83 253c-28 -90 -54 -171 -83 -255z" />
    <glyph glyph-name="Acircumflex" unicode="&#xc2;" horiz-adv-x="603" 
d="M301 865l-80 -93h-54l109 142h49l109 -142h-54zM514 0l-62 180h-301l-62 -180h-65l248 700h59l248 -700h-65zM171 237h261l-48 140c-28 83 -55 163 -83 253c-28 -90 -54 -171 -83 -255z" />
    <glyph glyph-name="Atilde" unicode="&#xc3;" horiz-adv-x="603" 
d="M245 851c-21 0 -35 -24 -35 -59h-43c0 60 35 103 80 103c28 0 50 -19 66 -36c17 -16 29 -27 46 -27c22 0 33 21 33 58h43c0 -59 -32 -102 -76 -102c-27 0 -47 15 -69 35c-19 19 -29 28 -45 28zM514 0l-62 180h-301l-62 -180h-65l248 700h59l248 -700h-65zM171 237h261
l-48 140c-28 83 -55 163 -83 253c-28 -90 -54 -171 -83 -255z" />
    <glyph glyph-name="Adieresis" unicode="&#xc4;" horiz-adv-x="603" 
d="M235 882v-83h-65v83h65zM434 882v-83h-65v83h65zM514 0l-62 180h-301l-62 -180h-65l248 700h59l248 -700h-65zM171 237h261l-48 140c-28 83 -55 163 -83 253c-28 -90 -54 -171 -83 -255z" />
    <glyph glyph-name="Aring" unicode="&#xc5;" horiz-adv-x="603" 
d="M301 756c-55 0 -95 36 -95 91s40 92 95 92c54 0 93 -37 93 -92s-39 -91 -93 -91zM301 904c-34 0 -58 -23 -58 -57s24 -57 58 -57c33 0 57 23 57 57s-24 57 -57 57zM514 0l-62 180h-301l-62 -180h-65l248 700h59l248 -700h-65zM171 237h261l-48 140
c-28 83 -55 163 -83 253c-28 -90 -54 -171 -83 -255z" />
    <glyph glyph-name="AE" unicode="&#xc6;" horiz-adv-x="903" 
d="M876 643h-362v-259h313v-57h-313v-270h362v-57h-423v181h-270l-104 -181h-69l401 700h465v-57zM453 238v405h-6l-232 -405h238z" />
    <glyph glyph-name="Ccedilla" unicode="&#xc7;" horiz-adv-x="571" 
d="M318 48c86 0 145 47 145 129h61c0 -109 -79 -187 -206 -187h-6l-20 -32c45 -7 71 -31 71 -71c0 -49 -39 -82 -91 -82c-54 0 -89 31 -89 79h45c0 -26 14 -40 44 -40c29 0 46 17 46 43c0 25 -16 37 -49 37h-36l30 67c-136 9 -207 105 -207 234v247c0 138 83 238 228 238h34
c126 0 206 -77 206 -185h-62c0 82 -59 127 -144 127h-34c-107 0 -167 -68 -167 -179v-248c0 -117 64 -177 167 -177h34z" />
    <glyph glyph-name="Egrave" unicode="&#xc8;" horiz-adv-x="543" 
d="M338 772h-55l-102 142h69zM517 643h-364v-259h315v-57h-315v-270h364v-57h-424v700h424v-57z" />
    <glyph glyph-name="Eacute" unicode="&#xc9;" horiz-adv-x="543" 
d="M434 914l-102 -142h-55l88 142h69zM517 643h-364v-259h315v-57h-315v-270h364v-57h-424v700h424v-57z" />
    <glyph glyph-name="Ecircumflex" unicode="&#xca;" horiz-adv-x="543" 
d="M308 865l-80 -93h-54l109 142h49l109 -142h-54zM517 643h-364v-259h315v-57h-315v-270h364v-57h-424v700h424v-57z" />
    <glyph glyph-name="Edieresis" unicode="&#xcb;" horiz-adv-x="543" 
d="M242 882v-83h-65v83h65zM441 882v-83h-65v83h65zM517 643h-364v-259h315v-57h-315v-270h364v-57h-424v700h424v-57z" />
    <glyph glyph-name="Igrave" unicode="&#xcc;" horiz-adv-x="246" 
d="M98 772l-102 142h69l88 -142h-55zM93 0v700h60v-700h-60z" />
    <glyph glyph-name="Iacute" unicode="&#xcd;" horiz-adv-x="246" 
d="M92 772l88 142h69l-102 -142h-55zM93 0v700h60v-700h-60z" />
    <glyph glyph-name="Icircumflex" unicode="&#xce;" horiz-adv-x="246" 
d="M147 914l109 -142h-54l-79 93l-80 -93h-54l109 142h49zM93 0v700h60v-700h-60z" />
    <glyph glyph-name="Idieresis" unicode="&#xcf;" horiz-adv-x="246" 
d="M-8 799v83h65v-83h-65zM191 799v83h65v-83h-65zM93 0v700h60v-700h-60z" />
    <glyph glyph-name="Eth" unicode="&#xd0;" horiz-adv-x="622" 
d="M328 700c152 0 238 -102 238 -243v-218c0 -139 -86 -239 -238 -239h-235v322h-59v57h59v321h235zM505 239v219c0 118 -68 185 -177 185h-175v-264h163v-57h-163v-265h175c112 0 177 70 177 182z" />
    <glyph glyph-name="Ntilde" unicode="&#xd1;" horiz-adv-x="675" 
d="M281 851c-21 0 -35 -24 -35 -59h-43c0 60 35 103 80 103c28 0 50 -19 66 -36c17 -16 29 -27 46 -27c22 0 33 21 33 58h43c0 -59 -32 -102 -76 -102c-27 0 -47 15 -69 35c-19 19 -29 28 -45 28zM522 700h60v-700h-61l-194 308c-67 107 -122 198 -174 286v-594h-60v700h60
v-2l194 -310c65 -104 121 -196 175 -288v600z" />
    <glyph glyph-name="Ograve" unicode="&#xd2;" horiz-adv-x="631" 
d="M291 772l-102 142h69l88 -142h-55zM295 -10c-153 0 -239 101 -239 239v239c0 141 87 242 239 242h41c152 0 239 -102 239 -242v-239c0 -139 -87 -239 -239 -239h-41zM294 48h42c113 0 177 69 177 181v239c0 117 -68 184 -177 184h-42c-112 0 -177 -70 -177 -184v-239
c0 -115 68 -181 177 -181z" />
    <glyph glyph-name="Oacute" unicode="&#xd3;" horiz-adv-x="631" 
d="M285 772l88 142h69l-102 -142h-55zM295 -10c-153 0 -239 101 -239 239v239c0 141 87 242 239 242h41c152 0 239 -102 239 -242v-239c0 -139 -87 -239 -239 -239h-41zM294 48h42c113 0 177 69 177 181v239c0 117 -68 184 -177 184h-42c-112 0 -177 -70 -177 -184v-239
c0 -115 68 -181 177 -181z" />
    <glyph glyph-name="Ocircumflex" unicode="&#xd4;" horiz-adv-x="631" 
d="M316 865l-80 -93h-54l109 142h49l109 -142h-54zM336 710c152 0 239 -102 239 -242v-239c0 -139 -87 -239 -239 -239h-41c-153 0 -239 101 -239 239v239c0 141 87 242 239 242h41zM513 229v239c0 117 -68 184 -177 184h-42c-112 0 -177 -70 -177 -184v-239
c0 -115 68 -181 177 -181h42c113 0 177 69 177 181z" />
    <glyph glyph-name="Otilde" unicode="&#xd5;" horiz-adv-x="631" 
d="M374 788c-27 0 -47 15 -69 35c-19 19 -29 28 -45 28c-21 0 -35 -24 -35 -59h-43c0 60 35 103 80 103c28 0 50 -19 66 -36c17 -16 29 -27 46 -27c22 0 33 21 33 58h43c0 -59 -32 -102 -76 -102zM295 -10c-153 0 -239 101 -239 239v239c0 141 87 242 239 242h41
c152 0 239 -102 239 -242v-239c0 -139 -87 -239 -239 -239h-41zM294 48h42c113 0 177 69 177 181v239c0 117 -68 184 -177 184h-42c-112 0 -177 -70 -177 -184v-239c0 -115 68 -181 177 -181z" />
    <glyph glyph-name="Odieresis" unicode="&#xd6;" horiz-adv-x="631" 
d="M184 799v83h65v-83h-65zM383 799v83h65v-83h-65zM295 -10c-153 0 -239 101 -239 239v239c0 141 87 242 239 242h41c152 0 239 -102 239 -242v-239c0 -139 -87 -239 -239 -239h-41zM294 48h42c113 0 177 69 177 181v239c0 117 -68 184 -177 184h-42
c-112 0 -177 -70 -177 -184v-239c0 -115 68 -181 177 -181z" />
    <glyph glyph-name="multiply" unicode="&#xd7;" horiz-adv-x="541" 
d="M457 433l-148 -148l148 -149l-38 -39l-148 149l-149 -149l-39 40l149 148l-148 148l38 39l148 -148l149 148z" />
    <glyph glyph-name="Oslash" unicode="&#xd8;" horiz-adv-x="631" 
d="M575 710l-51 -82c33 -41 51 -97 51 -160v-239c0 -139 -87 -239 -239 -239h-41c-62 0 -114 17 -153 46l-28 -46h-58l50 81c-33 42 -50 96 -50 158v239c0 141 87 242 239 242h41c62 0 113 -17 152 -46l29 46h58zM117 468v-239c0 -42 9 -77 26 -105l310 491
c-30 24 -69 37 -117 37h-42c-112 0 -177 -70 -177 -184zM513 229v239c0 43 -9 79 -26 107l-310 -491c30 -23 69 -36 117 -36h42c113 0 177 69 177 181z" />
    <glyph glyph-name="Ugrave" unicode="&#xd9;" horiz-adv-x="658" 
d="M304 772l-102 142h69l88 -142h-55zM316 -10c-148 0 -232 101 -232 239v471h61v-471c0 -116 66 -181 171 -181h26c108 0 171 69 171 181v471h61v-471c0 -139 -85 -239 -232 -239h-26z" />
    <glyph glyph-name="Uacute" unicode="&#xda;" horiz-adv-x="658" 
d="M298 772l88 142h69l-102 -142h-55zM316 -10c-148 0 -232 101 -232 239v471h61v-471c0 -116 66 -181 171 -181h26c108 0 171 69 171 181v471h61v-471c0 -139 -85 -239 -232 -239h-26z" />
    <glyph glyph-name="Ucircumflex" unicode="&#xdb;" horiz-adv-x="658" 
d="M329 865l-80 -93h-54l109 142h49l109 -142h-54zM513 700h61v-471c0 -139 -85 -239 -232 -239h-26c-148 0 -232 101 -232 239v471h61v-471c0 -116 66 -181 171 -181h26c108 0 171 69 171 181v471z" />
    <glyph glyph-name="Udieresis" unicode="&#xdc;" horiz-adv-x="658" 
d="M197 799v83h65v-83h-65zM396 799v83h65v-83h-65zM316 -10c-148 0 -232 101 -232 239v471h61v-471c0 -116 66 -181 171 -181h26c108 0 171 69 171 181v471h61v-471c0 -139 -85 -239 -232 -239h-26z" />
    <glyph glyph-name="Yacute" unicode="&#xdd;" horiz-adv-x="510" 
d="M382 914l-102 -142h-55l88 142h69zM498 700l-211 -391v-309h-61v306l-214 394h71l121 -232c18 -34 34 -69 51 -106c17 36 33 70 52 105l122 233h69z" />
    <glyph glyph-name="Thorn" unicode="&#xde;" horiz-adv-x="576" 
d="M359 578c114 0 190 -75 190 -189v-26c0 -112 -75 -188 -190 -188h-205v-175h-61v700h61v-122h205zM488 363v26c0 82 -50 132 -129 132h-205v-288h205c81 0 129 51 129 130z" />
    <glyph glyph-name="germandbls" unicode="&#xdf;" horiz-adv-x="558" 
d="M384 284c111 -33 151 -69 151 -150c0 -86 -61 -144 -153 -144h-9c-116 0 -170 58 -170 144h58c0 -62 41 -90 112 -90h9c65 0 95 38 95 90c0 59 -39 77 -111 99c-91 28 -136 44 -136 121c0 49 19 76 63 108c54 38 83 61 83 106c0 53 -33 84 -86 84h-35
c-67 0 -105 -39 -105 -99v-553h-57v436h-65v52h65v65c0 92 65 154 162 154h35c86 0 144 -57 144 -139c0 -74 -54 -113 -106 -148c-31 -21 -40 -37 -40 -67c0 -39 24 -47 96 -69z" />
    <glyph glyph-name="agrave" unicode="&#xe0;" horiz-adv-x="484" 
d="M273 560h-55l-102 142h69zM252 498c97 0 158 -58 158 -145v-353h-43l-6 65c-23 -47 -68 -75 -125 -75h-32c-103 0 -162 60 -162 149c0 84 53 145 138 145h173v67c0 61 -40 93 -99 93h-38c-61 0 -95 -36 -95 -91h-57c0 87 61 145 155 145h33zM236 44c69 0 117 52 117 130
v56h-173c-51 0 -80 -36 -80 -91c0 -60 39 -95 104 -95h32z" />
    <glyph glyph-name="aacute" unicode="&#xe1;" horiz-adv-x="484" 
d="M369 702l-102 -142h-55l88 142h69zM252 498c97 0 158 -58 158 -145v-353h-43l-6 65c-23 -47 -68 -75 -125 -75h-32c-103 0 -162 60 -162 149c0 84 53 145 138 145h173v67c0 61 -40 93 -99 93h-38c-61 0 -95 -36 -95 -91h-57c0 87 61 145 155 145h33zM236 44
c69 0 117 52 117 130v56h-173c-51 0 -80 -36 -80 -91c0 -60 39 -95 104 -95h32z" />
    <glyph glyph-name="acircumflex" unicode="&#xe2;" horiz-adv-x="484" 
d="M243 653l-80 -93h-54l109 142h49l109 -142h-54zM252 498c97 0 158 -58 158 -145v-353h-43l-6 65c-23 -47 -68 -75 -125 -75h-32c-103 0 -162 60 -162 149c0 84 53 145 138 145h173v67c0 61 -40 93 -99 93h-38c-61 0 -95 -36 -95 -91h-57c0 87 61 145 155 145h33zM236 44
c69 0 117 52 117 130v56h-173c-51 0 -80 -36 -80 -91c0 -60 39 -95 104 -95h32z" />
    <glyph glyph-name="atilde" unicode="&#xe3;" horiz-adv-x="484" 
d="M187 639c-21 0 -35 -24 -35 -59h-43c0 60 35 103 80 103c28 0 50 -19 66 -36c17 -16 29 -27 46 -27c22 0 33 21 33 58h43c0 -59 -32 -102 -76 -102c-27 0 -47 15 -69 35c-19 19 -29 28 -45 28zM252 498c97 0 158 -58 158 -145v-353h-43l-6 65c-23 -47 -68 -75 -125 -75
h-32c-103 0 -162 60 -162 149c0 84 53 145 138 145h173v67c0 61 -40 93 -99 93h-38c-61 0 -95 -36 -95 -91h-57c0 87 61 145 155 145h33zM236 44c69 0 117 52 117 130v56h-173c-51 0 -80 -36 -80 -91c0 -60 39 -95 104 -95h32z" />
    <glyph glyph-name="adieresis" unicode="&#xe4;" horiz-adv-x="484" 
d="M177 670v-83h-65v83h65zM376 670v-83h-65v83h65zM252 498c97 0 158 -58 158 -145v-353h-43l-6 65c-23 -47 -68 -75 -125 -75h-32c-103 0 -162 60 -162 149c0 84 53 145 138 145h173v67c0 61 -40 93 -99 93h-38c-61 0 -95 -36 -95 -91h-57c0 87 61 145 155 145h33zM236 44
c69 0 117 52 117 130v56h-173c-51 0 -80 -36 -80 -91c0 -60 39 -95 104 -95h32z" />
    <glyph glyph-name="aring" unicode="&#xe5;" horiz-adv-x="484" 
d="M243 544c-55 0 -95 36 -95 91s40 92 95 92c54 0 93 -37 93 -92s-39 -91 -93 -91zM243 692c-34 0 -58 -23 -58 -57s24 -57 58 -57c33 0 57 23 57 57s-24 57 -57 57zM252 498c97 0 158 -58 158 -145v-353h-43l-6 65c-23 -47 -68 -75 -125 -75h-32c-103 0 -162 60 -162 149
c0 84 53 145 138 145h173v67c0 61 -40 93 -99 93h-38c-61 0 -95 -36 -95 -91h-57c0 87 61 145 155 145h33zM236 44c69 0 117 52 117 130v56h-173c-51 0 -80 -36 -80 -91c0 -60 39 -95 104 -95h32z" />
    <glyph glyph-name="ae" unicode="&#xe6;" horiz-adv-x="775" 
d="M410 220v-69c0 -68 44 -107 117 -107h32c66 0 106 34 106 91h57c0 -88 -65 -145 -163 -145h-32c-79 0 -131 34 -153 91c-22 -57 -71 -91 -138 -91h-32c-103 0 -162 59 -162 146c0 82 53 137 138 137h173v78c0 59 -40 93 -99 93h-38c-61 0 -95 -36 -95 -91h-57
c0 87 61 145 155 145h33c65 0 114 -25 139 -69c27 44 73 69 136 69h23c107 0 174 -72 174 -186v-92h-314zM527 444c-76 0 -117 -52 -117 -132v-39h257v39c0 84 -44 132 -117 132h-23zM236 44c70 0 117 52 117 130v46h-173c-52 0 -80 -32 -80 -85c0 -58 38 -91 104 -91h32z
" />
    <glyph glyph-name="ccedilla" unicode="&#xe7;" horiz-adv-x="455" 
d="M259 44c58 0 98 30 98 88h57c0 -91 -66 -142 -155 -142h-6l-20 -32c45 -7 71 -31 71 -71c0 -49 -39 -82 -91 -82c-54 0 -89 31 -89 79h45c0 -26 14 -40 44 -40c29 0 46 17 46 43c0 25 -16 37 -49 37h-36l30 67c-99 10 -152 79 -152 180v141c0 113 62 186 178 186h29
c87 0 155 -50 155 -141h-57c0 60 -44 87 -98 87h-29c-84 0 -120 -51 -120 -132v-141c0 -82 40 -127 120 -127h29z" />
    <glyph glyph-name="egrave" unicode="&#xe8;" horiz-adv-x="475" 
d="M268 560h-55l-102 142h69zM110 212v-61c0 -68 43 -107 117 -107h32c66 0 105 34 105 91h57c0 -88 -64 -145 -162 -145h-32c-108 0 -175 63 -175 161v161c0 113 67 186 175 186h23c107 0 174 -72 174 -186v-100h-314zM227 444c-76 0 -117 -51 -117 -132v-47h257v47
c0 84 -44 132 -117 132h-23z" />
    <glyph glyph-name="eacute" unicode="&#xe9;" horiz-adv-x="475" 
d="M364 702l-102 -142h-55l88 142h69zM110 212v-61c0 -68 43 -107 117 -107h32c66 0 105 34 105 91h57c0 -88 -64 -145 -162 -145h-32c-108 0 -175 63 -175 161v161c0 113 67 186 175 186h23c107 0 174 -72 174 -186v-100h-314zM227 444c-76 0 -117 -51 -117 -132v-47h257
v47c0 84 -44 132 -117 132h-23z" />
    <glyph glyph-name="ecircumflex" unicode="&#xea;" horiz-adv-x="475" 
d="M238 653l-80 -93h-54l109 142h49l109 -142h-54zM110 212v-61c0 -68 43 -107 117 -107h32c66 0 105 34 105 91h57c0 -88 -64 -145 -162 -145h-32c-108 0 -175 63 -175 161v161c0 113 67 186 175 186h23c107 0 174 -72 174 -186v-100h-314zM227 444
c-76 0 -117 -51 -117 -132v-47h257v47c0 84 -44 132 -117 132h-23z" />
    <glyph glyph-name="edieresis" unicode="&#xeb;" horiz-adv-x="475" 
d="M172 670v-83h-65v83h65zM371 670v-83h-65v83h65zM110 212v-61c0 -68 43 -107 117 -107h32c66 0 105 34 105 91h57c0 -88 -64 -145 -162 -145h-32c-108 0 -175 63 -175 161v161c0 113 67 186 175 186h23c107 0 174 -72 174 -186v-100h-314zM227 444
c-76 0 -117 -51 -117 -132v-47h257v47c0 84 -44 132 -117 132h-23z" />
    <glyph glyph-name="igrave" unicode="&#xec;" horiz-adv-x="222" 
d="M87 560l-102 142h69l88 -142h-55zM140 488v-488h-57v488h57z" />
    <glyph glyph-name="iacute" unicode="&#xed;" horiz-adv-x="222" 
d="M81 560l88 142h69l-102 -142h-55zM140 488v-488h-57v488h57z" />
    <glyph glyph-name="icircumflex" unicode="&#xee;" horiz-adv-x="222" 
d="M136 702l109 -142h-54l-79 93l-80 -93h-54l109 142h49zM83 0v488h57v-488h-57z" />
    <glyph glyph-name="idieresis" unicode="&#xef;" horiz-adv-x="222" 
d="M-20 587v83h65v-83h-65zM179 587v83h65v-83h-65zM140 488v-488h-57v488h57z" />
    <glyph glyph-name="eth" unicode="&#xf0;" horiz-adv-x="517" 
d="M333 582c81 -98 121 -202 121 -300v-110c0 -109 -77 -182 -188 -182h-24c-111 0 -190 73 -190 182v97c0 115 82 191 192 191h20c45 0 83 -18 110 -51c-19 55 -51 108 -92 157l-116 -36l-14 46l95 29c-31 33 -67 65 -105 95h66c33 -25 63 -52 89 -79l110 34l14 -46z
M396 172v90c0 84 -51 143 -125 143h-27c-82 0 -134 -56 -134 -136v-97c0 -78 53 -127 132 -127h24c81 0 130 51 130 127z" />
    <glyph glyph-name="ntilde" unicode="&#xf1;" horiz-adv-x="527" 
d="M219 639c-21 0 -35 -24 -35 -59h-43c0 60 35 103 80 103c28 0 50 -19 66 -36c17 -16 29 -27 46 -27c22 0 33 21 33 58h43c0 -59 -32 -102 -76 -102c-27 0 -47 15 -69 35c-19 19 -29 28 -45 28zM294 498c99 0 159 -61 159 -157v-341h-57v340c0 69 -40 104 -99 104h-35
c-75 0 -122 -54 -122 -133v-311h-57v488h44l6 -68c22 48 72 78 139 78h22z" />
    <glyph glyph-name="ograve" unicode="&#xf2;" horiz-adv-x="504" 
d="M227 560l-102 142h69l88 -142h-55zM264 498c115 0 187 -72 187 -186v-141c0 -109 -71 -181 -187 -181h-24c-116 0 -188 72 -188 181v141c0 113 72 186 188 186h24zM264 444h-24c-84 0 -130 -51 -130 -132v-141c0 -82 51 -127 130 -127h24c85 0 130 50 130 127v141
c0 84 -49 132 -130 132z" />
    <glyph glyph-name="oacute" unicode="&#xf3;" horiz-adv-x="504" 
d="M221 560l88 142h69l-102 -142h-55zM264 498c115 0 187 -72 187 -186v-141c0 -109 -71 -181 -187 -181h-24c-116 0 -188 72 -188 181v141c0 113 72 186 188 186h24zM264 444h-24c-84 0 -130 -51 -130 -132v-141c0 -82 51 -127 130 -127h24c85 0 130 50 130 127v141
c0 84 -49 132 -130 132z" />
    <glyph glyph-name="ocircumflex" unicode="&#xf4;" horiz-adv-x="504" 
d="M252 653l-80 -93h-54l109 142h49l109 -142h-54zM264 498c115 0 187 -72 187 -186v-141c0 -109 -71 -181 -187 -181h-24c-116 0 -188 72 -188 181v141c0 113 72 186 188 186h24zM394 171v141c0 84 -49 132 -130 132h-24c-84 0 -130 -51 -130 -132v-141
c0 -82 51 -127 130 -127h24c85 0 130 50 130 127z" />
    <glyph glyph-name="otilde" unicode="&#xf5;" horiz-adv-x="504" 
d="M310 576c-27 0 -47 15 -69 35c-19 19 -29 28 -45 28c-21 0 -35 -24 -35 -59h-43c0 60 35 103 80 103c28 0 50 -19 66 -36c17 -16 29 -27 46 -27c22 0 33 21 33 58h43c0 -59 -32 -102 -76 -102zM264 498c115 0 187 -72 187 -186v-141c0 -109 -71 -181 -187 -181h-24
c-116 0 -188 72 -188 181v141c0 113 72 186 188 186h24zM264 444h-24c-84 0 -130 -51 -130 -132v-141c0 -82 51 -127 130 -127h24c85 0 130 50 130 127v141c0 84 -49 132 -130 132z" />
    <glyph glyph-name="odieresis" unicode="&#xf6;" horiz-adv-x="504" 
d="M121 587v83h65v-83h-65zM320 587v83h65v-83h-65zM264 498c115 0 187 -72 187 -186v-141c0 -109 -71 -181 -187 -181h-24c-116 0 -188 72 -188 181v141c0 113 72 186 188 186h24zM264 444h-24c-84 0 -130 -51 -130 -132v-141c0 -82 51 -127 130 -127h24
c85 0 130 50 130 127v141c0 84 -49 132 -130 132z" />
    <glyph glyph-name="divide" unicode="&#xf7;" horiz-adv-x="541" 
d="M233 397v95h74v-95h-74zM62 257v55h417v-55h-417zM233 77v95h74v-95h-74z" />
    <glyph glyph-name="oslash" unicode="&#xf8;" horiz-adv-x="504" 
d="M455 498l-44 -62c26 -32 40 -74 40 -124v-141c0 -109 -71 -181 -187 -181h-24c-48 0 -88 12 -119 34l-23 -34h-50l44 61c-26 31 -40 72 -40 120v141c0 113 72 186 188 186h24c47 0 87 -12 117 -34l24 34h50zM110 312v-141c0 -29 6 -53 18 -72l219 321
c-21 16 -49 24 -83 24h-24c-84 0 -130 -51 -130 -132zM394 171v141c0 31 -6 56 -19 77l-219 -321c22 -16 51 -24 84 -24h24c85 0 130 50 130 127z" />
    <glyph glyph-name="ugrave" unicode="&#xf9;" horiz-adv-x="522" 
d="M285 560h-55l-102 142h69zM384 488h57v-488h-43l-6 69c-22 -49 -72 -79 -140 -79h-22c-99 0 -159 61 -159 157v341h57v-340c0 -69 40 -104 100 -104h34c75 0 122 54 122 133v311z" />
    <glyph glyph-name="uacute" unicode="&#xfa;" horiz-adv-x="522" 
d="M381 702l-102 -142h-55l88 142h69zM384 488h57v-488h-43l-6 69c-22 -49 -72 -79 -140 -79h-22c-99 0 -159 61 -159 157v341h57v-340c0 -69 40 -104 100 -104h34c75 0 122 54 122 133v311z" />
    <glyph glyph-name="ucircumflex" unicode="&#xfb;" horiz-adv-x="522" 
d="M255 653l-80 -93h-54l109 142h49l109 -142h-54zM384 488h57v-488h-43l-6 69c-22 -49 -72 -79 -140 -79h-22c-99 0 -159 61 -159 157v341h57v-340c0 -69 40 -104 100 -104h34c75 0 122 54 122 133v311z" />
    <glyph glyph-name="udieresis" unicode="&#xfc;" horiz-adv-x="522" 
d="M188 670v-83h-65v83h65zM387 670v-83h-65v83h65zM384 488h57v-488h-43l-6 69c-22 -49 -72 -79 -140 -79h-22c-99 0 -159 61 -159 157v341h57v-340c0 -69 40 -104 100 -104h34c75 0 122 54 122 133v311z" />
    <glyph glyph-name="yacute" unicode="&#xfd;" horiz-adv-x="434" 
d="M346 702l-102 -142h-55l88 142h69zM363 488h63l-216 -587c-26 -70 -69 -95 -131 -95h-28v54h31c42 0 66 22 79 60l30 85l-183 483h63l91 -245c21 -56 40 -109 59 -166c18 57 37 112 56 165z" />
    <glyph glyph-name="thorn" unicode="&#xfe;" horiz-adv-x="517" 
d="M293 498c106 0 172 -72 172 -181v-141c0 -114 -68 -186 -175 -186h-20c-62 0 -107 26 -132 71v-246h-57v885h57v-273c25 45 70 71 132 71h23zM407 176v141c0 79 -43 127 -117 127h-27c-79 0 -125 -54 -125 -142v-116c0 -90 47 -142 125 -142h27c75 0 117 51 117 132z" />
    <glyph glyph-name="ydieresis" unicode="&#xff;" horiz-adv-x="434" 
d="M153 670v-83h-65v83h65zM352 670v-83h-65v83h65zM363 488h63l-216 -587c-26 -70 -69 -95 -131 -95h-28v54h31c42 0 66 22 79 60l30 85l-183 483h63l91 -245c21 -56 40 -109 59 -166c18 57 37 112 56 165z" />
    <glyph glyph-name="Amacron" unicode="&#x100;" horiz-adv-x="603" 
d="M425 867v-49h-248v49h248zM514 0l-62 180h-301l-62 -180h-65l248 700h59l248 -700h-65zM171 237h261l-48 140c-28 83 -55 163 -83 253c-28 -90 -54 -171 -83 -255z" />
    <glyph glyph-name="amacron" unicode="&#x101;" horiz-adv-x="484" 
d="M367 655v-49h-248v49h248zM252 498c97 0 158 -58 158 -145v-353h-43l-6 65c-23 -47 -68 -75 -125 -75h-32c-103 0 -162 60 -162 149c0 84 53 145 138 145h173v67c0 61 -40 93 -99 93h-38c-61 0 -95 -36 -95 -91h-57c0 87 61 145 155 145h33zM236 44c69 0 117 52 117 130
v56h-173c-51 0 -80 -36 -80 -91c0 -60 39 -95 104 -95h32z" />
    <glyph glyph-name="Abreve" unicode="&#x102;" horiz-adv-x="603" 
d="M301 784c-76 0 -130 46 -130 115h44c0 -40 37 -67 86 -67s86 27 86 67h43c0 -68 -52 -115 -129 -115zM514 0l-62 180h-301l-62 -180h-65l248 700h59l248 -700h-65zM171 237h261l-48 140c-28 83 -55 163 -83 253c-28 -90 -54 -171 -83 -255z" />
    <glyph glyph-name="abreve" unicode="&#x103;" horiz-adv-x="484" 
d="M243 572c-76 0 -130 46 -130 115h44c0 -40 37 -67 86 -67s86 27 86 67h43c0 -68 -52 -115 -129 -115zM252 498c97 0 158 -58 158 -145v-353h-43l-6 65c-23 -47 -68 -75 -125 -75h-32c-103 0 -162 60 -162 149c0 84 53 145 138 145h173v67c0 61 -40 93 -99 93h-38
c-61 0 -95 -36 -95 -91h-57c0 87 61 145 155 145h33zM236 44c69 0 117 52 117 130v56h-173c-51 0 -80 -36 -80 -91c0 -60 39 -95 104 -95h32z" />
    <glyph glyph-name="Aogonek" unicode="&#x104;" horiz-adv-x="603" 
d="M565 -141c13 0 25 1 36 3v-45c-16 -3 -28 -4 -41 -4c-72 0 -106 36 -106 83c0 39 26 73 68 104h-8l-62 180h-301l-62 -180h-65l248 700h59l248 -700h-8c-48 -36 -62 -66 -62 -98c0 -27 19 -43 56 -43zM171 237h261l-48 140c-28 83 -55 163 -83 253
c-28 -90 -54 -171 -83 -255z" />
    <glyph glyph-name="aogonek" unicode="&#x105;" horiz-adv-x="484" 
d="M395 -141c12 0 25 1 36 3v-45c-16 -3 -28 -4 -41 -4c-72 0 -106 35 -106 82c0 41 29 75 82 112l-5 58c-23 -47 -68 -75 -125 -75h-32c-103 0 -162 60 -162 149c0 84 53 145 138 145h173v67c0 61 -40 93 -99 93h-38c-61 0 -95 -36 -95 -91h-57c0 87 61 145 155 145h33
c97 0 158 -58 158 -145v-353c-52 -37 -71 -66 -71 -98c0 -27 19 -43 56 -43zM236 44c69 0 117 52 117 130v56h-173c-51 0 -80 -36 -80 -91c0 -60 39 -95 104 -95h32z" />
    <glyph glyph-name="Cacute" unicode="&#x106;" horiz-adv-x="571" 
d="M260 772l88 142h69l-102 -142h-55zM284 -10c-150 0 -228 99 -228 235v247c0 138 83 238 228 238h34c126 0 206 -77 206 -185h-62c0 82 -59 127 -144 127h-34c-107 0 -167 -68 -167 -179v-248c0 -117 64 -177 167 -177h34c86 0 145 47 145 129h61
c0 -109 -79 -187 -206 -187h-34z" />
    <glyph glyph-name="cacute" unicode="&#x107;" horiz-adv-x="455" 
d="M206 560l88 142h69l-102 -142h-55zM230 -10c-116 0 -178 72 -178 181v141c0 113 62 186 178 186h29c87 0 155 -50 155 -141h-57c0 60 -44 87 -98 87h-29c-84 0 -120 -51 -120 -132v-141c0 -82 40 -127 120 -127h29c58 0 98 30 98 88h57c0 -91 -66 -142 -155 -142h-29z
" />
    <glyph glyph-name="Ccircumflex" unicode="&#x108;" horiz-adv-x="571" 
d="M291 865l-80 -93h-54l109 142h49l109 -142h-54zM318 48c86 0 145 47 145 129h61c0 -109 -79 -187 -206 -187h-34c-150 0 -228 99 -228 235v247c0 138 83 238 228 238h34c126 0 206 -77 206 -185h-62c0 82 -59 127 -144 127h-34c-107 0 -167 -68 -167 -179v-248
c0 -117 64 -177 167 -177h34z" />
    <glyph glyph-name="ccircumflex" unicode="&#x109;" horiz-adv-x="455" 
d="M237 653l-80 -93h-54l109 142h49l109 -142h-54zM259 44c58 0 98 30 98 88h57c0 -91 -66 -142 -155 -142h-29c-116 0 -178 72 -178 181v141c0 113 62 186 178 186h29c87 0 155 -50 155 -141h-57c0 60 -44 87 -98 87h-29c-84 0 -120 -51 -120 -132v-141
c0 -82 40 -127 120 -127h29z" />
    <glyph glyph-name="Cdotaccent" unicode="&#x10a;" horiz-adv-x="571" 
d="M259 799v83h64v-83h-64zM284 -10c-150 0 -228 99 -228 235v247c0 138 83 238 228 238h34c126 0 206 -77 206 -185h-62c0 82 -59 127 -144 127h-34c-107 0 -167 -68 -167 -179v-248c0 -117 64 -177 167 -177h34c86 0 145 47 145 129h61c0 -109 -79 -187 -206 -187h-34z
" />
    <glyph glyph-name="cdotaccent" unicode="&#x10b;" horiz-adv-x="455" 
d="M204 587v83h64v-83h-64zM230 -10c-116 0 -178 72 -178 181v141c0 113 62 186 178 186h29c87 0 155 -50 155 -141h-57c0 60 -44 87 -98 87h-29c-84 0 -120 -51 -120 -132v-141c0 -82 40 -127 120 -127h29c58 0 98 30 98 88h57c0 -91 -66 -142 -155 -142h-29z" />
    <glyph glyph-name="Ccaron" unicode="&#x10c;" horiz-adv-x="571" 
d="M266 772l-109 142h54l80 -93l79 93h54l-109 -142h-49zM318 48c86 0 145 47 145 129h61c0 -109 -79 -187 -206 -187h-34c-150 0 -228 99 -228 235v247c0 138 83 238 228 238h34c126 0 206 -77 206 -185h-62c0 82 -59 127 -144 127h-34c-107 0 -167 -68 -167 -179v-248
c0 -117 64 -177 167 -177h34z" />
    <glyph glyph-name="ccaron" unicode="&#x10d;" horiz-adv-x="455" 
d="M212 560l-109 142h54l80 -93l79 93h54l-109 -142h-49zM259 44c58 0 98 30 98 88h57c0 -91 -66 -142 -155 -142h-29c-116 0 -178 72 -178 181v141c0 113 62 186 178 186h29c87 0 155 -50 155 -141h-57c0 60 -44 87 -98 87h-29c-84 0 -120 -51 -120 -132v-141
c0 -82 40 -127 120 -127h29z" />
    <glyph glyph-name="Dcaron" unicode="&#x10e;" horiz-adv-x="622" 
d="M289 772l-109 142h54l80 -93l79 93h54l-109 -142h-49zM328 700c152 0 238 -102 238 -243v-218c0 -139 -86 -239 -238 -239h-235v700h235zM505 239v219c0 118 -68 185 -177 185h-175v-586h175c112 0 177 70 177 182z" />
    <glyph glyph-name="dcaron" unicode="&#x10f;" horiz-adv-x="519" 
d="M379 428v272h57v-700h-44l-6 74c-23 -53 -71 -84 -139 -84h-22c-107 0 -173 72 -173 181v141c0 114 68 186 175 186h20c62 0 107 -26 132 -70zM518 700h69l-46 -164h-54zM254 44c80 0 125 54 125 142v116c0 90 -47 142 -125 142h-27c-75 0 -117 -51 -117 -132v-141
c0 -79 43 -127 117 -127h27z" />
    <glyph glyph-name="Dcroat" unicode="&#x110;" horiz-adv-x="622" 
d="M328 700c152 0 238 -102 238 -243v-218c0 -139 -86 -239 -238 -239h-235v322h-59v57h59v321h235zM505 239v219c0 118 -68 185 -177 185h-175v-264h163v-57h-163v-265h175c112 0 177 70 177 182z" />
    <glyph glyph-name="dcroat" unicode="&#x111;" horiz-adv-x="519" 
d="M508 625v-52h-72v-573h-44l-6 74c-23 -53 -71 -84 -139 -84h-22c-107 0 -173 72 -173 181v141c0 114 68 186 175 186h20c62 0 107 -26 132 -70v145h-154v52h154v75h57v-75h72zM254 44c80 0 125 54 125 142v116c0 90 -47 142 -125 142h-27c-75 0 -117 -51 -117 -132v-141
c0 -79 43 -127 117 -127h27z" />
    <glyph glyph-name="Emacron" unicode="&#x112;" horiz-adv-x="543" 
d="M432 867v-49h-248v49h248zM517 643h-364v-259h315v-57h-315v-270h364v-57h-424v700h424v-57z" />
    <glyph glyph-name="emacron" unicode="&#x113;" horiz-adv-x="475" 
d="M362 655v-49h-248v49h248zM110 212v-61c0 -68 43 -107 117 -107h32c66 0 105 34 105 91h57c0 -88 -64 -145 -162 -145h-32c-108 0 -175 63 -175 161v161c0 113 67 186 175 186h23c107 0 174 -72 174 -186v-100h-314zM227 444c-76 0 -117 -51 -117 -132v-47h257v47
c0 84 -44 132 -117 132h-23z" />
    <glyph glyph-name="Ebreve" unicode="&#x114;" horiz-adv-x="543" 
d="M308 784c-76 0 -130 46 -130 115h44c0 -40 37 -67 86 -67s86 27 86 67h43c0 -68 -52 -115 -129 -115zM517 643h-364v-259h315v-57h-315v-270h364v-57h-424v700h424v-57z" />
    <glyph glyph-name="ebreve" unicode="&#x115;" horiz-adv-x="475" 
d="M238 572c-76 0 -130 46 -130 115h44c0 -40 37 -67 86 -67s86 27 86 67h43c0 -68 -52 -115 -129 -115zM110 212v-61c0 -68 43 -107 117 -107h32c66 0 105 34 105 91h57c0 -88 -64 -145 -162 -145h-32c-108 0 -175 63 -175 161v161c0 113 67 186 175 186h23
c107 0 174 -72 174 -186v-100h-314zM227 444c-76 0 -117 -51 -117 -132v-47h257v47c0 84 -44 132 -117 132h-23z" />
    <glyph glyph-name="Edotaccent" unicode="&#x116;" horiz-adv-x="543" 
d="M340 882v-83h-64v83h64zM517 643h-364v-259h315v-57h-315v-270h364v-57h-424v700h424v-57z" />
    <glyph glyph-name="edotaccent" unicode="&#x117;" horiz-adv-x="475" 
d="M270 670v-83h-64v83h64zM110 212v-61c0 -68 43 -107 117 -107h32c66 0 105 34 105 91h57c0 -88 -64 -145 -162 -145h-32c-108 0 -175 63 -175 161v161c0 113 67 186 175 186h23c107 0 174 -72 174 -186v-100h-314zM227 444c-76 0 -117 -51 -117 -132v-47h257v47
c0 84 -44 132 -117 132h-23z" />
    <glyph glyph-name="Eogonek" unicode="&#x118;" horiz-adv-x="543" 
d="M517 643h-364v-259h315v-57h-315v-270h364v-57h-19c-54 -37 -80 -67 -80 -98c0 -27 19 -43 56 -43c13 0 25 1 36 3v-45c-16 -3 -28 -4 -41 -4c-72 0 -106 36 -106 83c0 39 27 72 70 104h-340v700h424v-57z" />
    <glyph glyph-name="eogonek" unicode="&#x119;" horiz-adv-x="475" 
d="M110 212v-61c0 -68 43 -107 117 -107h32c66 0 105 34 105 91h57c0 -59 -29 -104 -77 -127c-38 -35 -56 -65 -56 -96c0 -34 20 -53 57 -53c12 0 24 1 36 3v-45c-16 -3 -28 -4 -41 -4c-72 0 -106 36 -106 90c0 32 12 60 33 87h-40c-108 0 -175 63 -175 161v161
c0 113 67 186 175 186h23c107 0 174 -72 174 -186v-100h-314zM227 444c-76 0 -117 -51 -117 -132v-47h257v47c0 84 -44 132 -117 132h-23z" />
    <glyph glyph-name="Ecaron" unicode="&#x11a;" horiz-adv-x="543" 
d="M283 772l-109 142h54l80 -93l79 93h54l-109 -142h-49zM517 643h-364v-259h315v-57h-315v-270h364v-57h-424v700h424v-57z" />
    <glyph glyph-name="ecaron" unicode="&#x11b;" horiz-adv-x="475" 
d="M213 560l-109 142h54l80 -93l79 93h54l-109 -142h-49zM110 212v-61c0 -68 43 -107 117 -107h32c66 0 105 34 105 91h57c0 -88 -64 -145 -162 -145h-32c-108 0 -175 63 -175 161v161c0 113 67 186 175 186h23c107 0 174 -72 174 -186v-100h-314zM227 444
c-76 0 -117 -51 -117 -132v-47h257v47c0 84 -44 132 -117 132h-23z" />
    <glyph glyph-name="Gcircumflex" unicode="&#x11c;" horiz-adv-x="607" 
d="M304 865l-80 -93h-54l109 142h49l109 -142h-54zM326 363h232v-134c0 -152 -82 -239 -212 -239h-67c-144 0 -223 96 -223 241v233c0 156 96 246 239 246h56c116 0 195 -75 195 -181h-62c0 75 -51 123 -131 123h-59c-117 0 -177 -74 -177 -188v-233
c0 -124 68 -183 162 -183h67c102 0 151 71 151 181v78h-171v56z" />
    <glyph glyph-name="gcircumflex" unicode="&#x11d;" horiz-adv-x="505" 
d="M248 653l-80 -93h-54l109 142h49l109 -142h-54zM385 488h43v-513c0 -103 -66 -170 -175 -170h-29c-94 0 -162 53 -162 145h57c-1 -60 42 -91 105 -91h29c74 0 118 43 118 116v102c-25 -43 -68 -69 -129 -69h-17c-106 0 -173 72 -173 186v123c0 109 65 181 170 181h20
c67 0 113 -31 136 -83zM249 62c77 0 122 52 122 142v98c0 88 -44 142 -122 142h-24c-73 0 -115 -48 -115 -127v-123c0 -81 41 -132 115 -132h24z" />
    <glyph glyph-name="Gbreve" unicode="&#x11e;" horiz-adv-x="607" 
d="M304 784c-76 0 -130 46 -130 115h44c0 -40 37 -67 86 -67s86 27 86 67h43c0 -68 -52 -115 -129 -115zM326 363h232v-134c0 -152 -82 -239 -212 -239h-67c-144 0 -223 96 -223 241v233c0 156 96 246 239 246h56c116 0 195 -75 195 -181h-62c0 75 -51 123 -131 123h-59
c-117 0 -177 -74 -177 -188v-233c0 -124 68 -183 162 -183h67c102 0 151 71 151 181v78h-171v56z" />
    <glyph glyph-name="gbreve" unicode="&#x11f;" horiz-adv-x="505" 
d="M248 572c-76 0 -130 46 -130 115h44c0 -40 37 -67 86 -67s86 27 86 67h43c0 -68 -52 -115 -129 -115zM385 488h43v-513c0 -103 -66 -170 -175 -170h-29c-94 0 -162 53 -162 145h57c-1 -60 42 -91 105 -91h29c74 0 118 43 118 116v102c-25 -43 -68 -69 -129 -69h-17
c-106 0 -173 72 -173 186v123c0 109 65 181 170 181h20c67 0 113 -31 136 -83zM249 62c77 0 122 52 122 142v98c0 88 -44 142 -122 142h-24c-73 0 -115 -48 -115 -127v-123c0 -81 41 -132 115 -132h24z" />
    <glyph glyph-name="Gdotaccent" unicode="&#x120;" horiz-adv-x="607" 
d="M336 882v-83h-64v83h64zM326 363h232v-134c0 -152 -82 -239 -212 -239h-67c-144 0 -223 96 -223 241v233c0 156 96 246 239 246h56c116 0 195 -75 195 -181h-62c0 75 -51 123 -131 123h-59c-117 0 -177 -74 -177 -188v-233c0 -124 68 -183 162 -183h67
c102 0 151 71 151 181v78h-171v56z" />
    <glyph glyph-name="gdotaccent" unicode="&#x121;" horiz-adv-x="505" 
d="M279 670v-83h-64v83h64zM385 488h43v-513c0 -103 -66 -170 -175 -170h-29c-94 0 -162 53 -162 145h57c-1 -60 42 -91 105 -91h29c74 0 118 43 118 116v102c-25 -43 -68 -69 -129 -69h-17c-106 0 -173 72 -173 186v123c0 109 65 181 170 181h20c67 0 113 -31 136 -83z
M249 62c77 0 122 52 122 142v98c0 88 -44 142 -122 142h-24c-73 0 -115 -48 -115 -127v-123c0 -81 41 -132 115 -132h24z" />
    <glyph glyph-name="uni0122" unicode="&#x122;" horiz-adv-x="607" 
d="M326 363h232v-134c0 -152 -82 -239 -212 -239h-67c-144 0 -223 96 -223 241v233c0 156 96 246 239 246h56c116 0 195 -75 195 -181h-62c0 75 -51 123 -131 123h-59c-117 0 -177 -74 -177 -188v-233c0 -124 68 -183 162 -183h67c102 0 151 71 151 181v78h-171v56z
M241 -195l30 137h69l-46 -137h-53z" />
    <glyph glyph-name="uni0123" unicode="&#x123;" horiz-adv-x="505" 
d="M320 711l-46 -142h-53l31 142h68zM385 488h43v-513c0 -103 -66 -170 -175 -170h-29c-94 0 -162 53 -162 145h57c-1 -60 42 -91 105 -91h29c74 0 118 43 118 116v102c-25 -43 -68 -69 -129 -69h-17c-106 0 -173 72 -173 186v123c0 109 65 181 170 181h20
c67 0 113 -31 136 -83zM249 62c77 0 122 52 122 142v98c0 88 -44 142 -122 142h-24c-73 0 -115 -48 -115 -127v-123c0 -81 41 -132 115 -132h24z" />
    <glyph glyph-name="Hcircumflex" unicode="&#x124;" horiz-adv-x="682" 
d="M341 865l-80 -93h-54l109 142h49l109 -142h-54zM529 700h61v-700h-61v321h-376v-321h-60v700h60v-322h376v322z" />
    <glyph glyph-name="hcircumflex" unicode="&#x125;" horiz-adv-x="527" 
d="M190 772l-79 93l-80 -93h-54l109 142h49l109 -142h-54zM294 498c99 0 159 -61 159 -157v-341h-57v340c0 68 -39 104 -99 104h-35c-73 0 -122 -56 -122 -145v-299h-57v700h57v-272c25 44 72 70 132 70h22z" />
    <glyph glyph-name="Hbar" unicode="&#x126;" horiz-adv-x="682" 
d="M670 579v-57h-80v-522h-61v321h-376v-321h-60v522h-81v57h81v121h60v-121h376v121h61v-121h80zM529 378v144h-376v-144h376z" />
    <glyph glyph-name="hbar" unicode="&#x127;" horiz-adv-x="527" 
d="M294 498c99 0 159 -61 159 -157v-341h-57v340c0 68 -39 104 -99 104h-35c-73 0 -122 -56 -122 -145v-299h-57v578h-70v52h70v70h57v-70h156v-52h-156v-150c25 44 72 70 132 70h22z" />
    <glyph glyph-name="Itilde" unicode="&#x128;" horiz-adv-x="246" 
d="M181 788c-27 0 -47 15 -69 35c-19 19 -29 28 -45 28c-21 0 -35 -24 -35 -59h-43c0 60 35 103 80 103c28 0 50 -19 66 -36c17 -16 29 -27 46 -27c22 0 33 21 33 58h43c0 -59 -32 -102 -76 -102zM93 0v700h60v-700h-60z" />
    <glyph glyph-name="itilde" unicode="&#x129;" horiz-adv-x="222" 
d="M170 576c-27 0 -47 15 -69 35c-19 19 -29 28 -45 28c-21 0 -35 -24 -35 -59h-43c0 60 35 103 80 103c28 0 50 -19 66 -36c17 -16 29 -27 46 -27c22 0 33 21 33 58h43c0 -59 -32 -102 -76 -102zM140 488v-488h-57v488h57z" />
    <glyph glyph-name="Imacron" unicode="&#x12a;" horiz-adv-x="246" 
d="M-1 818v49h248v-49h-248zM93 0v700h60v-700h-60z" />
    <glyph glyph-name="imacron" unicode="&#x12b;" horiz-adv-x="222" 
d="M-12 606v49h248v-49h-248zM140 488v-488h-57v488h57z" />
    <glyph glyph-name="Iogonek" unicode="&#x12e;" horiz-adv-x="246" 
d="M141 -141c13 0 25 1 36 3v-45c-16 -3 -28 -4 -41 -4c-72 0 -106 36 -106 83c0 39 26 73 68 104h-5v700h60v-700h-4c-49 -36 -64 -66 -64 -98c0 -27 19 -43 56 -43z" />
    <glyph glyph-name="iogonek" unicode="&#x12f;" horiz-adv-x="222" 
d="M142 674v-85h-62v85h62zM130 -141c12 0 24 1 35 3v-45c-15 -3 -27 -4 -40 -4c-72 0 -106 36 -106 83c0 39 26 73 68 104h-4v488h57v-488h-3c-49 -36 -64 -66 -64 -98c0 -27 20 -43 57 -43z" />
    <glyph glyph-name="Idotaccent" unicode="&#x130;" horiz-adv-x="246" 
d="M91 799v83h64v-83h-64zM93 0v700h60v-700h-60z" />
    <glyph glyph-name="dotlessi" unicode="&#x131;" horiz-adv-x="222" 
d="M140 488v-488h-57v488h57z" />
    <glyph glyph-name="IJ" unicode="&#x132;" horiz-adv-x="667" 
d="M93 0v700h60v-700h-60zM259 0v58h120c89 0 135 68 135 173v469h61v-469c0 -146 -79 -231 -196 -231h-120z" />
    <glyph glyph-name="ij" unicode="&#x133;" horiz-adv-x="444" 
d="M80 589v85h62v-85h-62zM302 589v85h62v-85h-62zM83 0v488h57v-488h-57zM207 -195v54h24c60 0 74 36 74 96v533h57v-533c0 -120 -49 -150 -131 -150h-24z" />
    <glyph glyph-name="Jcircumflex" unicode="&#x134;" horiz-adv-x="421" 
d="M324 914l109 -142h-54l-79 93l-80 -93h-54l109 142h49zM268 231v469h61v-469c0 -146 -79 -231 -196 -231h-120v58h120c89 0 135 68 135 173z" />
    <glyph glyph-name="jcircumflex" unicode="&#x135;" horiz-adv-x="222" 
d="M136 702l109 -142h-54l-79 93l-80 -93h-54l109 142h49zM83 -45v533h57v-533c0 -120 -49 -150 -131 -150h-24v54h24c60 0 74 36 74 96z" />
    <glyph glyph-name="uni0136" unicode="&#x136;" horiz-adv-x="602" 
d="M336 428l253 -428h-69l-224 382l-143 -166v-216h-60v700h60v-400l346 400h72zM235 -195l30 137h69l-46 -137h-53z" />
    <glyph glyph-name="uni0137" unicode="&#x137;" horiz-adv-x="478" 
d="M277 302l194 -302h-67l-165 259l-99 -113v-146h-57v700h57v-476l230 264h70zM176 -195l30 137h69l-46 -137h-53z" />
    <glyph glyph-name="Lacute" unicode="&#x139;" horiz-adv-x="523" 
d="M250 914l-102 -142h-55l88 142h69zM153 57h345v-57h-405v700h60v-643z" />
    <glyph glyph-name="lacute" unicode="&#x13a;" horiz-adv-x="231" 
d="M75 772l88 142h69l-102 -142h-55zM188 -10c-88 0 -111 52 -111 129v581h57v-581c0 -59 24 -75 60 -75h20v-54h-26z" />
    <glyph glyph-name="uni013B" unicode="&#x13b;" horiz-adv-x="523" 
d="M153 57h345v-57h-405v700h60v-643zM221 -195l30 137h69l-46 -137h-53z" />
    <glyph glyph-name="uni013C" unicode="&#x13c;" horiz-adv-x="231" 
d="M188 -10c-88 0 -111 52 -111 129v581h57v-581c0 -59 24 -75 60 -75h20v-54h-26zM73 -195l30 137h69l-46 -137h-53z" />
    <glyph glyph-name="Lcaron" unicode="&#x13d;" horiz-adv-x="523" 
d="M153 57h345v-57h-405v700h60v-643zM412 700l-46 -164h-54l31 164h69z" />
    <glyph glyph-name="lcaron" unicode="&#x13e;" horiz-adv-x="231" 
d="M188 -10c-88 0 -111 52 -111 129v581h57v-581c0 -59 24 -75 60 -75h20v-54h-26zM189 536l31 164h68l-46 -164h-53z" />
    <glyph glyph-name="Ldot" unicode="&#x13f;" horiz-adv-x="523" 
d="M153 57h345v-57h-405v700h60v-643zM401 397v-98h-74v98h74z" />
    <glyph glyph-name="ldot" unicode="&#x140;" horiz-adv-x="255" 
d="M188 -10c-88 0 -111 52 -111 129v581h57v-581c0 -59 24 -75 60 -75h20v-54h-26zM197 317v92h74v-92h-74z" />
    <glyph glyph-name="Lslash" unicode="&#x141;" horiz-adv-x="523" 
d="M153 57h345v-57h-405v310l-93 -47v58l93 47v332h60v-301l147 74v-58l-147 -74v-284z" />
    <glyph glyph-name="lslash" unicode="&#x142;" horiz-adv-x="231" 
d="M194 44h20v-54h-26c-88 0 -111 52 -111 129v210l-61 -31v59l61 31v312h57v-284l75 38v-59l-75 -38v-238c0 -59 24 -75 60 -75z" />
    <glyph glyph-name="Nacute" unicode="&#x143;" horiz-adv-x="675" 
d="M463 914l-102 -142h-55l88 142h69zM522 700h60v-700h-61l-194 308c-67 107 -122 198 -174 286v-594h-60v700h60v-2l194 -310c65 -104 121 -196 175 -288v600z" />
    <glyph glyph-name="nacute" unicode="&#x144;" horiz-adv-x="527" 
d="M401 702l-102 -142h-55l88 142h69zM294 498c99 0 159 -61 159 -157v-341h-57v340c0 69 -40 104 -99 104h-35c-75 0 -122 -54 -122 -133v-311h-57v488h44l6 -68c22 48 72 78 139 78h22z" />
    <glyph glyph-name="uni0145" unicode="&#x145;" horiz-adv-x="675" 
d="M522 700h60v-700h-61l-194 308c-67 107 -122 198 -174 286v-594h-60v700h60v-2l194 -310c65 -104 121 -196 175 -288v600zM274 -195l30 137h69l-46 -137h-53z" />
    <glyph glyph-name="uni0146" unicode="&#x146;" horiz-adv-x="527" 
d="M294 498c99 0 159 -61 159 -157v-341h-57v340c0 69 -40 104 -99 104h-35c-75 0 -122 -54 -122 -133v-311h-57v488h44l6 -68c22 48 72 78 139 78h22zM208 -195l30 137h69l-46 -137h-53z" />
    <glyph glyph-name="Ncaron" unicode="&#x147;" horiz-adv-x="675" 
d="M312 772l-109 142h54l80 -93l79 93h54l-109 -142h-49zM522 700h60v-700h-61l-194 308c-67 107 -122 198 -174 286v-594h-60v700h60v-2l194 -310c65 -104 121 -196 175 -288v600z" />
    <glyph glyph-name="ncaron" unicode="&#x148;" horiz-adv-x="527" 
d="M250 560l-109 142h54l80 -93l79 93h54l-109 -142h-49zM294 498c99 0 159 -61 159 -157v-341h-57v340c0 69 -40 104 -99 104h-35c-75 0 -122 -54 -122 -133v-311h-57v488h44l6 -68c22 48 72 78 139 78h22z" />
    <glyph glyph-name="Eng" unicode="&#x14a;" horiz-adv-x="675" 
d="M522 700h60v-654c0 -146 -78 -231 -196 -231h-104v58h104c76 0 122 50 133 130l-192 305c-67 107 -122 198 -174 286v-594h-60v700h60v-2l194 -310c65 -104 121 -197 175 -288v600z" />
    <glyph glyph-name="eng" unicode="&#x14b;" horiz-adv-x="527" 
d="M294 498c99 0 159 -61 159 -157v-376c0 -120 -49 -150 -131 -150h-24v54h24c60 0 74 36 74 96v375c0 68 -39 104 -99 104h-35c-73 0 -122 -52 -122 -133v-311h-57v488h44l6 -68c22 48 72 78 139 78h22z" />
    <glyph glyph-name="Omacron" unicode="&#x14c;" horiz-adv-x="631" 
d="M192 818v49h248v-49h-248zM295 -10c-153 0 -239 101 -239 239v239c0 141 87 242 239 242h41c152 0 239 -102 239 -242v-239c0 -139 -87 -239 -239 -239h-41zM294 48h42c113 0 177 69 177 181v239c0 117 -68 184 -177 184h-42c-112 0 -177 -70 -177 -184v-239
c0 -115 68 -181 177 -181z" />
    <glyph glyph-name="omacron" unicode="&#x14d;" horiz-adv-x="504" 
d="M128 606v49h248v-49h-248zM264 498c115 0 187 -72 187 -186v-141c0 -109 -71 -181 -187 -181h-24c-116 0 -188 72 -188 181v141c0 113 72 186 188 186h24zM264 444h-24c-84 0 -130 -51 -130 -132v-141c0 -82 51 -127 130 -127h24c85 0 130 50 130 127v141
c0 84 -49 132 -130 132z" />
    <glyph glyph-name="Obreve" unicode="&#x14e;" horiz-adv-x="631" 
d="M316 784c-76 0 -130 46 -130 115h44c0 -40 37 -67 86 -67s86 27 86 67h43c0 -68 -52 -115 -129 -115zM295 -10c-153 0 -239 101 -239 239v239c0 141 87 242 239 242h41c152 0 239 -102 239 -242v-239c0 -139 -87 -239 -239 -239h-41zM294 48h42c113 0 177 69 177 181v239
c0 117 -68 184 -177 184h-42c-112 0 -177 -70 -177 -184v-239c0 -115 68 -181 177 -181z" />
    <glyph glyph-name="obreve" unicode="&#x14f;" horiz-adv-x="504" 
d="M252 572c-76 0 -130 46 -130 115h44c0 -40 37 -67 86 -67s86 27 86 67h43c0 -68 -52 -115 -129 -115zM264 498c115 0 187 -72 187 -186v-141c0 -109 -71 -181 -187 -181h-24c-116 0 -188 72 -188 181v141c0 113 72 186 188 186h24zM264 444h-24c-84 0 -130 -51 -130 -132
v-141c0 -82 51 -127 130 -127h24c85 0 130 50 130 127v141c0 84 -49 132 -130 132z" />
    <glyph glyph-name="Ohungarumlaut" unicode="&#x150;" horiz-adv-x="631" 
d="M225 772l79 142h63l-91 -142h-51zM358 772l79 142h63l-91 -142h-51zM295 -10c-153 0 -239 101 -239 239v239c0 141 87 242 239 242h41c152 0 239 -102 239 -242v-239c0 -139 -87 -239 -239 -239h-41zM294 48h42c113 0 177 69 177 181v239c0 117 -68 184 -177 184h-42
c-112 0 -177 -70 -177 -184v-239c0 -115 68 -181 177 -181z" />
    <glyph glyph-name="ohungarumlaut" unicode="&#x151;" horiz-adv-x="504" 
d="M161 560l79 142h63l-91 -142h-51zM294 560l79 142h63l-91 -142h-51zM264 498c115 0 187 -72 187 -186v-141c0 -109 -71 -181 -187 -181h-24c-116 0 -188 72 -188 181v141c0 113 72 186 188 186h24zM264 444h-24c-84 0 -130 -51 -130 -132v-141c0 -82 51 -127 130 -127h24
c85 0 130 50 130 127v141c0 84 -49 132 -130 132z" />
    <glyph glyph-name="OE" unicode="&#x152;" horiz-adv-x="964" 
d="M937 643h-362v-259h313v-57h-313v-270h362v-57h-423v71c-36 -50 -94 -81 -178 -81h-41c-153 0 -239 101 -239 239v239c0 141 87 242 239 242h41c84 0 142 -31 178 -82v72h423v-57zM513 229v239c0 117 -68 184 -177 184h-42c-112 0 -177 -70 -177 -184v-239
c0 -115 68 -181 177 -181h42c113 0 177 69 177 181z" />
    <glyph glyph-name="oe" unicode="&#x153;" horiz-adv-x="817" 
d="M451 212v-61c0 -68 44 -107 117 -107h32c67 0 106 34 106 91h57c0 -88 -65 -145 -163 -145h-32c-70 0 -121 26 -149 71c-31 -45 -85 -71 -155 -71h-24c-116 0 -188 72 -188 181v141c0 113 72 186 188 186h24c72 0 127 -28 158 -77c29 49 80 77 147 77h23
c106 0 174 -72 174 -186v-100h-315zM394 171v141c0 83 -49 132 -130 132h-24c-84 0 -130 -51 -130 -132v-141c0 -82 50 -127 130 -127h24c85 0 130 50 130 127zM569 444c-76 0 -118 -52 -118 -132v-47h257v47c0 84 -44 132 -116 132h-23z" />
    <glyph glyph-name="Racute" unicode="&#x154;" horiz-adv-x="583" 
d="M426 914l-102 -142h-55l88 142h69zM498 0l-160 312h-184v-312h-61v700h266c113 0 190 -77 190 -191v-9c0 -98 -58 -168 -148 -184l168 -316h-71zM154 643v-274h205c80 0 129 51 129 131v9c0 84 -51 134 -129 134h-205z" />
    <glyph glyph-name="racute" unicode="&#x155;" horiz-adv-x="313" 
d="M289 702l-102 -142h-55l88 142h69zM272 498h31v-54h-38c-77 0 -125 -59 -125 -147v-297h-57v488h44l6 -74c23 52 73 84 139 84z" />
    <glyph glyph-name="uni0156" unicode="&#x156;" horiz-adv-x="583" 
d="M401 316l168 -316h-71l-160 312h-184v-312h-61v700h266c113 0 190 -77 190 -191v-9c0 -98 -58 -168 -148 -184zM154 643v-274h205c80 0 129 51 129 131v9c0 84 -51 134 -129 134h-205zM246 -195l30 137h69l-46 -137h-53z" />
    <glyph glyph-name="uni0157" unicode="&#x157;" horiz-adv-x="313" 
d="M272 498h31v-54h-38c-77 0 -125 -59 -125 -147v-297h-57v488h44l6 -74c23 52 73 84 139 84zM53 -195l30 137h69l-46 -137h-53z" />
    <glyph glyph-name="Rcaron" unicode="&#x158;" horiz-adv-x="583" 
d="M275 772l-109 142h54l80 -93l79 93h54l-109 -142h-49zM498 0l-160 312h-184v-312h-61v700h266c113 0 190 -77 190 -191v-9c0 -98 -58 -168 -148 -184l168 -316h-71zM154 643v-274h205c80 0 129 51 129 131v9c0 84 -51 134 -129 134h-205z" />
    <glyph glyph-name="rcaron" unicode="&#x159;" horiz-adv-x="313" 
d="M138 560l-109 142h54l80 -93l79 93h54l-109 -142h-49zM272 498h31v-54h-38c-77 0 -125 -59 -125 -147v-297h-57v488h44l6 -74c23 52 73 84 139 84z" />
    <glyph glyph-name="Sacute" unicode="&#x15a;" horiz-adv-x="575" 
d="M254 772l88 142h69l-102 -142h-55zM262 -10c-145 0 -211 70 -211 177h61c0 -87 60 -120 149 -120h42c111 0 153 59 153 144c0 95 -67 115 -157 135c-150 33 -237 67 -237 197c0 126 80 187 202 187h33c136 0 202 -71 202 -178h-61c0 88 -58 121 -141 121h-33
c-104 0 -141 -55 -141 -128c0 -100 81 -118 190 -142c152 -33 204 -85 204 -191c0 -140 -86 -202 -214 -202h-41z" />
    <glyph glyph-name="sacute" unicode="&#x15b;" horiz-adv-x="460" 
d="M194 560l88 142h69l-102 -142h-55zM207 -10c-98 0 -163 44 -163 146h57c0 -70 42 -92 106 -92h28c63 0 123 18 123 91c0 67 -50 81 -124 90c-121 15 -183 39 -183 135c0 93 66 138 168 138h16c98 0 164 -44 164 -146h-58c0 70 -42 92 -106 92h-17
c-58 0 -111 -16 -111 -83c0 -59 43 -69 135 -81c109 -13 173 -43 173 -143c0 -103 -71 -147 -181 -147h-27z" />
    <glyph glyph-name="Scircumflex" unicode="&#x15c;" horiz-adv-x="575" 
d="M285 865l-80 -93h-54l109 142h49l109 -142h-54zM313 383c152 -33 204 -85 204 -191c0 -140 -86 -202 -214 -202h-41c-145 0 -211 70 -211 177h61c0 -87 60 -120 149 -120h42c111 0 153 59 153 144c0 95 -67 115 -157 135c-150 33 -237 67 -237 197c0 126 80 187 202 187
h33c136 0 202 -71 202 -178h-61c0 88 -58 121 -141 121h-33c-104 0 -141 -55 -141 -128c0 -100 81 -118 190 -142z" />
    <glyph glyph-name="scircumflex" unicode="&#x15d;" horiz-adv-x="460" 
d="M225 653l-80 -93h-54l109 142h49l109 -142h-54zM242 280c109 -13 173 -43 173 -143c0 -103 -71 -147 -181 -147h-27c-98 0 -163 44 -163 146h57c0 -70 42 -92 106 -92h28c63 0 123 18 123 91c0 67 -50 81 -124 90c-121 15 -183 39 -183 135c0 93 66 138 168 138h16
c98 0 164 -44 164 -146h-58c0 70 -42 92 -106 92h-17c-58 0 -111 -16 -111 -83c0 -59 43 -69 135 -81z" />
    <glyph glyph-name="Scedilla" unicode="&#x15e;" horiz-adv-x="575" 
d="M517 192c0 -139 -84 -201 -210 -202l-20 -32c45 -7 71 -31 71 -71c0 -49 -39 -82 -91 -82c-54 0 -89 31 -89 79h45c0 -26 14 -40 44 -40c29 0 46 17 46 43c0 25 -16 37 -49 37h-36l30 66c-142 1 -207 71 -207 177h61c0 -87 60 -120 149 -120h42c111 0 153 59 153 144
c0 95 -67 115 -157 135c-150 33 -237 67 -237 197c0 126 80 187 202 187h33c136 0 202 -71 202 -178h-61c0 88 -58 121 -141 121h-33c-104 0 -141 -55 -141 -128c0 -100 81 -118 190 -142c152 -33 204 -85 204 -191z" />
    <glyph glyph-name="scedilla" unicode="&#x15f;" horiz-adv-x="460" 
d="M415 137c0 -99 -66 -143 -168 -147l-20 -32c45 -7 71 -31 71 -71c0 -49 -39 -82 -91 -82c-54 0 -89 31 -89 79h45c0 -26 14 -40 44 -40c29 0 46 17 46 43c0 25 -16 37 -49 37h-36l30 66c-93 3 -154 47 -154 146h57c0 -70 42 -92 106 -92h28c63 0 123 18 123 91
c0 67 -50 81 -124 90c-121 15 -183 39 -183 135c0 93 66 138 168 138h16c98 0 164 -44 164 -146h-58c0 70 -42 92 -106 92h-17c-58 0 -111 -16 -111 -83c0 -59 43 -69 135 -81c109 -13 173 -43 173 -143z" />
    <glyph glyph-name="Scaron" unicode="&#x160;" horiz-adv-x="575" 
d="M260 772l-109 142h54l80 -93l79 93h54l-109 -142h-49zM313 383c152 -33 204 -85 204 -191c0 -140 -86 -202 -214 -202h-41c-145 0 -211 70 -211 177h61c0 -87 60 -120 149 -120h42c111 0 153 59 153 144c0 95 -67 115 -157 135c-150 33 -237 67 -237 197
c0 126 80 187 202 187h33c136 0 202 -71 202 -178h-61c0 88 -58 121 -141 121h-33c-104 0 -141 -55 -141 -128c0 -100 81 -118 190 -142z" />
    <glyph glyph-name="scaron" unicode="&#x161;" horiz-adv-x="460" 
d="M200 560l-109 142h54l80 -93l79 93h54l-109 -142h-49zM242 280c109 -13 173 -43 173 -143c0 -103 -71 -147 -181 -147h-27c-98 0 -163 44 -163 146h57c0 -70 42 -92 106 -92h28c63 0 123 18 123 91c0 67 -50 81 -124 90c-121 15 -183 39 -183 135c0 93 66 138 168 138h16
c98 0 164 -44 164 -146h-58c0 70 -42 92 -106 92h-17c-58 0 -111 -16 -111 -83c0 -59 43 -69 135 -81z" />
    <glyph glyph-name="uni0162" unicode="&#x162;" horiz-adv-x="512" 
d="M286 0h-8l-23 -42c45 -6 72 -31 72 -71c0 -49 -40 -82 -92 -82c-53 0 -89 31 -89 79h45c0 -26 14 -40 44 -40c29 0 47 17 47 43c0 25 -16 37 -49 37h-36l36 76h-8v643h-212v57h486v-57h-213v-643z" />
    <glyph glyph-name="uni0163" unicode="&#x163;" horiz-adv-x="298" 
d="M239 -10c-7 0 -14 0 -21 1l-20 -33c45 -7 71 -31 71 -71c0 -49 -39 -82 -91 -82c-54 0 -89 31 -89 79h45c0 -26 14 -40 44 -40c29 0 46 17 46 43c0 25 -16 37 -49 37h-36l33 73c-64 17 -82 64 -82 144v295h-66v52h66v154h57v-154h117v-52h-117v-295c0 -78 33 -97 92 -97
h42v-54h-42z" />
    <glyph glyph-name="Tcaron" unicode="&#x164;" horiz-adv-x="512" 
d="M231 772l-109 142h54l80 -93l79 93h54l-109 -142h-49zM499 700v-57h-213v-643h-61v643h-212v57h486z" />
    <glyph glyph-name="tcaron" unicode="&#x165;" horiz-adv-x="298" 
d="M314 700l-46 -164h-54l31 164h69zM147 141c0 -78 33 -97 92 -97h42v-54h-42c-119 0 -149 48 -149 151v295h-66v52h66v154h57v-154h117v-52h-117v-295z" />
    <glyph glyph-name="Tbar" unicode="&#x166;" horiz-adv-x="512" 
d="M499 643h-213v-262h111v-57h-111v-324h-61v324h-110v57h110v262h-212v57h486v-57z" />
    <glyph glyph-name="tbar" unicode="&#x167;" horiz-adv-x="298" 
d="M239 44h42v-54h-42c-119 0 -149 48 -149 151v108h-66v52h66v135h-66v52h66v154h57v-154h117v-52h-117v-135h117v-52h-117v-108c0 -78 33 -97 92 -97z" />
    <glyph glyph-name="Utilde" unicode="&#x168;" horiz-adv-x="658" 
d="M387 788c-27 0 -47 15 -69 35c-19 19 -29 28 -45 28c-21 0 -35 -24 -35 -59h-43c0 60 35 103 80 103c28 0 50 -19 66 -36c17 -16 29 -27 46 -27c22 0 33 21 33 58h43c0 -59 -32 -102 -76 -102zM316 -10c-148 0 -232 101 -232 239v471h61v-471c0 -116 66 -181 171 -181h26
c108 0 171 69 171 181v471h61v-471c0 -139 -85 -239 -232 -239h-26z" />
    <glyph glyph-name="utilde" unicode="&#x169;" horiz-adv-x="522" 
d="M199 639c-21 0 -35 -24 -35 -59h-43c0 60 35 103 80 103c28 0 50 -19 66 -36c17 -16 29 -27 46 -27c22 0 33 21 33 58h43c0 -59 -32 -102 -76 -102c-27 0 -47 15 -69 35c-19 19 -29 28 -45 28zM384 488h57v-488h-43l-6 69c-22 -49 -72 -79 -140 -79h-22
c-99 0 -159 61 -159 157v341h57v-340c0 -69 40 -104 100 -104h34c75 0 122 54 122 133v311z" />
    <glyph glyph-name="Umacron" unicode="&#x16a;" horiz-adv-x="658" 
d="M205 818v49h248v-49h-248zM316 -10c-148 0 -232 101 -232 239v471h61v-471c0 -116 66 -181 171 -181h26c108 0 171 69 171 181v471h61v-471c0 -139 -85 -239 -232 -239h-26z" />
    <glyph glyph-name="umacron" unicode="&#x16b;" horiz-adv-x="522" 
d="M379 655v-49h-248v49h248zM384 488h57v-488h-43l-6 69c-22 -49 -72 -79 -140 -79h-22c-99 0 -159 61 -159 157v341h57v-340c0 -69 40 -104 100 -104h34c75 0 122 54 122 133v311z" />
    <glyph glyph-name="Ubreve" unicode="&#x16c;" horiz-adv-x="658" 
d="M329 784c-76 0 -130 46 -130 115h44c0 -40 37 -67 86 -67s86 27 86 67h43c0 -68 -52 -115 -129 -115zM316 -10c-148 0 -232 101 -232 239v471h61v-471c0 -116 66 -181 171 -181h26c108 0 171 69 171 181v471h61v-471c0 -139 -85 -239 -232 -239h-26z" />
    <glyph glyph-name="ubreve" unicode="&#x16d;" horiz-adv-x="522" 
d="M255 572c-76 0 -130 46 -130 115h44c0 -40 37 -67 86 -67s86 27 86 67h43c0 -68 -52 -115 -129 -115zM384 488h57v-488h-43l-6 69c-22 -49 -72 -79 -140 -79h-22c-99 0 -159 61 -159 157v341h57v-340c0 -69 40 -104 100 -104h34c75 0 122 54 122 133v311z" />
    <glyph glyph-name="Uring" unicode="&#x16e;" horiz-adv-x="658" 
d="M329 756c-55 0 -95 36 -95 91s40 92 95 92c54 0 93 -37 93 -92s-39 -91 -93 -91zM329 790c33 0 57 23 57 57s-24 57 -57 57c-34 0 -58 -23 -58 -57s24 -57 58 -57zM316 -10c-148 0 -232 101 -232 239v471h61v-471c0 -116 66 -181 171 -181h26c108 0 171 69 171 181v471
h61v-471c0 -139 -85 -239 -232 -239h-26z" />
    <glyph glyph-name="uring" unicode="&#x16f;" horiz-adv-x="522" 
d="M255 544c-55 0 -95 36 -95 91s40 92 95 92c54 0 93 -37 93 -92s-39 -91 -93 -91zM255 692c-34 0 -58 -23 -58 -57s24 -57 58 -57c33 0 57 23 57 57s-24 57 -57 57zM384 488h57v-488h-43l-6 69c-22 -49 -72 -79 -140 -79h-22c-99 0 -159 61 -159 157v341h57v-340
c0 -69 40 -104 100 -104h34c75 0 122 54 122 133v311z" />
    <glyph glyph-name="Uhungarumlaut" unicode="&#x170;" horiz-adv-x="658" 
d="M238 772l79 142h63l-91 -142h-51zM371 772l79 142h63l-91 -142h-51zM316 -10c-148 0 -232 101 -232 239v471h61v-471c0 -116 66 -181 171 -181h26c108 0 171 69 171 181v471h61v-471c0 -139 -85 -239 -232 -239h-26z" />
    <glyph glyph-name="uhungarumlaut" unicode="&#x171;" horiz-adv-x="522" 
d="M306 702l-91 -142h-51l79 142h63zM348 560h-51l79 142h63zM384 488h57v-488h-43l-6 69c-22 -49 -72 -79 -140 -79h-22c-99 0 -159 61 -159 157v341h57v-340c0 -69 40 -104 100 -104h34c75 0 122 54 122 133v311z" />
    <glyph glyph-name="Uogonek" unicode="&#x172;" horiz-adv-x="658" 
d="M513 700h61v-471c0 -132 -76 -228 -209 -238c-46 -33 -68 -60 -68 -89c0 -27 20 -43 57 -43c12 0 24 1 35 3v-45c-15 -3 -27 -4 -40 -4c-72 0 -106 36 -106 83c0 35 22 65 57 94c-138 8 -216 106 -216 239v471h61v-471c0 -116 66 -181 171 -181h26c108 0 171 69 171 181
v471z" />
    <glyph glyph-name="uogonek" unicode="&#x173;" horiz-adv-x="522" 
d="M426 -141c12 0 24 1 36 3v-45c-16 -3 -28 -4 -41 -4c-72 0 -106 35 -106 82c0 41 29 75 82 112l-5 62c-22 -49 -72 -79 -140 -79h-22c-99 0 -159 61 -159 157v341h57v-340c0 -69 40 -104 100 -104h34c75 0 122 54 122 133v311h57v-488c-53 -37 -72 -66 -72 -98
c0 -27 20 -43 57 -43z" />
    <glyph glyph-name="Wcircumflex" unicode="&#x174;" horiz-adv-x="797" 
d="M399 865l-80 -93h-54l109 142h49l109 -142h-54zM719 700h66l-172 -700h-53l-86 310c-26 93 -51 198 -75 297c-22 -98 -48 -202 -73 -294l-88 -313h-51l-175 700h66l75 -320c21 -88 42 -188 61 -280c21 91 46 188 70 276l88 324h54l90 -329c24 -86 47 -180 69 -269
c18 88 38 182 58 268z" />
    <glyph glyph-name="wcircumflex" unicode="&#x175;" horiz-adv-x="705" 
d="M354 653l-80 -93h-54l109 142h49l109 -142h-54zM634 488h62l-158 -488h-52l-77 231l-56 180c-18 -62 -37 -123 -56 -181l-76 -230h-54l-158 488h62l65 -215c20 -66 39 -135 59 -207c21 71 42 144 64 210l69 212h51l66 -205c23 -68 45 -143 65 -214c20 70 40 143 60 210z
" />
    <glyph glyph-name="Ycircumflex" unicode="&#x176;" horiz-adv-x="510" 
d="M256 865l-80 -93h-54l109 142h49l109 -142h-54zM498 700l-211 -391v-309h-61v306l-214 394h71l121 -232c18 -34 34 -69 51 -106c17 36 33 70 52 105l122 233h69z" />
    <glyph glyph-name="ycircumflex" unicode="&#x177;" horiz-adv-x="434" 
d="M220 653l-80 -93h-54l109 142h49l109 -142h-54zM363 488h63l-216 -587c-26 -70 -69 -95 -131 -95h-28v54h31c42 0 66 22 79 60l30 85l-183 483h63l91 -245c21 -56 40 -109 59 -166c18 57 37 112 56 165z" />
    <glyph glyph-name="Ydieresis" unicode="&#x178;" horiz-adv-x="510" 
d="M189 882v-83h-65v83h65zM388 882v-83h-65v83h65zM498 700l-211 -391v-309h-61v306l-214 394h71l121 -232c18 -34 34 -69 51 -106c17 36 33 70 52 105l122 233h69z" />
    <glyph glyph-name="Zacute" unicode="&#x179;" horiz-adv-x="523" 
d="M399 914l-102 -142h-55l88 142h69zM109 57h374v-57h-443v57l365 586h-336v57h404v-57z" />
    <glyph glyph-name="zacute" unicode="&#x17a;" horiz-adv-x="425" 
d="M339 702l-102 -142h-55l88 142h69zM102 53h292v-53h-364v53l287 382h-273v53h342v-53z" />
    <glyph glyph-name="Zdotaccent" unicode="&#x17b;" horiz-adv-x="523" 
d="M305 882v-83h-64v83h64zM109 57h374v-57h-443v57l365 586h-336v57h404v-57z" />
    <glyph glyph-name="zdotaccent" unicode="&#x17c;" horiz-adv-x="425" 
d="M245 670v-83h-64v83h64zM102 53h292v-53h-364v53l287 382h-273v53h342v-53z" />
    <glyph glyph-name="Zcaron" unicode="&#x17d;" horiz-adv-x="523" 
d="M248 772l-109 142h54l80 -93l79 93h54l-109 -142h-49zM109 57h374v-57h-443v57l365 586h-336v57h404v-57z" />
    <glyph glyph-name="zcaron" unicode="&#x17e;" horiz-adv-x="425" 
d="M188 560l-109 142h54l80 -93l79 93h54l-109 -142h-49zM102 53h292v-53h-364v53l287 382h-273v53h342v-53z" />
    <glyph glyph-name="florin" unicode="&#x192;" horiz-adv-x="303" 
d="M244 654c-72 0 -90 -27 -90 -103v-159h117v-53h-117v-374c0 -110 -43 -145 -122 -145v55c53 0 64 31 64 90v374h-64v53h64v159c0 131 54 159 148 159h31v-56h-31z" />
    <glyph glyph-name="Ohorn" unicode="&#x1a0;" horiz-adv-x="631" 
d="M579 786c0 -89 -30 -122 -82 -130c51 -43 78 -110 78 -188v-239c0 -139 -87 -239 -239 -239h-41c-153 0 -239 101 -239 239v239c0 141 87 242 239 242h41c28 0 54 -3 77 -10h53c53 0 65 32 65 86v45h48v-45zM513 468c0 117 -68 184 -177 184h-42
c-112 0 -177 -70 -177 -184v-239c0 -115 68 -181 177 -181h42c113 0 177 69 177 181v239z" />
    <glyph glyph-name="ohorn" unicode="&#x1a1;" horiz-adv-x="504" 
d="M436 619h48v-45c0 -88 -29 -121 -80 -130c30 -32 47 -77 47 -132v-141c0 -109 -71 -181 -187 -181h-24c-116 0 -188 72 -188 181v141c0 113 72 186 188 186h24c25 0 48 -3 69 -10h38c53 0 65 32 65 86v45zM394 171v141c0 84 -49 132 -130 132h-24
c-84 0 -130 -51 -130 -132v-141c0 -82 51 -127 130 -127h24c85 0 130 50 130 127z" />
    <glyph glyph-name="Uhorn" unicode="&#x1af;" horiz-adv-x="658" 
d="M655 831h48v-45c0 -106 -42 -132 -113 -132h-16v-425c0 -139 -85 -239 -232 -239h-26c-148 0 -232 101 -232 239v471h61v-471c0 -116 66 -181 171 -181h26c108 0 171 69 171 181v471h77c53 0 65 32 65 86v45z" />
    <glyph glyph-name="uhorn" unicode="&#x1b0;" horiz-adv-x="522" 
d="M504 619h48v-45c0 -105 -41 -132 -111 -132v-442h-43l-6 69c-22 -49 -72 -79 -140 -79h-22c-99 0 -159 61 -159 157v341h57v-340c0 -69 40 -104 100 -104h34c75 0 122 54 122 133v311h55c53 0 65 32 65 86v45z" />
    <glyph glyph-name="uni01D5" unicode="&#x1d5;" horiz-adv-x="658" 
d="M205 957v48h248v-48h-248zM197 799v83h65v-83h-65zM396 799v83h65v-83h-65zM316 -10c-148 0 -232 101 -232 239v471h61v-471c0 -116 66 -181 171 -181h26c108 0 171 69 171 181v471h61v-471c0 -139 -85 -239 -232 -239h-26z" />
    <glyph glyph-name="uni01D6" unicode="&#x1d6;" horiz-adv-x="522" 
d="M379 793v-48h-248v48h248zM188 670v-83h-65v83h65zM322 587v83h65v-83h-65zM384 488h57v-488h-43l-6 69c-22 -49 -72 -79 -140 -79h-22c-99 0 -159 61 -159 157v341h57v-340c0 -69 40 -104 100 -104h34c75 0 122 54 122 133v311z" />
    <glyph glyph-name="uni01D7" unicode="&#x1d7;" horiz-adv-x="658" 
d="M298 911l88 141h69l-102 -141h-55zM197 799v83h65v-83h-65zM396 799v83h65v-83h-65zM316 -10c-148 0 -232 101 -232 239v471h61v-471c0 -116 66 -181 171 -181h26c108 0 171 69 171 181v471h61v-471c0 -139 -85 -239 -232 -239h-26z" />
    <glyph glyph-name="uni01D8" unicode="&#x1d8;" horiz-adv-x="522" 
d="M381 840l-102 -141h-55l88 141h69zM188 670v-83h-65v83h65zM322 587v83h65v-83h-65zM384 488h57v-488h-43l-6 69c-22 -49 -72 -79 -140 -79h-22c-99 0 -159 61 -159 157v341h57v-340c0 -69 40 -104 100 -104h34c75 0 122 54 122 133v311z" />
    <glyph glyph-name="uni01D9" unicode="&#x1d9;" horiz-adv-x="658" 
d="M304 911l-109 141h54l80 -92l79 92h54l-109 -141h-49zM262 799h-65v83h65v-83zM461 799h-65v83h65v-83zM513 700h61v-471c0 -139 -85 -239 -232 -239h-26c-148 0 -232 101 -232 239v471h61v-471c0 -116 66 -181 171 -181h26c108 0 171 69 171 181v471z" />
    <glyph glyph-name="uni01DA" unicode="&#x1da;" horiz-adv-x="522" 
d="M230 699l-109 141h54l80 -92l79 92h54l-109 -141h-49zM188 587h-65v83h65v-83zM387 587h-65v83h65v-83zM384 488h57v-488h-43l-6 69c-22 -49 -72 -79 -140 -79h-22c-99 0 -159 61 -159 157v341h57v-340c0 -69 40 -104 100 -104h34c75 0 122 54 122 133v311z" />
    <glyph glyph-name="uni01DB" unicode="&#x1db;" horiz-adv-x="658" 
d="M304 911l-102 141h69l88 -141h-55zM197 799v83h65v-83h-65zM396 799v83h65v-83h-65zM316 -10c-148 0 -232 101 -232 239v471h61v-471c0 -116 66 -181 171 -181h26c108 0 171 69 171 181v471h61v-471c0 -139 -85 -239 -232 -239h-26z" />
    <glyph glyph-name="uni01DC" unicode="&#x1dc;" horiz-adv-x="522" 
d="M285 699h-55l-102 141h69zM188 670v-83h-65v83h65zM387 670v-83h-65v83h65zM384 488h57v-488h-43l-6 69c-22 -49 -72 -79 -140 -79h-22c-99 0 -159 61 -159 157v341h57v-340c0 -69 40 -104 100 -104h34c75 0 122 54 122 133v311z" />
    <glyph glyph-name="uni0218" unicode="&#x218;" horiz-adv-x="575" 
d="M262 -10c-145 0 -211 70 -211 177h61c0 -87 60 -120 149 -120h42c111 0 153 59 153 144c0 95 -67 115 -157 135c-150 33 -237 67 -237 197c0 126 80 187 202 187h33c136 0 202 -71 202 -178h-61c0 88 -58 121 -141 121h-33c-104 0 -141 -55 -141 -128
c0 -100 81 -118 190 -142c152 -33 204 -85 204 -191c0 -140 -86 -202 -214 -202h-41zM222 -195l30 137h69l-46 -137h-53z" />
    <glyph glyph-name="uni0219" unicode="&#x219;" horiz-adv-x="460" 
d="M207 -10c-98 0 -163 44 -163 146h57c0 -70 42 -92 106 -92h28c63 0 123 18 123 91c0 67 -50 81 -124 90c-121 15 -183 39 -183 135c0 93 66 138 168 138h16c98 0 164 -44 164 -146h-58c0 70 -42 92 -106 92h-17c-58 0 -111 -16 -111 -83c0 -59 43 -69 135 -81
c109 -13 173 -43 173 -143c0 -103 -71 -147 -181 -147h-27zM162 -195l30 137h69l-46 -137h-53z" />
    <glyph glyph-name="uni021A" unicode="&#x21a;" horiz-adv-x="512" 
d="M499 700v-57h-213v-643h-61v643h-212v57h486zM190 -195l30 137h69l-46 -137h-53z" />
    <glyph glyph-name="uni021B" unicode="&#x21b;" horiz-adv-x="298" 
d="M239 44h42v-54h-42c-119 0 -149 48 -149 151v295h-66v52h66v154h57v-154h117v-52h-117v-295c0 -78 33 -97 92 -97zM133 -195l30 137h69l-46 -137h-53z" />
    <glyph glyph-name="uni0237" unicode="&#x237;" horiz-adv-x="222" 
d="M-15 -195v54h24c60 0 74 36 74 96v533h57v-533c0 -120 -49 -150 -131 -150h-24z" />
    <glyph glyph-name="circumflex" unicode="&#x2c6;" horiz-adv-x="333" 
d="M300 560h-54l-79 93l-80 -93h-54l109 142h49z" />
    <glyph glyph-name="caron" unicode="&#x2c7;" horiz-adv-x="333" 
d="M246 702h54l-109 -142h-49l-109 142h54l80 -93z" />
    <glyph glyph-name="breve" unicode="&#x2d8;" horiz-adv-x="333" 
d="M166 572c-75 0 -129 46 -129 115h44c0 -40 36 -67 85 -67s86 27 86 67h44c0 -68 -53 -115 -130 -115z" />
    <glyph glyph-name="dotaccent" unicode="&#x2d9;" horiz-adv-x="333" 
d="M134 587v83h65v-83h-65z" />
    <glyph glyph-name="ring" unicode="&#x2da;" horiz-adv-x="333" 
d="M167 544c-56 0 -95 36 -95 91s39 92 95 92c54 0 93 -37 93 -92s-39 -91 -93 -91zM167 578c33 0 57 23 57 57s-24 57 -57 57c-34 0 -59 -23 -59 -57s25 -57 59 -57z" />
    <glyph glyph-name="ogonek" unicode="&#x2db;" horiz-adv-x="333" 
d="M199 -187c-72 0 -106 36 -106 83c0 49 42 89 105 129l35 -22c-59 -38 -86 -69 -86 -101c0 -27 20 -43 57 -43c12 0 24 1 35 3v-45c-15 -3 -27 -4 -40 -4z" />
    <glyph glyph-name="tilde" unicode="&#x2dc;" horiz-adv-x="333" 
d="M224 576c-27 0 -47 15 -69 35c-19 19 -29 28 -45 28c-21 0 -35 -24 -35 -59h-43c0 60 35 103 80 103c28 0 50 -19 66 -36c17 -16 29 -27 46 -27c22 0 33 21 33 58h43c0 -59 -32 -102 -76 -102z" />
    <glyph glyph-name="hungarumlaut" unicode="&#x2dd;" horiz-adv-x="333" 
d="M59 560l79 142h63l-91 -142h-51zM192 560l79 142h63l-91 -142h-51z" />
    <glyph glyph-name="gravecomb" unicode="&#x300;" horiz-adv-x="0" 
d="M-25 560l-102 142h69l88 -142h-55z" />
    <glyph glyph-name="acutecomb" unicode="&#x301;" horiz-adv-x="0" 
d="M-31 560l88 142h69l-102 -142h-55z" />
    <glyph glyph-name="uni0302" unicode="&#x302;" horiz-adv-x="0" 
d="M133 560h-54l-79 93l-80 -93h-54l109 142h49z" />
    <glyph glyph-name="tildecomb" unicode="&#x303;" horiz-adv-x="0" 
d="M58 576c-27 0 -47 15 -69 35c-19 19 -29 28 -45 28c-21 0 -35 -24 -35 -59h-43c0 60 35 103 80 103c28 0 50 -19 66 -36c17 -16 29 -27 46 -27c22 0 33 21 33 58h43c0 -59 -32 -102 -76 -102z" />
    <glyph glyph-name="uni0304" unicode="&#x304;" horiz-adv-x="0" 
d="M-124 606v49h248v-49h-248z" />
    <glyph glyph-name="uni0306" unicode="&#x306;" horiz-adv-x="0" 
d="M0 572c-76 0 -130 46 -130 115h44c0 -40 37 -67 86 -67s86 27 86 67h43c0 -68 -52 -115 -129 -115z" />
    <glyph glyph-name="uni0307" unicode="&#x307;" horiz-adv-x="0" 
d="M-32 587v83h64v-83h-64z" />
    <glyph glyph-name="uni0308" unicode="&#x308;" horiz-adv-x="0" 
d="M-132 587v83h65v-83h-65zM67 587v83h65v-83h-65z" />
    <glyph glyph-name="hookabovecomb" unicode="&#x309;" horiz-adv-x="0" 
d="M-4 563v41c31 0 47 14 47 37c0 26 -18 40 -44 40c-29 0 -43 -15 -43 -38h-46c0 47 36 79 89 79s91 -33 91 -82c0 -46 -37 -77 -94 -77z" />
    <glyph glyph-name="uni030A" unicode="&#x30a;" horiz-adv-x="0" 
d="M0 544c-55 0 -95 36 -95 91s40 92 95 92c54 0 93 -37 93 -92s-39 -91 -93 -91zM0 578c33 0 57 23 57 57s-24 57 -57 57c-34 0 -58 -23 -58 -57s24 -57 58 -57z" />
    <glyph glyph-name="uni030B" unicode="&#x30b;" horiz-adv-x="0" 
d="M-91 560l79 142h63l-91 -142h-51zM42 560l79 142h63l-91 -142h-51z" />
    <glyph glyph-name="uni030C" unicode="&#x30c;" horiz-adv-x="0" 
d="M79 702h54l-109 -142h-49l-109 142h54l80 -93z" />
    <glyph glyph-name="uni0312" unicode="&#x312;" horiz-adv-x="0" 
d="M-27 569l31 142h68l-46 -142h-53z" />
    <glyph glyph-name="uni031B" unicode="&#x31b;" horiz-adv-x="0" 
d="M-81 458v46h38c53 0 65 32 65 86v45h48v-45c0 -106 -42 -132 -113 -132h-38z" />
    <glyph glyph-name="dotbelowcomb" unicode="&#x323;" horiz-adv-x="0" 
d="M-33 -141v83h65v-83h-65z" />
    <glyph glyph-name="uni0326" unicode="&#x326;" horiz-adv-x="0" 
d="M-63 -195l30 137h69l-46 -137h-53z" />
    <glyph glyph-name="uni0327" unicode="&#x327;" horiz-adv-x="0" 
d="M2 -42c45 -7 71 -31 71 -71c0 -49 -39 -82 -91 -82c-54 0 -89 31 -89 79h45c0 -26 14 -40 44 -40c29 0 46 17 46 43c0 25 -16 37 -49 37h-36l38 85h52z" />
    <glyph glyph-name="uni0328" unicode="&#x328;" horiz-adv-x="0" 
d="M-51 -187c-72 0 -106 36 -106 83c0 49 43 89 106 129l34 -22c-58 -38 -85 -69 -85 -101c0 -27 19 -43 56 -43c13 0 25 1 36 3v-45c-16 -3 -28 -4 -41 -4z" />
    <glyph glyph-name="Wgrave" unicode="&#x1e80;" horiz-adv-x="797" 
d="M429 772h-55l-102 142h69zM719 700h66l-172 -700h-53l-86 310c-26 93 -51 198 -75 297c-22 -98 -48 -202 -73 -294l-88 -313h-51l-175 700h66l75 -320c21 -88 42 -188 61 -280c21 91 46 188 70 276l88 324h54l90 -329c24 -86 47 -180 69 -269c18 88 38 182 58 268z" />
    <glyph glyph-name="wgrave" unicode="&#x1e81;" horiz-adv-x="705" 
d="M384 560h-55l-102 142h69zM634 488h62l-158 -488h-52l-77 231l-56 180c-18 -62 -37 -123 -56 -181l-76 -230h-54l-158 488h62l65 -215c20 -66 39 -135 59 -207c21 71 42 144 64 210l69 212h51l66 -205c23 -68 45 -143 65 -214c20 70 40 143 60 210z" />
    <glyph glyph-name="Wacute" unicode="&#x1e82;" horiz-adv-x="797" 
d="M525 914l-102 -142h-55l88 142h69zM719 700h66l-172 -700h-53l-86 310c-26 93 -51 198 -75 297c-22 -98 -48 -202 -73 -294l-88 -313h-51l-175 700h66l75 -320c21 -88 42 -188 61 -280c21 91 46 188 70 276l88 324h54l90 -329c24 -86 47 -180 69 -269
c18 88 38 182 58 268z" />
    <glyph glyph-name="wacute" unicode="&#x1e83;" horiz-adv-x="705" 
d="M480 702l-102 -142h-55l88 142h69zM634 488h62l-158 -488h-52l-77 231l-56 180c-18 -62 -37 -123 -56 -181l-76 -230h-54l-158 488h62l65 -215c20 -66 39 -135 59 -207c21 71 42 144 64 210l69 212h51l66 -205c23 -68 45 -143 65 -214c20 70 40 143 60 210z" />
    <glyph glyph-name="Wdieresis" unicode="&#x1e84;" horiz-adv-x="797" 
d="M333 882v-83h-65v83h65zM532 882v-83h-65v83h65zM719 700h66l-172 -700h-53l-86 310c-26 93 -51 198 -75 297c-22 -98 -48 -202 -73 -294l-88 -313h-51l-175 700h66l75 -320c21 -88 42 -188 61 -280c21 91 46 188 70 276l88 324h54l90 -329c24 -86 47 -180 69 -269
c18 88 38 182 58 268z" />
    <glyph glyph-name="wdieresis" unicode="&#x1e85;" horiz-adv-x="705" 
d="M287 670v-83h-65v83h65zM486 670v-83h-65v83h65zM634 488h62l-158 -488h-52l-77 231l-56 180c-18 -62 -37 -123 -56 -181l-76 -230h-54l-158 488h62l65 -215c20 -66 39 -135 59 -207c21 71 42 144 64 210l69 212h51l66 -205c23 -68 45 -143 65 -214c20 70 40 143 60 210z
" />
    <glyph glyph-name="uni1E9E" unicode="&#x1e9e;" horiz-adv-x="688" 
d="M463 384c119 -30 168 -81 168 -176v-33c0 -111 -78 -185 -192 -185h-43c-117 0 -170 66 -170 169h60c0 -74 39 -112 116 -112h33c84 0 135 50 135 131v28c0 59 -27 100 -116 124l-125 32v49l164 184c-41 45 -114 48 -165 48h-175v-643h-60v700h237c95 0 190 -13 235 -102
l-173 -194z" />
    <glyph glyph-name="uni1EA0" unicode="&#x1ea0;" horiz-adv-x="603" 
d="M579 0h-65l-62 180h-301l-62 -180h-65l248 700h59zM171 237h261l-48 140c-28 83 -55 163 -83 253c-28 -90 -54 -171 -83 -255zM268 -141v83h65v-83h-65z" />
    <glyph glyph-name="uni1EA1" unicode="&#x1ea1;" horiz-adv-x="484" 
d="M252 498c97 0 158 -58 158 -145v-353h-43l-6 65c-23 -47 -68 -75 -125 -75h-32c-103 0 -162 60 -162 149c0 84 53 145 138 145h173v67c0 61 -40 93 -99 93h-38c-61 0 -95 -36 -95 -91h-57c0 87 61 145 155 145h33zM236 44c69 0 117 52 117 130v56h-173
c-51 0 -80 -36 -80 -91c0 -60 39 -95 104 -95h32zM211 -141v83h65v-83h-65z" />
    <glyph glyph-name="uni1EA2" unicode="&#x1ea2;" horiz-adv-x="603" 
d="M300 893c-29 0 -43 -15 -43 -38h-46c0 47 36 79 89 79s91 -33 91 -82c0 -46 -37 -77 -94 -77v41c31 0 47 14 47 37c0 26 -18 40 -44 40zM514 0l-62 180h-301l-62 -180h-65l248 700h59l248 -700h-65zM171 237h261l-48 140c-28 83 -55 163 -83 253
c-28 -90 -54 -171 -83 -255z" />
    <glyph glyph-name="uni1EA3" unicode="&#x1ea3;" horiz-adv-x="484" 
d="M242 681c-29 0 -43 -15 -43 -38h-46c0 47 36 79 89 79s91 -33 91 -82c0 -46 -37 -77 -94 -77v41c31 0 47 14 47 37c0 26 -18 40 -44 40zM252 498c97 0 158 -58 158 -145v-353h-43l-6 65c-23 -47 -68 -75 -125 -75h-32c-103 0 -162 60 -162 149c0 84 53 145 138 145h173
v67c0 61 -40 93 -99 93h-38c-61 0 -95 -36 -95 -91h-57c0 87 61 145 155 145h33zM236 44c69 0 117 52 117 130v56h-173c-51 0 -80 -36 -80 -91c0 -60 39 -95 104 -95h32z" />
    <glyph glyph-name="uni1EA4" unicode="&#x1ea4;" horiz-adv-x="603" 
d="M537 1001l-103 -142h-54l88 142h69zM301 865l-80 -93h-54l109 142h49l109 -142h-54zM514 0l-62 180h-301l-62 -180h-65l248 700h59l248 -700h-65zM171 237h261l-48 140c-28 83 -55 163 -83 253c-28 -90 -54 -171 -83 -255z" />
    <glyph glyph-name="uni1EA5" unicode="&#x1ea5;" horiz-adv-x="484" 
d="M479 789l-103 -142h-54l88 142h69zM243 653l-80 -93h-54l109 142h49l109 -142h-54zM252 498c97 0 158 -58 158 -145v-353h-43l-6 65c-23 -47 -68 -75 -125 -75h-32c-103 0 -162 60 -162 149c0 84 53 145 138 145h173v67c0 61 -40 93 -99 93h-38c-61 0 -95 -36 -95 -91
h-57c0 87 61 145 155 145h33zM236 44c69 0 117 52 117 130v56h-173c-51 0 -80 -36 -80 -91c0 -60 39 -95 104 -95h32z" />
    <glyph glyph-name="uni1EA6" unicode="&#x1ea6;" horiz-adv-x="603" 
d="M467 860h-54l-103 142h69zM301 865l-80 -93h-54l109 142h49l109 -142h-54zM514 0l-62 180h-301l-62 -180h-65l248 700h59l248 -700h-65zM171 237h261l-48 140c-28 83 -55 163 -83 253c-28 -90 -54 -171 -83 -255z" />
    <glyph glyph-name="uni1EA7" unicode="&#x1ea7;" horiz-adv-x="484" 
d="M409 648h-54l-103 142h69zM243 653l-80 -93h-54l109 142h49l109 -142h-54zM252 498c97 0 158 -58 158 -145v-353h-43l-6 65c-23 -47 -68 -75 -125 -75h-32c-103 0 -162 60 -162 149c0 84 53 145 138 145h173v67c0 61 -40 93 -99 93h-38c-61 0 -95 -36 -95 -91h-57
c0 87 61 145 155 145h33zM236 44c69 0 117 52 117 130v56h-173c-51 0 -80 -36 -80 -91c0 -60 39 -95 104 -95h32z" />
    <glyph glyph-name="uni1EA8" unicode="&#x1ea8;" horiz-adv-x="603" 
d="M418 980c-29 0 -43 -14 -43 -37h-46c0 47 36 78 89 78s91 -33 91 -81c0 -46 -37 -77 -94 -77v41c31 0 47 13 47 37c0 25 -18 39 -44 39zM301 865l-80 -93h-54l109 142h49l109 -142h-54zM514 0l-62 180h-301l-62 -180h-65l248 700h59l248 -700h-65zM171 237h261l-48 140
c-28 83 -55 163 -83 253c-28 -90 -54 -171 -83 -255z" />
    <glyph glyph-name="uni1EA9" unicode="&#x1ea9;" horiz-adv-x="484" 
d="M360 809c53 0 91 -33 91 -81c0 -46 -37 -77 -94 -77v41c31 0 47 13 47 37c0 25 -18 39 -44 39c-29 0 -43 -14 -43 -37h-46c0 47 36 78 89 78zM243 653l-80 -93h-54l109 142h49l109 -142h-54zM252 498c97 0 158 -58 158 -145v-353h-43l-6 65c-23 -47 -68 -75 -125 -75h-32
c-103 0 -162 60 -162 149c0 84 53 145 138 145h173v67c0 61 -40 93 -99 93h-38c-61 0 -95 -36 -95 -91h-57c0 87 61 145 155 145h33zM236 44c69 0 117 52 117 130v56h-173c-51 0 -80 -36 -80 -91c0 -60 39 -95 104 -95h32z" />
    <glyph glyph-name="uni1EAA" unicode="&#x1eaa;" horiz-adv-x="603" 
d="M246 999c-22 0 -35 -24 -35 -59h-44c0 60 36 103 80 103c29 0 50 -19 67 -36c16 -16 28 -27 45 -27c23 0 33 21 33 58h43c0 -59 -31 -102 -76 -102c-26 0 -47 15 -68 35c-20 19 -30 28 -45 28zM301 865l-80 -93h-54l109 142h49l109 -142h-54zM514 0l-62 180h-301
l-62 -180h-65l248 700h59l248 -700h-65zM171 237h261l-48 140c-28 83 -55 163 -83 253c-28 -90 -54 -171 -83 -255z" />
    <glyph glyph-name="uni1EAB" unicode="&#x1eab;" horiz-adv-x="484" 
d="M188 787c-21 0 -35 -24 -35 -59h-43c0 60 35 103 80 103c28 0 50 -19 66 -36c17 -16 29 -27 46 -27c22 0 33 21 33 58h43c0 -59 -32 -102 -76 -102c-27 0 -47 15 -69 35c-19 19 -29 28 -45 28zM243 653l-80 -93h-54l109 142h49l109 -142h-54zM252 498
c97 0 158 -58 158 -145v-353h-43l-6 65c-23 -47 -68 -75 -125 -75h-32c-103 0 -162 60 -162 149c0 84 53 145 138 145h173v67c0 61 -40 93 -99 93h-38c-61 0 -95 -36 -95 -91h-57c0 87 61 145 155 145h33zM236 44c69 0 117 52 117 130v56h-173c-51 0 -80 -36 -80 -91
c0 -60 39 -95 104 -95h32z" />
    <glyph glyph-name="uni1EAC" unicode="&#x1eac;" horiz-adv-x="603" 
d="M301 865l-80 -93h-54l109 142h49l109 -142h-54zM579 0h-65l-62 180h-301l-62 -180h-65l248 700h59zM171 237h261l-48 140c-28 83 -55 163 -83 253c-28 -90 -54 -171 -83 -255zM268 -141v83h65v-83h-65z" />
    <glyph glyph-name="uni1EAD" unicode="&#x1ead;" horiz-adv-x="484" 
d="M243 653l-80 -93h-54l109 142h49l109 -142h-54zM252 498c97 0 158 -58 158 -145v-353h-43l-6 65c-23 -47 -68 -75 -125 -75h-32c-103 0 -162 60 -162 149c0 84 53 145 138 145h173v67c0 61 -40 93 -99 93h-38c-61 0 -95 -36 -95 -91h-57c0 87 61 145 155 145h33zM236 44
c69 0 117 52 117 130v56h-173c-51 0 -80 -36 -80 -91c0 -60 39 -95 104 -95h32zM211 -141v83h65v-83h-65z" />
    <glyph glyph-name="uni1EAE" unicode="&#x1eae;" horiz-adv-x="603" 
d="M427 1052l-102 -142h-55l88 142h69zM301 784c-76 0 -130 46 -130 115h44c0 -40 37 -67 86 -67s86 27 86 67h43c0 -68 -52 -115 -129 -115zM514 0l-62 180h-301l-62 -180h-65l248 700h59l248 -700h-65zM171 237h261l-48 140c-28 83 -55 163 -83 253
c-28 -90 -54 -171 -83 -255z" />
    <glyph glyph-name="uni1EAF" unicode="&#x1eaf;" horiz-adv-x="484" 
d="M369 840l-102 -142h-55l88 142h69zM243 572c-76 0 -130 46 -130 115h44c0 -40 37 -67 86 -67s86 27 86 67h43c0 -68 -52 -115 -129 -115zM252 498c97 0 158 -58 158 -145v-353h-43l-6 65c-23 -47 -68 -75 -125 -75h-32c-103 0 -162 60 -162 149c0 84 53 145 138 145h173
v67c0 61 -40 93 -99 93h-38c-61 0 -95 -36 -95 -91h-57c0 87 61 145 155 145h33zM236 44c69 0 117 52 117 130v56h-173c-51 0 -80 -36 -80 -91c0 -60 39 -95 104 -95h32z" />
    <glyph glyph-name="uni1EB0" unicode="&#x1eb0;" horiz-adv-x="603" 
d="M331 910h-55l-102 142h69zM301 784c-76 0 -130 46 -130 115h44c0 -40 37 -67 86 -67s86 27 86 67h43c0 -68 -52 -115 -129 -115zM514 0l-62 180h-301l-62 -180h-65l248 700h59l248 -700h-65zM171 237h261l-48 140c-28 83 -55 163 -83 253c-28 -90 -54 -171 -83 -255z" />
    <glyph glyph-name="uni1EB1" unicode="&#x1eb1;" horiz-adv-x="484" 
d="M273 698h-55l-102 142h69zM243 572c-76 0 -130 46 -130 115h44c0 -40 37 -67 86 -67s86 27 86 67h43c0 -68 -52 -115 -129 -115zM252 498c97 0 158 -58 158 -145v-353h-43l-6 65c-23 -47 -68 -75 -125 -75h-32c-103 0 -162 60 -162 149c0 84 53 145 138 145h173v67
c0 61 -40 93 -99 93h-38c-61 0 -95 -36 -95 -91h-57c0 87 61 145 155 145h33zM236 44c69 0 117 52 117 130v56h-173c-51 0 -80 -36 -80 -91c0 -60 39 -95 104 -95h32z" />
    <glyph glyph-name="uni1EB2" unicode="&#x1eb2;" horiz-adv-x="603" 
d="M300 1031c-29 0 -43 -15 -43 -38h-46c0 47 36 79 89 79s91 -33 91 -82c0 -46 -37 -77 -94 -77v41c31 0 47 14 47 37c0 26 -18 40 -44 40zM301 784c-76 0 -130 46 -130 115h44c0 -40 37 -67 86 -67s86 27 86 67h43c0 -68 -52 -115 -129 -115zM514 0l-62 180h-301l-62 -180
h-65l248 700h59l248 -700h-65zM171 237h261l-48 140c-28 83 -55 163 -83 253c-28 -90 -54 -171 -83 -255z" />
    <glyph glyph-name="uni1EB3" unicode="&#x1eb3;" horiz-adv-x="484" 
d="M242 819c-29 0 -43 -15 -43 -38h-46c0 47 36 79 89 79s91 -33 91 -82c0 -46 -37 -77 -94 -77v41c31 0 47 14 47 37c0 26 -18 40 -44 40zM243 572c-76 0 -130 46 -130 115h44c0 -40 37 -67 86 -67s86 27 86 67h43c0 -68 -52 -115 -129 -115zM252 498
c97 0 158 -58 158 -145v-353h-43l-6 65c-23 -47 -68 -75 -125 -75h-32c-103 0 -162 60 -162 149c0 84 53 145 138 145h173v67c0 61 -40 93 -99 93h-38c-61 0 -95 -36 -95 -91h-57c0 87 61 145 155 145h33zM236 44c69 0 117 52 117 130v56h-173c-51 0 -80 -36 -80 -91
c0 -60 39 -95 104 -95h32z" />
    <glyph glyph-name="uni1EB4" unicode="&#x1eb4;" horiz-adv-x="603" 
d="M245 989c-21 0 -35 -24 -35 -59h-43c0 60 35 103 80 103c28 0 50 -19 66 -36c17 -16 29 -27 46 -27c22 0 33 21 33 58h43c0 -59 -32 -102 -76 -102c-27 0 -47 15 -69 35c-19 19 -29 28 -45 28zM301 832c49 0 86 27 86 67h43c0 -68 -52 -115 -129 -115
c-76 0 -130 46 -130 115h44c0 -40 37 -67 86 -67zM514 0l-62 180h-301l-62 -180h-65l248 700h59l248 -700h-65zM171 237h261l-48 140c-28 83 -55 163 -83 253c-28 -90 -54 -171 -83 -255z" />
    <glyph glyph-name="uni1EB5" unicode="&#x1eb5;" horiz-adv-x="484" 
d="M187 777c-21 0 -35 -24 -35 -59h-43c0 60 35 103 80 103c28 0 50 -19 66 -36c17 -16 29 -27 46 -27c22 0 33 21 33 58h43c0 -59 -32 -102 -76 -102c-27 0 -47 15 -69 35c-19 19 -29 28 -45 28zM243 620c49 0 86 27 86 67h43c0 -68 -52 -115 -129 -115
c-76 0 -130 46 -130 115h44c0 -40 37 -67 86 -67zM252 498c97 0 158 -58 158 -145v-353h-43l-6 65c-23 -47 -68 -75 -125 -75h-32c-103 0 -162 60 -162 149c0 84 53 145 138 145h173v67c0 61 -40 93 -99 93h-38c-61 0 -95 -36 -95 -91h-57c0 87 61 145 155 145h33zM236 44
c69 0 117 52 117 130v56h-173c-51 0 -80 -36 -80 -91c0 -60 39 -95 104 -95h32z" />
    <glyph glyph-name="uni1EB6" unicode="&#x1eb6;" horiz-adv-x="603" 
d="M301 784c-76 0 -130 46 -130 115h44c0 -40 37 -67 86 -67s86 27 86 67h43c0 -68 -52 -115 -129 -115zM579 0h-65l-62 180h-301l-62 -180h-65l248 700h59zM171 237h261l-48 140c-28 83 -55 163 -83 253c-28 -90 -54 -171 -83 -255zM268 -141v83h65v-83h-65z" />
    <glyph glyph-name="uni1EB7" unicode="&#x1eb7;" horiz-adv-x="484" 
d="M243 572c-76 0 -130 46 -130 115h44c0 -40 37 -67 86 -67s86 27 86 67h43c0 -68 -52 -115 -129 -115zM252 498c97 0 158 -58 158 -145v-353h-43l-6 65c-23 -47 -68 -75 -125 -75h-32c-103 0 -162 60 -162 149c0 84 53 145 138 145h173v67c0 61 -40 93 -99 93h-38
c-61 0 -95 -36 -95 -91h-57c0 87 61 145 155 145h33zM236 44c69 0 117 52 117 130v56h-173c-51 0 -80 -36 -80 -91c0 -60 39 -95 104 -95h32zM211 -141v83h65v-83h-65z" />
    <glyph glyph-name="uni1EB8" unicode="&#x1eb8;" horiz-adv-x="543" 
d="M517 643h-364v-259h315v-57h-315v-270h364v-57h-424v700h424v-57zM275 -141v83h65v-83h-65z" />
    <glyph glyph-name="uni1EB9" unicode="&#x1eb9;" horiz-adv-x="475" 
d="M110 212v-61c0 -68 43 -107 117 -107h32c66 0 105 34 105 91h57c0 -88 -64 -145 -162 -145h-32c-108 0 -175 63 -175 161v161c0 113 67 186 175 186h23c107 0 174 -72 174 -186v-100h-314zM227 444c-76 0 -117 -51 -117 -132v-47h257v47c0 84 -44 132 -117 132h-23z
M205 -141v83h65v-83h-65z" />
    <glyph glyph-name="uni1EBA" unicode="&#x1eba;" horiz-adv-x="543" 
d="M307 893c-29 0 -43 -15 -43 -38h-46c0 47 36 79 89 79s91 -33 91 -82c0 -46 -37 -77 -94 -77v41c31 0 47 14 47 37c0 26 -18 40 -44 40zM517 643h-364v-259h315v-57h-315v-270h364v-57h-424v700h424v-57z" />
    <glyph glyph-name="uni1EBB" unicode="&#x1ebb;" horiz-adv-x="475" 
d="M237 681c-29 0 -43 -15 -43 -38h-46c0 47 36 79 89 79s91 -33 91 -82c0 -46 -37 -77 -94 -77v41c31 0 47 14 47 37c0 26 -18 40 -44 40zM110 212v-61c0 -68 43 -107 117 -107h32c66 0 105 34 105 91h57c0 -88 -64 -145 -162 -145h-32c-108 0 -175 63 -175 161v161
c0 113 67 186 175 186h23c107 0 174 -72 174 -186v-100h-314zM227 444c-76 0 -117 -51 -117 -132v-47h257v47c0 84 -44 132 -117 132h-23z" />
    <glyph glyph-name="uni1EBC" unicode="&#x1ebc;" horiz-adv-x="543" 
d="M252 851c-21 0 -35 -24 -35 -59h-43c0 60 35 103 80 103c28 0 50 -19 66 -36c17 -16 29 -27 46 -27c22 0 33 21 33 58h43c0 -59 -32 -102 -76 -102c-27 0 -47 15 -69 35c-19 19 -29 28 -45 28zM517 643h-364v-259h315v-57h-315v-270h364v-57h-424v700h424v-57z" />
    <glyph glyph-name="uni1EBD" unicode="&#x1ebd;" horiz-adv-x="475" 
d="M182 639c-21 0 -35 -24 -35 -59h-43c0 60 35 103 80 103c28 0 50 -19 66 -36c17 -16 29 -27 46 -27c22 0 33 21 33 58h43c0 -59 -32 -102 -76 -102c-27 0 -47 15 -69 35c-19 19 -29 28 -45 28zM110 212v-61c0 -68 43 -107 117 -107h32c66 0 105 34 105 91h57
c0 -88 -64 -145 -162 -145h-32c-108 0 -175 63 -175 161v161c0 113 67 186 175 186h23c107 0 174 -72 174 -186v-100h-314zM227 444c-76 0 -117 -51 -117 -132v-47h257v47c0 84 -44 132 -117 132h-23z" />
    <glyph glyph-name="uni1EBE" unicode="&#x1ebe;" horiz-adv-x="543" 
d="M544 1001l-103 -142h-54l88 142h69zM308 865l-80 -93h-54l109 142h49l109 -142h-54zM517 700v-57h-364v-259h315v-57h-315v-270h364v-57h-424v700h424z" />
    <glyph glyph-name="uni1EBF" unicode="&#x1ebf;" horiz-adv-x="475" 
d="M474 789l-103 -142h-54l88 142h69zM238 653l-80 -93h-54l109 142h49l109 -142h-54zM250 498c107 0 174 -72 174 -186v-100h-314v-61c0 -68 43 -107 117 -107h32c66 0 105 34 105 91h57c0 -88 -64 -145 -162 -145h-32c-108 0 -175 63 -175 161v161c0 113 67 186 175 186
h23zM110 265h257v47c0 84 -44 132 -117 132h-23c-76 0 -117 -51 -117 -132v-47z" />
    <glyph glyph-name="uni1EC0" unicode="&#x1ec0;" horiz-adv-x="543" 
d="M474 860h-54l-103 142h69zM308 865l-80 -93h-54l109 142h49l109 -142h-54zM517 643h-364v-259h315v-57h-315v-270h364v-57h-424v700h424v-57z" />
    <glyph glyph-name="uni1EC1" unicode="&#x1ec1;" horiz-adv-x="475" 
d="M404 648h-54l-103 142h69zM238 653l-80 -93h-54l109 142h49l109 -142h-54zM110 212v-61c0 -68 43 -107 117 -107h32c66 0 105 34 105 91h57c0 -88 -64 -145 -162 -145h-32c-108 0 -175 63 -175 161v161c0 113 67 186 175 186h23c107 0 174 -72 174 -186v-100h-314z
M227 444c-76 0 -117 -51 -117 -132v-47h257v47c0 84 -44 132 -117 132h-23z" />
    <glyph glyph-name="uni1EC2" unicode="&#x1ec2;" horiz-adv-x="543" 
d="M425 980c-29 0 -43 -14 -43 -37h-46c0 47 36 78 89 78s91 -33 91 -81c0 -46 -37 -77 -94 -77v41c31 0 47 13 47 37c0 25 -18 39 -44 39zM308 865l-80 -93h-54l109 142h49l109 -142h-54zM517 643h-364v-259h315v-57h-315v-270h364v-57h-424v700h424v-57z" />
    <glyph glyph-name="uni1EC3" unicode="&#x1ec3;" horiz-adv-x="475" 
d="M355 809c53 0 91 -33 91 -81c0 -46 -37 -77 -94 -77v41c31 0 47 13 47 37c0 25 -18 39 -44 39c-29 0 -43 -14 -43 -37h-46c0 47 36 78 89 78zM238 653l-80 -93h-54l109 142h49l109 -142h-54zM250 498c107 0 174 -72 174 -186v-100h-314v-61c0 -68 43 -107 117 -107h32
c66 0 105 34 105 91h57c0 -88 -64 -145 -162 -145h-32c-108 0 -175 63 -175 161v161c0 113 67 186 175 186h23zM110 265h257v47c0 84 -44 132 -117 132h-23c-76 0 -117 -51 -117 -132v-47z" />
    <glyph glyph-name="uni1EC4" unicode="&#x1ec4;" horiz-adv-x="543" 
d="M253 999c-22 0 -35 -24 -35 -59h-44c0 60 36 103 80 103c29 0 50 -19 67 -36c16 -16 28 -27 45 -27c23 0 33 21 33 58h43c0 -59 -31 -102 -76 -102c-26 0 -47 15 -68 35c-20 19 -30 28 -45 28zM308 865l-80 -93h-54l109 142h49l109 -142h-54zM517 643h-364v-259h315v-57
h-315v-270h364v-57h-424v700h424v-57z" />
    <glyph glyph-name="uni1EC5" unicode="&#x1ec5;" horiz-adv-x="475" 
d="M183 787c-21 0 -35 -24 -35 -59h-43c0 60 35 103 80 103c28 0 50 -19 66 -36c17 -16 29 -27 46 -27c22 0 33 21 33 58h43c0 -59 -32 -102 -76 -102c-27 0 -47 15 -69 35c-19 19 -29 28 -45 28zM238 653l-80 -93h-54l109 142h49l109 -142h-54zM110 212v-61
c0 -68 43 -107 117 -107h32c66 0 105 34 105 91h57c0 -88 -64 -145 -162 -145h-32c-108 0 -175 63 -175 161v161c0 113 67 186 175 186h23c107 0 174 -72 174 -186v-100h-314zM227 444c-76 0 -117 -51 -117 -132v-47h257v47c0 84 -44 132 -117 132h-23z" />
    <glyph glyph-name="uni1EC6" unicode="&#x1ec6;" horiz-adv-x="543" 
d="M308 865l-80 -93h-54l109 142h49l109 -142h-54zM517 643h-364v-259h315v-57h-315v-270h364v-57h-424v700h424v-57zM275 -141v83h65v-83h-65z" />
    <glyph glyph-name="uni1EC7" unicode="&#x1ec7;" horiz-adv-x="475" 
d="M238 653l-80 -93h-54l109 142h49l109 -142h-54zM110 212v-61c0 -68 43 -107 117 -107h32c66 0 105 34 105 91h57c0 -88 -64 -145 -162 -145h-32c-108 0 -175 63 -175 161v161c0 113 67 186 175 186h23c107 0 174 -72 174 -186v-100h-314zM227 444
c-76 0 -117 -51 -117 -132v-47h257v47c0 84 -44 132 -117 132h-23zM205 -141v83h65v-83h-65z" />
    <glyph glyph-name="uni1EC8" unicode="&#x1ec8;" horiz-adv-x="246" 
d="M119 775v41c31 0 47 14 47 37c0 26 -18 40 -44 40c-29 0 -43 -15 -43 -38h-46c0 47 36 79 89 79s91 -33 91 -82c0 -46 -37 -77 -94 -77zM93 0v700h60v-700h-60z" />
    <glyph glyph-name="uni1EC9" unicode="&#x1ec9;" horiz-adv-x="222" 
d="M108 563v41c31 0 47 14 47 37c0 26 -18 40 -44 40c-29 0 -43 -15 -43 -38h-46c0 47 36 79 89 79s91 -33 91 -82c0 -46 -37 -77 -94 -77zM140 488v-488h-57v488h57z" />
    <glyph glyph-name="uni1ECA" unicode="&#x1eca;" horiz-adv-x="246" 
d="M93 0v700h60v-700h-60zM90 -141v83h65v-83h-65z" />
    <glyph glyph-name="uni1ECB" unicode="&#x1ecb;" horiz-adv-x="222" 
d="M80 589v85h62v-85h-62zM83 0v488h57v-488h-57zM82 -141v83h65v-83h-65z" />
    <glyph glyph-name="uni1ECC" unicode="&#x1ecc;" horiz-adv-x="631" 
d="M295 -10c-153 0 -239 101 -239 239v239c0 141 87 242 239 242h41c152 0 239 -102 239 -242v-239c0 -139 -87 -239 -239 -239h-41zM294 48h42c113 0 177 69 177 181v239c0 117 -68 184 -177 184h-42c-112 0 -177 -70 -177 -184v-239c0 -115 68 -181 177 -181zM283 -141v83
h65v-83h-65z" />
    <glyph glyph-name="uni1ECD" unicode="&#x1ecd;" horiz-adv-x="504" 
d="M264 498c115 0 187 -72 187 -186v-141c0 -109 -71 -181 -187 -181h-24c-116 0 -188 72 -188 181v141c0 113 72 186 188 186h24zM264 444h-24c-84 0 -130 -51 -130 -132v-141c0 -82 51 -127 130 -127h24c85 0 130 50 130 127v141c0 84 -49 132 -130 132zM219 -141v83h65
v-83h-65z" />
    <glyph glyph-name="uni1ECE" unicode="&#x1ece;" horiz-adv-x="631" 
d="M312 775v41c31 0 47 14 47 37c0 26 -18 40 -44 40c-29 0 -43 -15 -43 -38h-46c0 47 36 79 89 79s91 -33 91 -82c0 -46 -37 -77 -94 -77zM295 -10c-153 0 -239 101 -239 239v239c0 141 87 242 239 242h41c152 0 239 -102 239 -242v-239c0 -139 -87 -239 -239 -239h-41z
M294 48h42c113 0 177 69 177 181v239c0 117 -68 184 -177 184h-42c-112 0 -177 -70 -177 -184v-239c0 -115 68 -181 177 -181z" />
    <glyph glyph-name="uni1ECF" unicode="&#x1ecf;" horiz-adv-x="504" 
d="M248 563v41c31 0 47 14 47 37c0 26 -18 40 -44 40c-29 0 -43 -15 -43 -38h-46c0 47 36 79 89 79s91 -33 91 -82c0 -46 -37 -77 -94 -77zM264 498c115 0 187 -72 187 -186v-141c0 -109 -71 -181 -187 -181h-24c-116 0 -188 72 -188 181v141c0 113 72 186 188 186h24z
M264 444h-24c-84 0 -130 -51 -130 -132v-141c0 -82 51 -127 130 -127h24c85 0 130 50 130 127v141c0 84 -49 132 -130 132z" />
    <glyph glyph-name="uni1ED0" unicode="&#x1ed0;" horiz-adv-x="631" 
d="M552 1001l-103 -142h-54l88 142h69zM316 865l-80 -93h-54l109 142h49l109 -142h-54zM336 710c152 0 239 -102 239 -242v-239c0 -139 -87 -239 -239 -239h-41c-153 0 -239 101 -239 239v239c0 141 87 242 239 242h41zM513 229v239c0 117 -68 184 -177 184h-42
c-112 0 -177 -70 -177 -184v-239c0 -115 68 -181 177 -181h42c113 0 177 69 177 181z" />
    <glyph glyph-name="uni1ED1" unicode="&#x1ed1;" horiz-adv-x="504" 
d="M488 789l-103 -142h-54l88 142h69zM252 653l-80 -93h-54l109 142h49l109 -142h-54zM264 498c115 0 187 -72 187 -186v-141c0 -109 -71 -181 -187 -181h-24c-116 0 -188 72 -188 181v141c0 113 72 186 188 186h24zM394 171v141c0 84 -49 132 -130 132h-24
c-84 0 -130 -51 -130 -132v-141c0 -82 51 -127 130 -127h24c85 0 130 50 130 127z" />
    <glyph glyph-name="uni1ED2" unicode="&#x1ed2;" horiz-adv-x="631" 
d="M482 860h-54l-103 142h69zM316 865l-80 -93h-54l109 142h49l109 -142h-54zM336 710c152 0 239 -102 239 -242v-239c0 -139 -87 -239 -239 -239h-41c-153 0 -239 101 -239 239v239c0 141 87 242 239 242h41zM513 229v239c0 117 -68 184 -177 184h-42
c-112 0 -177 -70 -177 -184v-239c0 -115 68 -181 177 -181h42c113 0 177 69 177 181z" />
    <glyph glyph-name="uni1ED3" unicode="&#x1ed3;" horiz-adv-x="504" 
d="M418 648h-54l-103 142h69zM252 653l-80 -93h-54l109 142h49l109 -142h-54zM264 498c115 0 187 -72 187 -186v-141c0 -109 -71 -181 -187 -181h-24c-116 0 -188 72 -188 181v141c0 113 72 186 188 186h24zM394 171v141c0 84 -49 132 -130 132h-24
c-84 0 -130 -51 -130 -132v-141c0 -82 51 -127 130 -127h24c85 0 130 50 130 127z" />
    <glyph glyph-name="uni1ED4" unicode="&#x1ed4;" horiz-adv-x="631" 
d="M433 980c-29 0 -43 -14 -43 -37h-46c0 47 36 78 89 78s91 -33 91 -81c0 -46 -37 -77 -94 -77v41c31 0 47 13 47 37c0 25 -18 39 -44 39zM316 865l-80 -93h-54l109 142h49l109 -142h-54zM336 710c152 0 239 -102 239 -242v-239c0 -139 -87 -239 -239 -239h-41
c-153 0 -239 101 -239 239v239c0 141 87 242 239 242h41zM513 229v239c0 117 -68 184 -177 184h-42c-112 0 -177 -70 -177 -184v-239c0 -115 68 -181 177 -181h42c113 0 177 69 177 181z" />
    <glyph glyph-name="uni1ED5" unicode="&#x1ed5;" horiz-adv-x="504" 
d="M369 768c-29 0 -43 -14 -43 -37h-46c0 47 36 78 89 78s91 -33 91 -81c0 -46 -37 -77 -94 -77v41c31 0 47 13 47 37c0 25 -18 39 -44 39zM252 653l-80 -93h-54l109 142h49l109 -142h-54zM264 498c115 0 187 -72 187 -186v-141c0 -109 -71 -181 -187 -181h-24
c-116 0 -188 72 -188 181v141c0 113 72 186 188 186h24zM394 171v141c0 84 -49 132 -130 132h-24c-84 0 -130 -51 -130 -132v-141c0 -82 51 -127 130 -127h24c85 0 130 50 130 127z" />
    <glyph glyph-name="uni1ED6" unicode="&#x1ed6;" horiz-adv-x="631" 
d="M261 999c-22 0 -35 -24 -35 -59h-44c0 60 36 103 80 103c29 0 50 -19 67 -36c16 -16 28 -27 45 -27c23 0 33 21 33 58h43c0 -59 -31 -102 -76 -102c-26 0 -47 15 -68 35c-20 19 -30 28 -45 28zM316 865l-80 -93h-54l109 142h49l109 -142h-54zM336 710
c152 0 239 -102 239 -242v-239c0 -139 -87 -239 -239 -239h-41c-153 0 -239 101 -239 239v239c0 141 87 242 239 242h41zM513 229v239c0 117 -68 184 -177 184h-42c-112 0 -177 -70 -177 -184v-239c0 -115 68 -181 177 -181h42c113 0 177 69 177 181z" />
    <glyph glyph-name="uni1ED7" unicode="&#x1ed7;" horiz-adv-x="504" 
d="M197 787c-21 0 -35 -24 -35 -59h-43c0 60 35 103 80 103c28 0 50 -19 66 -36c17 -16 29 -27 46 -27c22 0 33 21 33 58h43c0 -59 -32 -102 -76 -102c-27 0 -47 15 -69 35c-19 19 -29 28 -45 28zM252 653l-80 -93h-54l109 142h49l109 -142h-54zM264 498
c115 0 187 -72 187 -186v-141c0 -109 -71 -181 -187 -181h-24c-116 0 -188 72 -188 181v141c0 113 72 186 188 186h24zM394 171v141c0 84 -49 132 -130 132h-24c-84 0 -130 -51 -130 -132v-141c0 -82 51 -127 130 -127h24c85 0 130 50 130 127z" />
    <glyph glyph-name="uni1ED8" unicode="&#x1ed8;" horiz-adv-x="631" 
d="M316 865l-80 -93h-54l109 142h49l109 -142h-54zM336 710c152 0 239 -102 239 -242v-239c0 -139 -87 -239 -239 -239h-41c-153 0 -239 101 -239 239v239c0 141 87 242 239 242h41zM513 229v239c0 117 -68 184 -177 184h-42c-112 0 -177 -70 -177 -184v-239
c0 -115 68 -181 177 -181h42c113 0 177 69 177 181zM283 -141v83h65v-83h-65z" />
    <glyph glyph-name="uni1ED9" unicode="&#x1ed9;" horiz-adv-x="504" 
d="M252 653l-80 -93h-54l109 142h49l109 -142h-54zM264 498c115 0 187 -72 187 -186v-141c0 -109 -71 -181 -187 -181h-24c-116 0 -188 72 -188 181v141c0 113 72 186 188 186h24zM394 171v141c0 84 -49 132 -130 132h-24c-84 0 -130 -51 -130 -132v-141
c0 -82 51 -127 130 -127h24c85 0 130 50 130 127zM219 -141v83h65v-83h-65z" />
    <glyph glyph-name="uni1EDA" unicode="&#x1eda;" horiz-adv-x="631" 
d="M442 914l-102 -142h-55l88 142h69zM579 786c0 -89 -30 -122 -82 -130c51 -43 78 -110 78 -188v-239c0 -139 -87 -239 -239 -239h-41c-153 0 -239 101 -239 239v239c0 141 87 242 239 242h41c28 0 54 -3 77 -10h53c53 0 65 32 65 86v45h48v-45zM513 468
c0 117 -68 184 -177 184h-42c-112 0 -177 -70 -177 -184v-239c0 -115 68 -181 177 -181h42c113 0 177 69 177 181v239z" />
    <glyph glyph-name="uni1EDB" unicode="&#x1edb;" horiz-adv-x="504" 
d="M378 702l-102 -142h-55l88 142h69zM436 619h48v-45c0 -88 -29 -121 -80 -130c30 -32 47 -77 47 -132v-141c0 -109 -71 -181 -187 -181h-24c-116 0 -188 72 -188 181v141c0 113 72 186 188 186h24c25 0 48 -3 69 -10h38c53 0 65 32 65 86v45zM394 171v141
c0 84 -49 132 -130 132h-24c-84 0 -130 -51 -130 -132v-141c0 -82 51 -127 130 -127h24c85 0 130 50 130 127z" />
    <glyph glyph-name="uni1EDC" unicode="&#x1edc;" horiz-adv-x="631" 
d="M346 772h-55l-102 142h69zM579 786c0 -89 -30 -122 -82 -130c51 -43 78 -110 78 -188v-239c0 -139 -87 -239 -239 -239h-41c-153 0 -239 101 -239 239v239c0 141 87 242 239 242h41c28 0 54 -3 77 -10h53c53 0 65 32 65 86v45h48v-45zM513 468c0 117 -68 184 -177 184
h-42c-112 0 -177 -70 -177 -184v-239c0 -115 68 -181 177 -181h42c113 0 177 69 177 181v239z" />
    <glyph glyph-name="uni1EDD" unicode="&#x1edd;" horiz-adv-x="504" 
d="M282 560h-55l-102 142h69zM436 619h48v-45c0 -88 -29 -121 -80 -130c30 -32 47 -77 47 -132v-141c0 -109 -71 -181 -187 -181h-24c-116 0 -188 72 -188 181v141c0 113 72 186 188 186h24c25 0 48 -3 69 -10h38c53 0 65 32 65 86v45zM394 171v141c0 84 -49 132 -130 132
h-24c-84 0 -130 -51 -130 -132v-141c0 -82 51 -127 130 -127h24c85 0 130 50 130 127z" />
    <glyph glyph-name="uni1EDE" unicode="&#x1ede;" horiz-adv-x="631" 
d="M315 893c-29 0 -43 -15 -43 -38h-46c0 47 36 79 89 79s91 -33 91 -82c0 -46 -37 -77 -94 -77v41c31 0 47 14 47 37c0 26 -18 40 -44 40zM579 786c0 -89 -30 -122 -82 -130c51 -43 78 -110 78 -188v-239c0 -139 -87 -239 -239 -239h-41c-153 0 -239 101 -239 239v239
c0 141 87 242 239 242h41c28 0 54 -3 77 -10h53c53 0 65 32 65 86v45h48v-45zM513 468c0 117 -68 184 -177 184h-42c-112 0 -177 -70 -177 -184v-239c0 -115 68 -181 177 -181h42c113 0 177 69 177 181v239z" />
    <glyph glyph-name="uni1EDF" unicode="&#x1edf;" horiz-adv-x="504" 
d="M251 681c-29 0 -43 -15 -43 -38h-46c0 47 36 79 89 79s91 -33 91 -82c0 -46 -37 -77 -94 -77v41c31 0 47 14 47 37c0 26 -18 40 -44 40zM436 619h48v-45c0 -88 -29 -121 -80 -130c30 -32 47 -77 47 -132v-141c0 -109 -71 -181 -187 -181h-24c-116 0 -188 72 -188 181v141
c0 113 72 186 188 186h24c25 0 48 -3 69 -10h38c53 0 65 32 65 86v45zM394 171v141c0 84 -49 132 -130 132h-24c-84 0 -130 -51 -130 -132v-141c0 -82 51 -127 130 -127h24c85 0 130 50 130 127z" />
    <glyph glyph-name="uni1EE0" unicode="&#x1ee0;" horiz-adv-x="631" 
d="M260 851c-21 0 -35 -24 -35 -59h-43c0 60 35 103 80 103c28 0 50 -19 66 -36c17 -16 29 -27 46 -27c22 0 33 21 33 58h43c0 -59 -32 -102 -76 -102c-27 0 -47 15 -69 35c-19 19 -29 28 -45 28zM579 786c0 -89 -30 -122 -82 -130c51 -43 78 -110 78 -188v-239
c0 -139 -87 -239 -239 -239h-41c-153 0 -239 101 -239 239v239c0 141 87 242 239 242h41c28 0 54 -3 77 -10h53c53 0 65 32 65 86v45h48v-45zM513 468c0 117 -68 184 -177 184h-42c-112 0 -177 -70 -177 -184v-239c0 -115 68 -181 177 -181h42c113 0 177 69 177 181v239z
" />
    <glyph glyph-name="uni1EE1" unicode="&#x1ee1;" horiz-adv-x="504" 
d="M196 639c-21 0 -35 -24 -35 -59h-43c0 60 35 103 80 103c28 0 50 -19 66 -36c17 -16 29 -27 46 -27c22 0 33 21 33 58h43c0 -59 -32 -102 -76 -102c-27 0 -47 15 -69 35c-19 19 -29 28 -45 28zM436 619h48v-45c0 -88 -29 -121 -80 -130c30 -32 47 -77 47 -132v-141
c0 -109 -71 -181 -187 -181h-24c-116 0 -188 72 -188 181v141c0 113 72 186 188 186h24c25 0 48 -3 69 -10h38c53 0 65 32 65 86v45zM394 171v141c0 84 -49 132 -130 132h-24c-84 0 -130 -51 -130 -132v-141c0 -82 51 -127 130 -127h24c85 0 130 50 130 127z" />
    <glyph glyph-name="uni1EE2" unicode="&#x1ee2;" horiz-adv-x="631" 
d="M579 786c0 -89 -30 -122 -82 -130c51 -43 78 -110 78 -188v-239c0 -139 -87 -239 -239 -239h-41c-153 0 -239 101 -239 239v239c0 141 87 242 239 242h41c28 0 54 -3 77 -10h53c53 0 65 32 65 86v45h48v-45zM513 468c0 117 -68 184 -177 184h-42
c-112 0 -177 -70 -177 -184v-239c0 -115 68 -181 177 -181h42c113 0 177 69 177 181v239zM283 -141v83h65v-83h-65z" />
    <glyph glyph-name="uni1EE3" unicode="&#x1ee3;" horiz-adv-x="504" 
d="M436 619h48v-45c0 -88 -29 -121 -80 -130c30 -32 47 -77 47 -132v-141c0 -109 -71 -181 -187 -181h-24c-116 0 -188 72 -188 181v141c0 113 72 186 188 186h24c25 0 48 -3 69 -10h38c53 0 65 32 65 86v45zM394 171v141c0 84 -49 132 -130 132h-24
c-84 0 -130 -51 -130 -132v-141c0 -82 51 -127 130 -127h24c85 0 130 50 130 127zM219 -141v83h65v-83h-65z" />
    <glyph glyph-name="uni1EE4" unicode="&#x1ee4;" horiz-adv-x="658" 
d="M316 -10c-148 0 -232 101 -232 239v471h61v-471c0 -116 66 -181 171 -181h26c108 0 171 69 171 181v471h61v-471c0 -139 -85 -239 -232 -239h-26zM296 -141v83h65v-83h-65z" />
    <glyph glyph-name="uni1EE5" unicode="&#x1ee5;" horiz-adv-x="522" 
d="M384 488h57v-488h-43l-6 69c-22 -49 -72 -79 -140 -79h-22c-99 0 -159 61 -159 157v341h57v-340c0 -69 40 -104 100 -104h34c75 0 122 54 122 133v311zM220 -141v83h65v-83h-65z" />
    <glyph glyph-name="uni1EE6" unicode="&#x1ee6;" horiz-adv-x="658" 
d="M325 775v41c31 0 47 14 47 37c0 26 -18 40 -44 40c-29 0 -43 -15 -43 -38h-46c0 47 36 79 89 79s91 -33 91 -82c0 -46 -37 -77 -94 -77zM316 -10c-148 0 -232 101 -232 239v471h61v-471c0 -116 66 -181 171 -181h26c108 0 171 69 171 181v471h61v-471
c0 -139 -85 -239 -232 -239h-26z" />
    <glyph glyph-name="uni1EE7" unicode="&#x1ee7;" horiz-adv-x="522" 
d="M254 681c-29 0 -43 -15 -43 -38h-46c0 47 36 79 89 79s91 -33 91 -82c0 -46 -37 -77 -94 -77v41c31 0 47 14 47 37c0 26 -18 40 -44 40zM384 488h57v-488h-43l-6 69c-22 -49 -72 -79 -140 -79h-22c-99 0 -159 61 -159 157v341h57v-340c0 -69 40 -104 100 -104h34
c75 0 122 54 122 133v311z" />
    <glyph glyph-name="uni1EE8" unicode="&#x1ee8;" horiz-adv-x="658" 
d="M455 914l-102 -142h-55l88 142h69zM655 831h48v-45c0 -106 -42 -132 -113 -132h-16v-425c0 -139 -85 -239 -232 -239h-26c-148 0 -232 101 -232 239v471h61v-471c0 -116 66 -181 171 -181h26c108 0 171 69 171 181v471h77c53 0 65 32 65 86v45z" />
    <glyph glyph-name="uni1EE9" unicode="&#x1ee9;" horiz-adv-x="522" 
d="M381 702l-102 -142h-55l88 142h69zM504 619h48v-45c0 -105 -41 -132 -111 -132v-442h-43l-6 69c-22 -49 -72 -79 -140 -79h-22c-99 0 -159 61 -159 157v341h57v-340c0 -69 40 -104 100 -104h34c75 0 122 54 122 133v311h55c53 0 65 32 65 86v45z" />
    <glyph glyph-name="uni1EEA" unicode="&#x1eea;" horiz-adv-x="658" 
d="M359 772h-55l-102 142h69zM655 831h48v-45c0 -106 -42 -132 -113 -132h-16v-425c0 -139 -85 -239 -232 -239h-26c-148 0 -232 101 -232 239v471h61v-471c0 -116 66 -181 171 -181h26c108 0 171 69 171 181v471h77c53 0 65 32 65 86v45z" />
    <glyph glyph-name="uni1EEB" unicode="&#x1eeb;" horiz-adv-x="522" 
d="M285 560h-55l-102 142h69zM504 619h48v-45c0 -105 -41 -132 -111 -132v-442h-43l-6 69c-22 -49 -72 -79 -140 -79h-22c-99 0 -159 61 -159 157v341h57v-340c0 -69 40 -104 100 -104h34c75 0 122 54 122 133v311h55c53 0 65 32 65 86v45z" />
    <glyph glyph-name="uni1EEC" unicode="&#x1eec;" horiz-adv-x="658" 
d="M328 893c-29 0 -43 -15 -43 -38h-46c0 47 36 79 89 79s91 -33 91 -82c0 -46 -37 -77 -94 -77v41c31 0 47 14 47 37c0 26 -18 40 -44 40zM655 831h48v-45c0 -106 -42 -132 -113 -132h-16v-425c0 -139 -85 -239 -232 -239h-26c-148 0 -232 101 -232 239v471h61v-471
c0 -116 66 -181 171 -181h26c108 0 171 69 171 181v471h77c53 0 65 32 65 86v45z" />
    <glyph glyph-name="uni1EED" unicode="&#x1eed;" horiz-adv-x="522" 
d="M254 681c-29 0 -43 -15 -43 -38h-46c0 47 36 79 89 79s91 -33 91 -82c0 -46 -37 -77 -94 -77v41c31 0 47 14 47 37c0 26 -18 40 -44 40zM504 619h48v-45c0 -105 -41 -132 -111 -132v-442h-43l-6 69c-22 -49 -72 -79 -140 -79h-22c-99 0 -159 61 -159 157v341h57v-340
c0 -69 40 -104 100 -104h34c75 0 122 54 122 133v311h55c53 0 65 32 65 86v45z" />
    <glyph glyph-name="uni1EEE" unicode="&#x1eee;" horiz-adv-x="658" 
d="M273 851c-21 0 -35 -24 -35 -59h-43c0 60 35 103 80 103c28 0 50 -19 66 -36c17 -16 29 -27 46 -27c22 0 33 21 33 58h43c0 -59 -32 -102 -76 -102c-27 0 -47 15 -69 35c-19 19 -29 28 -45 28zM655 831h48v-45c0 -106 -42 -132 -113 -132h-16v-425
c0 -139 -85 -239 -232 -239h-26c-148 0 -232 101 -232 239v471h61v-471c0 -116 66 -181 171 -181h26c108 0 171 69 171 181v471h77c53 0 65 32 65 86v45z" />
    <glyph glyph-name="uni1EEF" unicode="&#x1eef;" horiz-adv-x="522" 
d="M199 639c-21 0 -35 -24 -35 -59h-43c0 60 35 103 80 103c28 0 50 -19 66 -36c17 -16 29 -27 46 -27c22 0 33 21 33 58h43c0 -59 -32 -102 -76 -102c-27 0 -47 15 -69 35c-19 19 -29 28 -45 28zM504 619h48v-45c0 -105 -41 -132 -111 -132v-442h-43l-6 69
c-22 -49 -72 -79 -140 -79h-22c-99 0 -159 61 -159 157v341h57v-340c0 -69 40 -104 100 -104h34c75 0 122 54 122 133v311h55c53 0 65 32 65 86v45z" />
    <glyph glyph-name="uni1EF0" unicode="&#x1ef0;" horiz-adv-x="658" 
d="M655 831h48v-45c0 -106 -42 -132 -113 -132h-16v-425c0 -139 -85 -239 -232 -239h-26c-148 0 -232 101 -232 239v471h61v-471c0 -116 66 -181 171 -181h26c108 0 171 69 171 181v471h77c53 0 65 32 65 86v45zM296 -141v83h65v-83h-65z" />
    <glyph glyph-name="uni1EF1" unicode="&#x1ef1;" horiz-adv-x="522" 
d="M504 619h48v-45c0 -105 -41 -132 -111 -132v-442h-43l-6 69c-22 -49 -72 -79 -140 -79h-22c-99 0 -159 61 -159 157v341h57v-340c0 -69 40 -104 100 -104h34c75 0 122 54 122 133v311h55c53 0 65 32 65 86v45zM220 -141v83h65v-83h-65z" />
    <glyph glyph-name="Ygrave" unicode="&#x1ef2;" horiz-adv-x="510" 
d="M286 772h-55l-102 142h69zM498 700l-211 -391v-309h-61v306l-214 394h71l121 -232c18 -34 34 -69 51 -106c17 36 33 70 52 105l122 233h69z" />
    <glyph glyph-name="ygrave" unicode="&#x1ef3;" horiz-adv-x="434" 
d="M250 560h-55l-102 142h69zM363 488h63l-216 -587c-26 -70 -69 -95 -131 -95h-28v54h31c42 0 66 22 79 60l30 85l-183 483h63l91 -245c21 -56 40 -109 59 -166c18 57 37 112 56 165z" />
    <glyph glyph-name="uni1EF4" unicode="&#x1ef4;" horiz-adv-x="510" 
d="M226 0v306l-214 394h71l121 -232c18 -34 34 -69 51 -106c17 36 33 70 52 105l122 233h69l-211 -391v-309h-61zM223 -141v83h65v-83h-65z" />
    <glyph glyph-name="uni1EF5" unicode="&#x1ef5;" horiz-adv-x="434" 
d="M363 488h63l-216 -587c-26 -70 -69 -95 -131 -95h-28v54h31c42 0 66 22 79 60l30 85l-183 483h63l91 -245c21 -56 40 -109 59 -166c18 57 37 112 56 165zM287 -141v83h65v-83h-65z" />
    <glyph glyph-name="uni1EF6" unicode="&#x1ef6;" horiz-adv-x="510" 
d="M255 893c-29 0 -43 -15 -43 -38h-46c0 47 36 79 89 79s91 -33 91 -82c0 -46 -37 -77 -94 -77v41c31 0 47 14 47 37c0 26 -18 40 -44 40zM498 700l-211 -391v-309h-61v306l-214 394h71l121 -232c18 -34 34 -69 51 -106c17 36 33 70 52 105l122 233h69z" />
    <glyph glyph-name="uni1EF7" unicode="&#x1ef7;" horiz-adv-x="434" 
d="M219 681c-29 0 -43 -15 -43 -38h-46c0 47 36 79 89 79s91 -33 91 -82c0 -46 -37 -77 -94 -77v41c31 0 47 14 47 37c0 26 -18 40 -44 40zM363 488h63l-216 -587c-26 -70 -69 -95 -131 -95h-28v54h31c42 0 66 22 79 60l30 85l-183 483h63l91 -245c21 -56 40 -109 59 -166
c18 57 37 112 56 165z" />
    <glyph glyph-name="uni1EF8" unicode="&#x1ef8;" horiz-adv-x="510" 
d="M200 851c-21 0 -35 -24 -35 -59h-43c0 60 35 103 80 103c28 0 50 -19 66 -36c17 -16 29 -27 46 -27c22 0 33 21 33 58h43c0 -59 -32 -102 -76 -102c-27 0 -47 15 -69 35c-19 19 -29 28 -45 28zM498 700l-211 -391v-309h-61v306l-214 394h71l121 -232
c18 -34 34 -69 51 -106c17 36 33 70 52 105l122 233h69z" />
    <glyph glyph-name="uni1EF9" unicode="&#x1ef9;" horiz-adv-x="434" 
d="M164 639c-21 0 -35 -24 -35 -59h-43c0 60 35 103 80 103c28 0 50 -19 66 -36c17 -16 29 -27 46 -27c22 0 33 21 33 58h43c0 -59 -32 -102 -76 -102c-27 0 -47 15 -69 35c-19 19 -29 28 -45 28zM363 488h63l-216 -587c-26 -70 -69 -95 -131 -95h-28v54h31
c42 0 66 22 79 60l30 85l-183 483h63l91 -245c21 -56 40 -109 59 -166c18 57 37 112 56 165z" />
    <glyph glyph-name="endash" unicode="&#x2013;" horiz-adv-x="533" 
d="M81 246v57h370v-57h-370z" />
    <glyph glyph-name="emdash" unicode="&#x2014;" horiz-adv-x="836" 
d="M81 246v57h674v-57h-674z" />
    <glyph glyph-name="quoteleft" unicode="&#x2018;" horiz-adv-x="221" 
d="M55 486l68 224h53l-45 -224h-76z" />
    <glyph glyph-name="quoteright" unicode="&#x2019;" horiz-adv-x="221" 
d="M47 486l44 224h76l-67 -224h-53z" />
    <glyph glyph-name="quotesinglbase" unicode="&#x201a;" horiz-adv-x="221" 
d="M42 -122l44 219h76l-65 -219h-55z" />
    <glyph glyph-name="quotedblleft" unicode="&#x201c;" horiz-adv-x="393" 
d="M55 486l68 224h53l-45 -224h-76zM227 486l67 224h53l-44 -224h-76z" />
    <glyph glyph-name="quotedblright" unicode="&#x201d;" horiz-adv-x="393" 
d="M47 486l44 224h76l-67 -224h-53zM218 486l44 224h76l-67 -224h-53z" />
    <glyph glyph-name="quotedblbase" unicode="&#x201e;" horiz-adv-x="393" 
d="M42 -122l44 219h76l-65 -219h-55zM213 -122l45 219h76l-66 -219h-55z" />
    <glyph glyph-name="dagger" unicode="&#x2020;" horiz-adv-x="454" 
d="M416 445v-55h-160v-575h-57v575h-161v55h161v255h57v-255h160z" />
    <glyph glyph-name="daggerdbl" unicode="&#x2021;" horiz-adv-x="496" 
d="M437 390h-160v-265h160v-54h-160v-256h-57v256h-161v54h161v265h-161v55h161v255h57v-255h160v-55z" />
    <glyph glyph-name="bullet" unicode="&#x2022;" horiz-adv-x="421" 
d="M211 203c-67 0 -119 53 -119 119s52 118 119 118c66 0 118 -52 118 -118s-52 -119 -118 -119z" />
    <glyph glyph-name="ellipsis" unicode="&#x2026;" horiz-adv-x="909" 
d="M114 0v97h75v-97h-75zM417 0v97h75v-97h-75zM720 0v97h75v-97h-75z" />
    <glyph glyph-name="perthousand" unicode="&#x2030;" horiz-adv-x="1136" 
d="M170 -10l416 720h49l-416 -720h-49zM189 324c-69 0 -115 45 -115 110v157c0 69 46 115 115 115h35c70 0 116 -46 116 -115v-157c0 -65 -46 -110 -116 -110h-35zM190 368h32c43 0 69 26 69 65v159c0 44 -26 70 -69 70h-32c-42 0 -68 -26 -68 -70v-159c0 -40 26 -65 68 -65
zM586 -6c-70 0 -116 45 -116 110v157c0 69 46 115 116 115h35c69 0 116 -46 116 -115v-157c0 -65 -47 -110 -116 -110h-35zM911 -6c-69 0 -116 45 -116 110v157c0 69 47 115 116 115h35c70 0 116 -46 116 -115v-157c0 -65 -46 -110 -116 -110h-35zM587 38h32
c43 0 69 26 69 65v159c0 44 -26 70 -69 70h-32c-42 0 -68 -26 -68 -70v-159c0 -40 26 -65 68 -65zM912 38h33c42 0 68 26 68 65v159c0 44 -26 70 -68 70h-33c-42 0 -68 -26 -68 -70v-159c0 -39 26 -65 68 -65z" />
    <glyph glyph-name="guilsinglleft" unicode="&#x2039;" horiz-adv-x="344" 
d="M305 479l-194 -206l194 -204h-66l-200 204l200 206h66z" />
    <glyph glyph-name="guilsinglright" unicode="&#x203a;" horiz-adv-x="344" 
d="M105 479l200 -206l-200 -204h-66l193 204l-193 206h66z" />
    <glyph glyph-name="fraction" unicode="&#x2044;" horiz-adv-x="472" 
d="M1 -10l416 720h54l-416 -720h-54z" />
    <glyph glyph-name="Euro" unicode="&#x20ac;" horiz-adv-x="547" 
d="M451 176h62c0 -109 -76 -186 -194 -186h-28c-124 0 -196 88 -196 207v66h-72v52h72v82h-72v52h72v49c0 123 72 212 196 212h28c117 0 193 -79 193 -190h-61c0 83 -55 132 -132 132h-29c-82 0 -133 -59 -133 -154v-49h223v-52h-223v-82h204v-52h-204v-66
c0 -92 51 -149 133 -149h29c77 0 132 49 132 128z" />
    <glyph glyph-name="uni20B9" unicode="&#x20b9;" horiz-adv-x="547" 
d="M516 643h-115c26 -28 42 -65 47 -108h68v-57h-68c-8 -85 -60 -144 -140 -161l168 -317h-71l-161 312h-186v57h201c73 0 120 42 128 109h-329v57h328c-9 68 -57 108 -127 108h-201v57h458v-57z" />
    <glyph glyph-name="uni20BA" unicode="&#x20ba;" horiz-adv-x="547" 
d="M459 177h60c0 -107 -66 -177 -210 -177h-205v239l-98 -49v57l98 50v66l-98 -49v57l98 50v279h61v-249l169 86v-58l-169 -85v-67l169 86v-58l-169 -85v-213h144c90 0 150 33 150 120z" />
    <glyph glyph-name="uni2116" unicode="&#x2116;" horiz-adv-x="1092" 
d="M882 706c85 0 140 -53 140 -136v-97c0 -80 -55 -132 -140 -132h-16c-85 0 -140 52 -140 132v97c0 83 55 136 140 136h16zM532 104v596h60v-700h-62l-367 590v-590h-61v700h61v-2zM961 473v97c0 53 -28 84 -79 84h-16c-51 0 -80 -30 -80 -84v-97c0 -51 29 -80 80 -80h16
c51 0 79 29 79 80zM726 223v52h296v-52h-296z" />
    <glyph glyph-name="trademark" unicode="&#x2122;" horiz-adv-x="768" 
d="M297 700v-37h-105v-320h-42v320h-107v37h254zM345 343v357h40v-357h-40zM525 700l52 -136l-58 -138l-11 -30h-26l-69 168l51 136h31l1 -2l1 2h28zM605 700h41v-357h-41v357z" />
    <glyph glyph-name="uni2150" unicode="&#x2150;" horiz-adv-x="692" 
d="M491 710h54l-416 -720h-54zM88 292v348l-75 -52v54l79 58h46v-408h-50zM444 408h236v-43l-140 -365h-56l144 362h-184v46z" />
    <glyph glyph-name="uni2151" unicode="&#x2151;" horiz-adv-x="736" 
d="M491 710h54l-416 -720h-54zM88 292v348l-75 -52v54l79 58h46v-408h-50zM571 414c73 0 121 -44 121 -109v-196c0 -69 -47 -115 -121 -115h-23c-77 0 -120 49 -120 114h50c0 -42 29 -69 72 -69h18c46 0 73 27 73 72v59c-16 -19 -41 -30 -72 -30h-35c-71 0 -114 46 -114 115
v50c0 65 48 109 120 109h31zM577 185c37 0 64 22 64 57v61c0 42 -27 66 -72 66h-27c-45 0 -72 -26 -72 -66v-47c0 -45 25 -71 70 -71h37z" />
    <glyph glyph-name="uni2152" unicode="&#x2152;" horiz-adv-x="983" 
d="M491 710h54l-416 -720h-54zM88 292v348l-75 -52v54l79 58h46v-408h-50zM820 414c73 0 121 -49 121 -121v-183c0 -69 -48 -116 -121 -116h-36c-73 0 -121 47 -121 116v183c0 72 48 121 121 121h36zM439 350l79 58h46v-408h-50v348l-75 -52v54zM890 110v183
c0 47 -28 76 -72 76h-32c-44 0 -73 -29 -73 -76v-183c0 -44 29 -71 73 -71h32c44 0 72 28 72 71z" />
    <glyph glyph-name="uni2153" unicode="&#x2153;" horiz-adv-x="728" 
d="M491 710h54l-416 -720h-54zM88 292v348l-75 -52v54l79 58h46v-408h-50zM633 213c39 -16 63 -50 63 -94v-15c0 -66 -48 -110 -120 -110h-37c-73 0 -121 44 -121 110h49c0 -39 28 -65 73 -65h33c45 0 73 26 73 66v15c0 43 -30 68 -73 68h-60v44h49c45 0 73 26 73 65v12
c0 39 -28 61 -72 61h-12c-46 0 -73 -25 -73 -61h-49c0 64 51 105 122 105h13c73 0 120 -42 120 -104v-12c0 -39 -19 -69 -51 -85z" />
    <glyph glyph-name="uni2154" unicode="&#x2154;" horiz-adv-x="855" 
d="M618 710h54l-416 -720h-54zM294 337v-45h-263v91c0 61 30 93 109 113c77 21 101 41 101 95c0 49 -27 70 -76 70h-4c-53 0 -76 -23 -76 -65h-49c0 74 50 110 126 110h4c86 0 125 -46 125 -115c0 -81 -41 -112 -135 -138c-39 -11 -74 -23 -74 -70v-46h212zM760 213
c39 -16 63 -50 63 -94v-15c0 -66 -48 -110 -120 -110h-37c-73 0 -121 44 -121 110h49c0 -39 28 -65 73 -65h33c45 0 73 26 73 66v15c0 43 -30 68 -73 68h-60v44h49c45 0 73 26 73 65v12c0 39 -28 61 -72 61h-12c-46 0 -73 -25 -73 -61h-49c0 64 51 105 122 105h13
c73 0 120 -42 120 -104v-12c0 -39 -19 -69 -51 -85z" />
    <glyph glyph-name="uni2155" unicode="&#x2155;" horiz-adv-x="730" 
d="M491 710h54l-416 -720h-54zM88 292v348l-75 -52v54l79 58h46v-408h-50zM582 255c73 0 120 -42 120 -107v-45c0 -64 -47 -109 -120 -109h-22c-72 0 -121 44 -121 111h49c0 -40 29 -66 73 -66h18c45 0 73 26 73 66v41c0 41 -29 64 -74 64h-122v198h223v-45h-175v-108h78z
" />
    <glyph glyph-name="uni2156" unicode="&#x2156;" horiz-adv-x="857" 
d="M618 710h54l-416 -720h-54zM294 337v-45h-263v91c0 61 30 93 109 113c77 21 101 41 101 95c0 49 -27 70 -76 70h-4c-53 0 -76 -23 -76 -65h-49c0 74 50 110 126 110h4c86 0 125 -46 125 -115c0 -81 -41 -112 -135 -138c-39 -11 -74 -23 -74 -70v-46h212zM709 255
c73 0 120 -42 120 -107v-45c0 -64 -47 -109 -120 -109h-22c-72 0 -121 44 -121 111h49c0 -40 29 -66 73 -66h18c45 0 73 26 73 66v41c0 41 -29 64 -74 64h-122v198h223v-45h-175v-108h78z" />
    <glyph glyph-name="uni2157" unicode="&#x2157;" horiz-adv-x="823" 
d="M584 710h54l-416 -720h-54zM295 396c0 -66 -48 -110 -120 -110h-37c-73 0 -121 44 -121 110h49c0 -39 28 -65 73 -65h33c45 0 73 26 73 66v15c0 43 -30 68 -73 68h-60v44h49c45 0 73 26 73 65v12c0 39 -28 61 -72 61h-12c-46 0 -73 -25 -73 -61h-49c0 64 51 105 122 105
h13c73 0 120 -42 120 -104v-12c0 -39 -19 -69 -51 -85c39 -16 63 -50 63 -94v-15zM675 255c73 0 120 -42 120 -107v-45c0 -64 -47 -109 -120 -109h-22c-72 0 -121 44 -121 111h49c0 -40 29 -66 73 -66h18c45 0 73 26 73 66v41c0 41 -29 64 -74 64h-122v198h223v-45h-175
v-108h78z" />
    <glyph glyph-name="uni2158" unicode="&#x2158;" horiz-adv-x="823" 
d="M584 710h54l-416 -720h-54zM186 292v82h-171v40l119 286h53l-115 -281h114v106h49v-106h62v-45h-62v-82h-49zM675 255c73 0 120 -42 120 -107v-45c0 -64 -47 -109 -120 -109h-22c-72 0 -121 44 -121 111h49c0 -40 29 -66 73 -66h18c45 0 73 26 73 66v41
c0 41 -29 64 -74 64h-122v198h223v-45h-175v-108h78z" />
    <glyph glyph-name="uni2159" unicode="&#x2159;" horiz-adv-x="729" 
d="M491 710h54l-416 -720h-54zM88 292v348l-75 -52v54l79 58h46v-408h-50zM581 260c71 0 116 -46 116 -115v-42c0 -65 -48 -109 -121 -109h-30c-74 0 -122 44 -122 109v196c0 69 48 115 121 115h22c73 0 121 -46 121 -115h-49c0 43 -29 70 -73 70h-17c-46 0 -74 -29 -74 -73
v-66c16 19 41 30 72 30h34zM646 105v39c0 45 -25 71 -70 71h-37c-36 0 -64 -21 -64 -57v-53c0 -43 29 -66 73 -66h26c46 0 72 26 72 66z" />
    <glyph glyph-name="uni215A" unicode="&#x215a;" horiz-adv-x="819" 
d="M581 710h54l-416 -720h-54zM296 395c0 -64 -47 -109 -120 -109h-22c-72 0 -121 44 -121 111h49c0 -40 29 -66 73 -66h18c45 0 73 26 73 66v41c0 41 -29 64 -74 64h-122v198h223v-45h-175v-108h78c73 0 120 -42 120 -107v-45zM671 260c71 0 116 -46 116 -115v-42
c0 -65 -48 -109 -121 -109h-30c-74 0 -122 44 -122 109v196c0 69 48 115 121 115h22c73 0 121 -46 121 -115h-49c0 43 -29 70 -73 70h-17c-46 0 -74 -29 -74 -73v-66c16 19 41 30 72 30h34zM736 105v39c0 45 -25 71 -70 71h-37c-36 0 -64 -21 -64 -57v-53
c0 -43 29 -66 73 -66h26c46 0 72 26 72 66z" />
    <glyph glyph-name="oneeighth" unicode="&#x215b;" horiz-adv-x="737" 
d="M491 710h54l-416 -720h-54zM88 292v348l-75 -52v54l79 58h46v-408h-50zM644 216c38 -16 61 -48 61 -90v-23c0 -65 -49 -109 -121 -109h-45c-73 0 -122 44 -122 109v23c0 42 23 74 62 90c-31 17 -50 45 -50 84v11c0 62 49 103 122 103h22c71 0 120 -41 120 -103v-11
c0 -38 -18 -67 -49 -84zM479 309v-10c0 -38 28 -62 73 -62h20c45 0 72 24 72 62v10c0 39 -28 61 -72 61h-20c-47 0 -73 -24 -73 -61zM656 105v21c0 41 -29 66 -74 66h-42c-44 0 -73 -25 -73 -66v-21c0 -40 28 -66 73 -66h42c45 0 74 26 74 66z" />
    <glyph glyph-name="threeeighths" unicode="&#x215c;" horiz-adv-x="830" 
d="M584 710h54l-416 -720h-54zM295 396c0 -66 -48 -110 -120 -110h-37c-73 0 -121 44 -121 110h49c0 -39 28 -65 73 -65h33c45 0 73 26 73 66v15c0 43 -30 68 -73 68h-60v44h49c45 0 73 26 73 65v12c0 39 -28 61 -72 61h-12c-46 0 -73 -25 -73 -61h-49c0 64 51 105 122 105
h13c73 0 120 -42 120 -104v-12c0 -39 -19 -69 -51 -85c39 -16 63 -50 63 -94v-15zM737 216c38 -16 61 -48 61 -90v-23c0 -65 -49 -109 -121 -109h-45c-73 0 -122 44 -122 109v23c0 42 23 74 62 90c-31 17 -50 45 -50 84v11c0 62 49 103 122 103h22c71 0 120 -41 120 -103
v-11c0 -38 -18 -67 -49 -84zM572 309v-10c0 -38 28 -62 73 -62h20c45 0 72 24 72 62v10c0 39 -28 61 -72 61h-20c-47 0 -73 -24 -73 -61zM749 105v21c0 41 -29 66 -74 66h-42c-44 0 -73 -25 -73 -66v-21c0 -40 28 -66 73 -66h42c45 0 74 26 74 66z" />
    <glyph glyph-name="fiveeighths" unicode="&#x215d;" horiz-adv-x="827" 
d="M581 710h54l-416 -720h-54zM296 395c0 -64 -47 -109 -120 -109h-22c-72 0 -121 44 -121 111h49c0 -40 29 -66 73 -66h18c45 0 73 26 73 66v41c0 41 -29 64 -74 64h-122v198h223v-45h-175v-108h78c73 0 120 -42 120 -107v-45zM734 216c38 -16 61 -48 61 -90v-23
c0 -65 -49 -109 -121 -109h-45c-73 0 -122 44 -122 109v23c0 42 23 74 62 90c-31 17 -50 45 -50 84v11c0 62 49 103 122 103h22c71 0 120 -41 120 -103v-11c0 -38 -18 -67 -49 -84zM569 309v-10c0 -38 28 -62 73 -62h20c45 0 72 24 72 62v10c0 39 -28 61 -72 61h-20
c-47 0 -73 -24 -73 -61zM746 105v21c0 41 -29 66 -74 66h-42c-44 0 -73 -25 -73 -66v-21c0 -40 28 -66 73 -66h42c45 0 74 26 74 66z" />
    <glyph glyph-name="seveneighths" unicode="&#x215e;" horiz-adv-x="719" 
d="M473 710h54l-416 -720h-54zM104 292h-56l144 362h-184v46h236v-43zM626 216c38 -16 61 -48 61 -90v-23c0 -65 -49 -109 -121 -109h-45c-73 0 -122 44 -122 109v23c0 42 23 74 62 90c-31 17 -50 45 -50 84v11c0 62 49 103 122 103h22c71 0 120 -41 120 -103v-11
c0 -38 -18 -67 -49 -84zM461 309v-10c0 -38 28 -62 73 -62h20c45 0 72 24 72 62v10c0 39 -28 61 -72 61h-20c-47 0 -73 -24 -73 -61zM638 105v21c0 41 -29 66 -74 66h-42c-44 0 -73 -25 -73 -66v-21c0 -40 28 -66 73 -66h42c45 0 74 26 74 66z" />
    <glyph glyph-name="uni215F" unicode="&#x215f;" horiz-adv-x="546" 
d="M491 710h54l-416 -720h-54zM88 292v348l-75 -52v54l79 58h46v-408h-50z" />
    <glyph glyph-name="arrowleft" unicode="&#x2190;" horiz-adv-x="541" 
d="M529 382v-55h-410l164 -164l-39 -39l-231 231l231 231l39 -39l-165 -165h411z" />
    <glyph glyph-name="arrowup" unicode="&#x2191;" horiz-adv-x="541" 
d="M502 479l-39 -39l-164 164v-604h-55v605l-165 -165l-39 39l231 231z" />
    <glyph glyph-name="arrowright" unicode="&#x2192;" horiz-adv-x="541" 
d="M298 586l231 -231l-231 -231l-39 39l164 164h-410v55h411l-165 165z" />
    <glyph glyph-name="arrowdown" unicode="&#x2193;" horiz-adv-x="541" 
d="M463 260l39 -39l-231 -231l-231 231l39 39l165 -165v605h55v-604z" />
    <glyph glyph-name="arrowboth" unicode="&#x2194;" horiz-adv-x="750" 
d="M504 581l231 -231l-231 -231l-39 39l164 164h-508l164 -164l-39 -39l-231 231l231 231l39 -39l-165 -165h510l-165 165z" />
    <glyph glyph-name="arrowupdn" unicode="&#x2195;" horiz-adv-x="541" 
d="M299 96l164 164l39 -39l-231 -231l-231 231l39 39l165 -165v510l-165 -165l-39 39l231 231l231 -231l-39 -39l-164 164v-508z" />
    <glyph glyph-name="uni2196" unicode="&#x2196;" horiz-adv-x="541" 
d="M511 258l-40 -39l-386 386v-232h-55v327h327v-55h-233z" />
    <glyph glyph-name="uni2197" unicode="&#x2197;" horiz-adv-x="541" 
d="M184 700h327v-327h-55v232l-386 -386l-40 39l387 387h-233v55z" />
    <glyph glyph-name="uni2198" unicode="&#x2198;" horiz-adv-x="541" 
d="M456 327h55v-327h-327v55h233l-387 387l40 39l386 -386v232z" />
    <glyph glyph-name="uni2199" unicode="&#x2199;" horiz-adv-x="541" 
d="M511 442l-387 -387h233v-55h-327v327h55v-232l386 386z" />
    <glyph glyph-name="minus" unicode="&#x2212;" horiz-adv-x="541" 
d="M62 257v55h417v-55h-417z" />
    <glyph glyph-name="approxequal" unicode="&#x2248;" horiz-adv-x="541" 
d="M369 314c-39 0 -70 15 -108 39c-35 22 -52 30 -80 30c-44 0 -69 -23 -69 -67h-53c0 75 53 120 125 120c37 0 63 -11 105 -40c19 -12 48 -31 80 -31c40 0 60 26 60 67h52c0 -72 -46 -118 -112 -118zM369 128c-39 0 -70 16 -108 39c-35 23 -52 31 -80 31
c-44 0 -69 -24 -69 -67h-53c0 74 53 119 125 119c37 0 63 -11 105 -39c19 -12 48 -32 80 -32c40 0 60 27 60 67h52c0 -71 -46 -118 -112 -118z" />
    <glyph glyph-name="notequal" unicode="&#x2260;" horiz-adv-x="541" 
d="M479 359h-144l-75 -145h219v-55h-247l-59 -114h-55l59 114h-115v55h143l75 145h-218v55h247l58 113h55l-58 -113h115v-55z" />
    <glyph glyph-name="lessequal" unicode="&#x2264;" horiz-adv-x="541" 
d="M478 510v-60l-339 -128l339 -128v-60l-415 162v51zM63 0v55h415v-55h-415z" />
    <glyph glyph-name="greaterequal" unicode="&#x2265;" horiz-adv-x="541" 
d="M63 510l415 -163v-51l-415 -162v60l339 128l-339 128v60zM63 0v55h415v-55h-415z" />
    <glyph glyph-name="uni2460" unicode="&#x2460;" 
d="M380 710c216 0 360 -144 360 -360s-144 -360 -360 -360s-360 144 -360 360s144 360 360 360zM380 38c187 0 309 124 309 312s-122 312 -309 312s-309 -124 -309 -312s122 -312 309 -312zM281 495l80 58h46v-408h-51v349l-75 -52v53z" />
    <glyph glyph-name="uni2461" unicode="&#x2461;" 
d="M380 710c216 0 360 -144 360 -360s-144 -360 -360 -360s-360 144 -360 360s144 360 360 360zM380 38c187 0 309 124 309 312s-122 312 -309 312s-309 -124 -309 -312s122 -312 309 -312zM296 244v-45h212v-46h-263v92c0 61 30 92 109 113c77 20 101 41 101 95
c0 48 -27 70 -76 70h-4c-53 0 -76 -24 -76 -66h-49c0 75 50 110 126 110h4c86 0 125 -46 125 -115c0 -80 -41 -112 -135 -138c-39 -11 -74 -23 -74 -70z" />
    <glyph glyph-name="uni2462" unicode="&#x2462;" 
d="M380 710c216 0 360 -144 360 -360s-144 -360 -360 -360s-360 144 -360 360s144 360 360 360zM380 38c187 0 309 124 309 312s-122 312 -309 312s-309 -124 -309 -312s122 -312 309 -312zM449 361c40 -15 64 -49 64 -93v-16c0 -66 -49 -110 -121 -110h-36
c-74 0 -121 44 -121 111h49c0 -40 28 -65 72 -65h34c45 0 73 25 73 65v16c0 42 -30 67 -74 67h-59v45h49c45 0 72 25 72 64v12c0 39 -28 62 -72 62h-12c-45 0 -72 -25 -72 -62h-49c0 64 50 105 121 105h13c73 0 121 -41 121 -103v-12c0 -39 -19 -69 -52 -86z" />
    <glyph glyph-name="uni2463" unicode="&#x2463;" 
d="M380 710c216 0 360 -144 360 -360s-144 -360 -360 -360s-360 144 -360 360s144 360 360 360zM380 38c187 0 309 124 309 312s-122 312 -309 312s-309 -124 -309 -312s122 -312 309 -312zM439 395v-106h62v-46h-62v-82h-49v82h-171v40l119 286h53l-115 -280h114v106h49z
" />
    <glyph glyph-name="uni2464" unicode="&#x2464;" 
d="M380 710c216 0 360 -144 360 -360s-144 -360 -360 -360s-360 144 -360 360s144 360 360 360zM380 38c187 0 309 124 309 312s-122 312 -309 312s-309 -124 -309 -312s122 -312 309 -312zM386 402c73 0 121 -42 121 -107v-45c0 -65 -48 -110 -121 -110h-22
c-72 0 -120 44 -120 111h49c0 -39 28 -65 72 -65h19c45 0 72 26 72 65v42c0 40 -29 63 -73 63h-123v198h223v-45h-174v-107h77z" />
    <glyph glyph-name="uni2465" unicode="&#x2465;" 
d="M380 710c216 0 360 -144 360 -360s-144 -360 -360 -360s-360 144 -360 360s144 360 360 360zM380 38c187 0 309 124 309 312s-122 312 -309 312s-309 -124 -309 -312s122 -312 309 -312zM396 406c71 0 116 -46 116 -115v-42c0 -65 -48 -109 -121 -109h-30
c-74 0 -122 44 -122 109v196c0 69 48 115 121 115h23c72 0 120 -46 120 -115h-49c0 43 -29 70 -73 70h-17c-46 0 -74 -29 -74 -73v-66c16 19 41 30 72 30h34zM462 251v39c0 45 -26 71 -70 71h-38c-36 0 -64 -21 -64 -57v-53c0 -43 29 -66 73 -66h26c46 0 73 26 73 66z" />
    <glyph glyph-name="uni2466" unicode="&#x2466;" 
d="M380 710c216 0 360 -144 360 -360s-144 -360 -360 -360s-360 144 -360 360s144 360 360 360zM380 38c187 0 309 124 309 312s-122 312 -309 312s-309 -124 -309 -312s122 -312 309 -312zM264 494v46h236v-43l-140 -365h-56l144 362h-184z" />
    <glyph glyph-name="uni2467" unicode="&#x2467;" 
d="M380 710c216 0 360 -144 360 -360s-144 -360 -360 -360s-360 144 -360 360s144 360 360 360zM380 38c187 0 309 124 309 312s-122 312 -309 312s-309 -124 -309 -312s122 -312 309 -312zM459 362c39 -16 62 -48 62 -90v-23c0 -65 -50 -109 -122 -109h-45
c-72 0 -122 44 -122 109v23c0 42 23 74 62 90c-31 17 -50 45 -50 84v11c0 62 49 103 122 103h22c71 0 120 -41 120 -103v-11c0 -38 -18 -67 -49 -84zM294 455v-10c0 -38 28 -62 73 -62h20c45 0 72 24 72 62v10c0 39 -28 61 -72 61h-20c-46 0 -73 -24 -73 -61zM471 251v21
c0 41 -29 66 -73 66h-43c-44 0 -73 -25 -73 -66v-21c0 -40 28 -66 73 -66h43c44 0 73 26 73 66z" />
    <glyph glyph-name="uni2468" unicode="&#x2468;" 
d="M380 710c216 0 360 -144 360 -360s-144 -360 -360 -360s-360 144 -360 360s144 360 360 360zM380 38c187 0 309 124 309 312s-122 312 -309 312s-309 -124 -309 -312s122 -312 309 -312zM389 560c73 0 121 -44 121 -109v-196c0 -69 -47 -115 -121 -115h-23
c-77 0 -120 49 -120 114h50c0 -42 29 -69 72 -69h18c46 0 73 27 73 72v59c-16 -19 -41 -30 -72 -30h-35c-71 0 -114 46 -114 115v50c0 65 48 109 120 109h31zM395 331c37 0 64 22 64 57v61c0 42 -27 66 -72 66h-27c-45 0 -72 -26 -72 -66v-47c0 -45 25 -71 70 -71h37z" />
    <glyph glyph-name="uni24B6" unicode="&#x24b6;" 
d="M380 710c216 0 360 -144 360 -360s-144 -360 -360 -360s-360 144 -360 360s144 360 360 360zM380 38c187 0 309 124 309 312s-122 312 -309 312s-309 -124 -309 -312s122 -312 309 -312zM406 579l143 -406h-54l-33 97h-165l-33 -97h-55l145 406h52zM312 314h136l-68 201z
" />
    <glyph glyph-name="uni24B7" unicode="&#x24b7;" 
d="M380 710c216 0 360 -144 360 -360s-144 -360 -360 -360s-360 144 -360 360s144 360 360 360zM380 38c187 0 309 124 309 312s-122 312 -309 312s-309 -124 -309 -312s122 -312 309 -312zM477 369c38 -12 59 -50 59 -93v-15c0 -64 -43 -105 -107 -105h-174v406h158
c64 0 107 -39 107 -101v-14c0 -34 -16 -64 -43 -78zM401 520h-94v-135h110c29 0 51 25 51 59v12c0 41 -26 64 -67 64zM483 265v14c0 40 -23 66 -61 66h-115v-146h108c43 0 68 25 68 66z" />
    <glyph glyph-name="uni24B8" unicode="&#x24b8;" 
d="M380 -10c-216 0 -360 144 -360 360s144 360 360 360s360 -144 360 -360s-144 -360 -360 -360zM380 38c187 0 309 124 309 312s-122 312 -309 312s-309 -124 -309 -312s122 -312 309 -312zM363 143c-86 0 -134 58 -134 137v144c0 78 48 137 134 137h23
c80 0 128 -47 128 -117h-53c0 47 -33 69 -77 69h-18c-54 0 -83 -36 -83 -95v-133c0 -61 30 -93 83 -93h18c47 0 78 25 78 69h53c0 -70 -49 -118 -129 -118h-23z" />
    <glyph glyph-name="uni24B9" unicode="&#x24b9;" 
d="M380 710c216 0 360 -144 360 -360s-144 -360 -360 -360s-360 144 -360 360s144 360 360 360zM380 38c187 0 309 124 309 312s-122 312 -309 312s-309 -124 -309 -312s122 -312 309 -312zM397 562c91 0 142 -58 142 -140v-127c0 -80 -51 -139 -142 -139h-143v406h143z
M486 301v115c0 62 -34 99 -90 99h-90v-311h90c57 0 90 37 90 97z" />
    <glyph glyph-name="uni24BA" unicode="&#x24ba;" 
d="M380 710c216 0 360 -144 360 -360s-144 -360 -360 -360s-360 144 -360 360s144 360 360 360zM380 38c187 0 309 124 309 312s-122 312 -309 312s-309 -124 -309 -312s122 -312 309 -312zM505 562v-46h-200v-131h172v-46h-172v-137h200v-46h-252v406h252z" />
    <glyph glyph-name="uni24BB" unicode="&#x24bb;" 
d="M380 710c216 0 360 -144 360 -360s-144 -360 -360 -360s-360 144 -360 360s144 360 360 360zM380 38c187 0 309 124 309 312s-122 312 -309 312s-309 -124 -309 -312s122 -312 309 -312zM507 562v-46h-191v-139h163v-45h-163v-176h-52v406h243z" />
    <glyph glyph-name="uni24BC" unicode="&#x24bc;" 
d="M380 710c216 0 360 -144 360 -360s-144 -360 -360 -360s-360 144 -360 360s144 360 360 360zM380 38c187 0 309 124 309 312s-122 312 -309 312s-309 -124 -309 -312s122 -312 309 -312zM381 324v38h141v-77c0 -91 -51 -140 -130 -140h-36c-86 0 -134 56 -134 140v135
c0 91 57 143 142 143h31c73 0 122 -46 122 -115h-54c0 42 -27 67 -69 67h-28c-61 0 -91 -41 -91 -101v-123c0 -66 34 -98 84 -98h34c54 0 78 36 78 92v39h-90z" />
    <glyph glyph-name="uni24BD" unicode="&#x24bd;" 
d="M380 710c216 0 360 -144 360 -360s-144 -360 -360 -360s-360 144 -360 360s144 360 360 360zM380 38c187 0 309 124 309 312s-122 312 -309 312s-309 -124 -309 -312s122 -312 309 -312zM477 384v178h52v-406h-52v180h-193v-180h-53v406h53v-178h193z" />
    <glyph glyph-name="uni24BE" unicode="&#x24be;" 
d="M380 -10c-216 0 -360 144 -360 360s144 360 360 360s360 -144 360 -360s-144 -360 -360 -360zM380 38c187 0 309 124 309 312s-122 312 -309 312s-309 -124 -309 -312s122 -312 309 -312zM354 156v406h52v-406h-52z" />
    <glyph glyph-name="uni24BF" unicode="&#x24bf;" 
d="M380 -10c-216 0 -360 144 -360 360s144 360 360 360s360 -144 360 -360s-144 -360 -360 -360zM380 38c187 0 309 124 309 312s-122 312 -309 312s-309 -124 -309 -312s122 -312 309 -312zM274 150v48h66c51 0 74 37 74 94v270h52v-279c0 -84 -47 -133 -117 -133h-75z" />
    <glyph glyph-name="uni24C0" unicode="&#x24c0;" 
d="M380 710c216 0 360 -144 360 -360s-144 -360 -360 -360s-360 144 -360 360s144 360 360 360zM380 38c187 0 309 124 309 312s-122 312 -309 312s-309 -124 -309 -312s122 -312 309 -312zM533 562l-135 -161l145 -245h-60l-118 206l-72 -85v-121h-53v406h53v-218l179 218
h61z" />
    <glyph glyph-name="uni24C1" unicode="&#x24c1;" 
d="M380 710c216 0 360 -144 360 -360s-144 -360 -360 -360s-360 144 -360 360s144 360 360 360zM380 38c187 0 309 124 309 312s-122 312 -309 312s-309 -124 -309 -312s122 -312 309 -312zM318 562v-360h191v-46h-244v406h53z" />
    <glyph glyph-name="uni24C2" unicode="&#x24c2;" 
d="M380 710c216 0 360 -144 360 -360s-144 -360 -360 -360s-360 144 -360 360s144 360 360 360zM380 38c187 0 309 124 309 312s-122 312 -309 312s-309 -124 -309 -312s122 -312 309 -312zM555 562v-406h-50v308l-109 -247h-32l-108 245v-306h-50v406h52l123 -282l122 282
h52z" />
    <glyph glyph-name="uni24C3" unicode="&#x24c3;" 
d="M380 710c216 0 360 -144 360 -360s-144 -360 -360 -360s-360 144 -360 360s144 360 360 360zM380 38c187 0 309 124 309 312s-122 312 -309 312s-309 -124 -309 -312s122 -312 309 -312zM472 235v327h49v-406h-50l-193 324v-324h-50v406h51z" />
    <glyph glyph-name="uni24C4" unicode="&#x24c4;" 
d="M380 -10c-216 0 -360 144 -360 360s144 360 360 360s360 -144 360 -360s-144 -360 -360 -360zM380 38c187 0 309 124 309 312s-122 312 -309 312s-309 -124 -309 -312s122 -312 309 -312zM367 143c-91 0 -142 60 -142 139v139c0 81 52 140 142 140h26
c92 0 142 -59 142 -140v-139c0 -80 -51 -139 -142 -139h-26zM370 192h21c58 0 91 36 91 96v127c0 63 -34 98 -91 98h-21c-58 0 -91 -37 -91 -98v-127c0 -62 34 -96 91 -96z" />
    <glyph glyph-name="uni24C5" unicode="&#x24c5;" 
d="M380 710c216 0 360 -144 360 -360s-144 -360 -360 -360s-360 144 -360 360s144 360 360 360zM380 38c187 0 309 124 309 312s-122 312 -309 312s-309 -124 -309 -312s122 -312 309 -312zM429 562c68 0 114 -46 114 -114v-15c0 -67 -46 -113 -114 -113h-111v-164h-53v406
h164zM490 434v14c0 42 -27 69 -69 69h-103v-152h103c42 0 69 27 69 69z" />
    <glyph glyph-name="uni24C6" unicode="&#x24c6;" 
d="M380 710c216 0 360 -144 360 -360s-144 -360 -360 -360s-360 144 -360 360s144 360 360 360zM380 38c187 0 309 124 309 312s-122 312 -309 312s-309 -124 -309 -312s122 -312 309 -312zM532 285c0 -43 -14 -79 -42 -104l44 -53l-29 -23l-46 55c-19 -9 -42 -14 -69 -14
h-26c-91 0 -142 60 -142 139v139c0 81 52 140 142 140h26c91 0 142 -59 142 -140v-139zM389 194c14 0 26 2 37 6l-49 59l29 23l50 -61c15 17 23 41 23 70v127c0 63 -34 98 -90 98h-22c-58 0 -91 -37 -91 -98v-127c0 -62 34 -97 91 -97h22z" />
    <glyph glyph-name="uni24C7" unicode="&#x24c7;" 
d="M380 710c216 0 360 -144 360 -360s-144 -360 -360 -360s-360 144 -360 360s144 360 360 360zM380 38c187 0 309 124 309 312s-122 312 -309 312s-309 -124 -309 -312s122 -312 309 -312zM523 442c0 -56 -30 -97 -79 -110l91 -176h-59l-86 172h-92v-172h-52v406h163
c68 0 114 -45 114 -113v-7zM298 517v-144h104c43 0 68 27 68 69v5c0 44 -27 70 -68 70h-104z" />
    <glyph glyph-name="uni24C8" unicode="&#x24c8;" 
d="M380 -10c-216 0 -360 144 -360 360s144 360 360 360s360 -144 360 -360s-144 -360 -360 -360zM380 38c187 0 309 124 309 312s-122 312 -309 312s-309 -124 -309 -312s122 -312 309 -312zM363 143c-88 0 -128 44 -128 108h53c0 -45 31 -62 75 -62h24c55 0 78 30 78 74
c0 46 -34 57 -81 68c-89 19 -143 40 -143 118c0 73 48 112 122 112h21c82 0 121 -43 121 -107h-52c0 45 -30 62 -71 62h-18c-51 0 -71 -28 -71 -65c0 -50 41 -59 100 -72c94 -20 124 -53 124 -114c0 -84 -52 -122 -130 -122h-24z" />
    <glyph glyph-name="uni24C9" unicode="&#x24c9;" 
d="M380 710c216 0 360 -144 360 -360s-144 -360 -360 -360s-360 144 -360 360s144 360 360 360zM380 38c187 0 309 124 309 312s-122 312 -309 312s-309 -124 -309 -312s122 -312 309 -312zM526 545v-47h-120v-359h-52v359h-120v47h292z" />
    <glyph glyph-name="uni24CA" unicode="&#x24ca;" 
d="M380 -10c-216 0 -360 144 -360 360s144 360 360 360s360 -144 360 -360s-144 -360 -360 -360zM380 38c187 0 309 124 309 312s-122 312 -309 312s-309 -124 -309 -312s122 -312 309 -312zM373 138c-90 0 -139 60 -139 139v273h52v-269c0 -60 33 -94 87 -94h15
c55 0 87 35 87 94v269h53v-273c0 -79 -51 -139 -140 -139h-15z" />
    <glyph glyph-name="uni24CB" unicode="&#x24cb;" 
d="M380 710c216 0 360 -144 360 -360s-144 -360 -360 -360s-360 144 -360 360s144 360 360 360zM380 38c187 0 309 124 309 312s-122 312 -309 312s-309 -124 -309 -312s122 -312 309 -312zM380 216l108 333h54l-136 -406h-51l-137 406h56z" />
    <glyph glyph-name="uni24CC" unicode="&#x24cc;" 
d="M380 710c216 0 360 -144 360 -360s-144 -360 -360 -360s-360 144 -360 360s144 360 360 360zM380 38c187 0 309 124 309 312s-122 312 -309 312s-309 -124 -309 -312s122 -312 309 -312zM556 530h54l-102 -395h-42l-84 310l-85 -310h-42l-102 395h53l71 -316l85 316h39
l85 -314z" />
    <glyph glyph-name="uni24CD" unicode="&#x24cd;" 
d="M380 710c216 0 360 -144 360 -360s-144 -360 -360 -360s-360 144 -360 360s144 360 360 360zM380 38c187 0 309 124 309 312s-122 312 -309 312s-309 -124 -309 -312s122 -312 309 -312zM528 557l-119 -197l126 -209h-59l-97 165l-96 -165h-58l126 210l-119 196h58
l90 -152l90 152h58z" />
    <glyph glyph-name="uni24CE" unicode="&#x24ce;" 
d="M380 710c216 0 360 -144 360 -360s-144 -360 -360 -360s-360 144 -360 360s144 360 360 360zM380 38c187 0 309 124 309 312s-122 312 -309 312s-309 -124 -309 -312s122 -312 309 -312zM474 544h56l-124 -232v-174h-52v173l-125 233h57l94 -184z" />
    <glyph glyph-name="uni24CF" unicode="&#x24cf;" 
d="M380 710c216 0 360 -144 360 -360s-144 -360 -360 -360s-360 144 -360 360s144 360 360 360zM380 38c187 0 309 124 309 312s-122 312 -309 312s-309 -124 -309 -312s122 -312 309 -312zM501 515l-202 -311h207v-48h-266v47l202 312h-185v47h244v-47z" />
    <glyph glyph-name="uni24EA" unicode="&#x24ea;" 
d="M380 -10c-216 0 -360 144 -360 360s144 360 360 360s360 -144 360 -360s-144 -360 -360 -360zM380 38c187 0 309 124 309 312s-122 312 -309 312s-309 -124 -309 -312s122 -312 309 -312zM395 560c72 0 120 -49 120 -121v-183c0 -69 -48 -116 -120 -116h-37
c-73 0 -121 47 -121 116v183c0 72 48 121 121 121h37zM392 515h-32c-44 0 -72 -29 -72 -76v-183c0 -44 28 -71 72 -71h32c45 0 72 28 72 71v183c0 47 -28 76 -72 76z" />
    <glyph glyph-name="uni24FF" unicode="&#x24ff;" 
d="M380 -10c-216 0 -360 144 -360 360s144 360 360 360s360 -144 360 -360s-144 -360 -360 -360zM358 140h37c72 0 120 47 120 116v183c0 72 -48 121 -120 121h-37c-73 0 -121 -49 -121 -121v-183c0 -69 48 -116 121 -116zM360 185c-44 0 -72 27 -72 71v183
c0 47 28 76 72 76h32c44 0 72 -29 72 -76v-183c0 -43 -27 -71 -72 -71h-32z" />
    <glyph glyph-name="uni2573" unicode="&#x2573;" horiz-adv-x="570" 
d="M526 570l-216 -216l216 -217l-25 -25l-216 217l-217 -217l-26 25l217 217l-216 216l25 25l216 -216l217 217z" />
    <glyph glyph-name="uni25FB" unicode="&#x25fb;" horiz-adv-x="570" 
d="M47 590h476v-476h-476v476zM81 557v-410h408v410h-408z" />
    <glyph glyph-name="uni26AC" unicode="&#x26ac;" horiz-adv-x="570" 
d="M285 112c-144 0 -240 96 -240 240s96 240 240 240s240 -96 240 -240s-96 -240 -240 -240zM285 148c122 0 203 81 203 204c0 124 -81 205 -203 205s-203 -81 -203 -205c0 -123 81 -204 203 -204z" />
    <glyph glyph-name="uni2776" unicode="&#x2776;" 
d="M380 -10c-216 0 -360 144 -360 360s144 360 360 360s360 -144 360 -360s-144 -360 -360 -360zM356 145h51v408h-46l-80 -58v-53l75 52v-349z" />
    <glyph glyph-name="uni2777" unicode="&#x2777;" 
d="M380 -10c-216 0 -360 144 -360 360s144 360 360 360s360 -144 360 -360s-144 -360 -360 -360zM245 153h263v46h-212v45c0 47 35 59 74 70c94 26 135 58 135 138c0 69 -39 115 -125 115h-4c-76 0 -126 -35 -126 -110h49c0 42 23 66 76 66h4c49 0 76 -22 76 -70
c0 -54 -24 -75 -101 -95c-79 -21 -109 -52 -109 -113v-92z" />
    <glyph glyph-name="uni2778" unicode="&#x2778;" 
d="M380 -10c-216 0 -360 144 -360 360s144 360 360 360s360 -144 360 -360s-144 -360 -360 -360zM356 142h36c72 0 121 44 121 110v16c0 44 -24 77 -65 93c33 17 53 46 53 86v12c0 62 -48 103 -121 103h-13c-71 0 -121 -41 -121 -105h49c0 37 27 62 72 62h12
c44 0 72 -23 72 -62v-12c0 -39 -27 -64 -72 -64h-49v-45h59c44 0 74 -25 74 -67v-16c0 -40 -28 -65 -73 -65h-34c-44 0 -72 25 -72 65h-49c0 -67 47 -111 121 -111z" />
    <glyph glyph-name="uni2779" unicode="&#x2779;" 
d="M380 -10c-216 0 -360 144 -360 360s144 360 360 360s360 -144 360 -360s-144 -360 -360 -360zM390 161h49v82h62v46h-62v106h-49v-106h-114l115 280h-53l-119 -286v-40h171v-82z" />
    <glyph glyph-name="uni277A" unicode="&#x277a;" 
d="M380 -10c-216 0 -360 144 -360 360s144 360 360 360s360 -144 360 -360s-144 -360 -360 -360zM364 140h22c73 0 121 45 121 110v45c0 65 -48 107 -121 107h-77v107h174v45h-223v-198h123c44 0 73 -23 73 -63v-42c0 -39 -27 -65 -72 -65h-19c-44 0 -72 26 -72 65h-49
c0 -67 48 -111 120 -111z" />
    <glyph glyph-name="uni277B" unicode="&#x277b;" 
d="M380 -10c-216 0 -360 144 -360 360s144 360 360 360s360 -144 360 -360s-144 -360 -360 -360zM361 140h30c73 0 121 44 121 109v42c0 69 -45 115 -116 115h-34c-31 0 -56 -12 -72 -31v67c0 44 28 73 74 73h17c44 0 73 -27 73 -70h49c0 69 -48 115 -120 115h-23
c-73 0 -121 -46 -121 -115v-196c0 -65 48 -109 122 -109zM363 185c-44 0 -73 23 -73 66v53c0 36 28 57 64 57h38c44 0 70 -26 70 -71v-39c0 -40 -27 -66 -73 -66h-26z" />
    <glyph glyph-name="uni277C" unicode="&#x277c;" 
d="M380 -10c-216 0 -360 144 -360 360s144 360 360 360s360 -144 360 -360s-144 -360 -360 -360zM304 132h56l140 365v43h-236v-46h184z" />
    <glyph glyph-name="uni277D" unicode="&#x277d;" 
d="M380 -10c-216 0 -360 144 -360 360s144 360 360 360s360 -144 360 -360s-144 -360 -360 -360zM354 140h45c72 0 122 44 122 109v23c0 42 -23 74 -62 90c30 17 49 46 49 84v11c0 62 -49 103 -120 103h-22c-73 0 -122 -41 -122 -103v-11c0 -39 19 -67 50 -84
c-39 -16 -62 -48 -62 -90v-23c0 -65 50 -109 122 -109zM367 383c-45 0 -73 24 -73 62v10c0 37 27 61 73 61h20c44 0 72 -22 72 -61v-10c0 -38 -27 -62 -72 -62h-20zM355 185c-45 0 -73 26 -73 66v21c0 41 29 66 73 66h43c44 0 73 -25 73 -66v-21c0 -40 -29 -66 -73 -66h-43z
" />
    <glyph glyph-name="uni277E" unicode="&#x277e;" 
d="M380 -10c-216 0 -360 144 -360 360s144 360 360 360s360 -144 360 -360s-144 -360 -360 -360zM366 140h23c74 0 121 46 121 115v196c0 65 -48 109 -121 109h-31c-72 0 -120 -44 -120 -109v-50c0 -69 43 -115 114 -115h35c31 0 56 12 72 31v-60c0 -45 -27 -72 -73 -72h-18
c-43 0 -72 27 -72 69h-50c0 -65 43 -114 120 -114zM358 331c-45 0 -70 26 -70 71v47c0 40 27 66 72 66h27c45 0 72 -24 72 -66v-61c0 -35 -27 -57 -64 -57h-37z" />
    <glyph glyph-name="uni2B26" unicode="&#x2b26;" horiz-adv-x="604" 
d="M302 593l277 -480h-555zM521 146l-219 380l-220 -380h439z" />
    <glyph glyph-name="u1F150" unicode="&#x1f150;" 
d="M380 -10c-216 0 -360 144 -360 360s144 360 360 360s360 -144 360 -360s-144 -360 -360 -360zM209 173h55l33 97h166l32 -97h54l-143 406h-52zM312 314l68 201l68 -201h-136z" />
    <glyph glyph-name="u1F151" unicode="&#x1f151;" 
d="M380 -10c-216 0 -360 144 -360 360s144 360 360 360s360 -144 360 -360s-144 -360 -360 -360zM255 156h174c64 0 107 41 107 105v15c0 44 -22 82 -61 92c28 14 45 45 45 79v14c0 62 -43 101 -107 101h-158v-406zM307 385v135h94c41 0 67 -23 67 -64v-12
c0 -34 -22 -59 -51 -59h-110zM307 199v146h115c38 0 61 -26 61 -66v-14c0 -41 -25 -66 -68 -66h-108z" />
    <glyph glyph-name="u1F152" unicode="&#x1f152;" 
d="M380 -10c-216 0 -360 144 -360 360s144 360 360 360s360 -144 360 -360s-144 -360 -360 -360zM363 143h23c80 0 129 48 129 118h-53c0 -44 -31 -69 -78 -69h-18c-53 0 -83 32 -83 93v133c0 59 29 95 83 95h18c44 0 77 -22 77 -69h53c0 70 -48 117 -128 117h-23
c-86 0 -134 -59 -134 -137v-144c0 -79 48 -137 134 -137z" />
    <glyph glyph-name="u1F153" unicode="&#x1f153;" 
d="M380 -10c-216 0 -360 144 -360 360s144 360 360 360s360 -144 360 -360s-144 -360 -360 -360zM254 156h143c91 0 142 59 142 139v127c0 82 -51 140 -142 140h-143v-406zM306 204v311h90c56 0 90 -37 90 -99v-115c0 -60 -33 -97 -90 -97h-90z" />
    <glyph glyph-name="u1F154" unicode="&#x1f154;" 
d="M380 -10c-216 0 -360 144 -360 360s144 360 360 360s360 -144 360 -360s-144 -360 -360 -360zM253 156h252v46h-200v137h172v46h-172v131h200v46h-252v-406z" />
    <glyph glyph-name="u1F155" unicode="&#x1f155;" 
d="M380 -10c-216 0 -360 144 -360 360s144 360 360 360s360 -144 360 -360s-144 -360 -360 -360zM264 156h52v176h163v45h-163v139h191v46h-243v-406z" />
    <glyph glyph-name="u1F156" unicode="&#x1f156;" 
d="M380 -10c-216 0 -360 144 -360 360s144 360 360 360s360 -144 360 -360s-144 -360 -360 -360zM356 145h36c79 0 130 49 130 140v77h-141v-38h90v-39c0 -56 -24 -92 -78 -92h-34c-50 0 -84 32 -84 98v123c0 60 30 101 91 101h28c42 0 69 -25 69 -67h54
c0 69 -49 115 -122 115h-31c-85 0 -142 -52 -142 -143v-135c0 -84 48 -140 134 -140z" />
    <glyph glyph-name="u1F157" unicode="&#x1f157;" 
d="M380 -10c-216 0 -360 144 -360 360s144 360 360 360s360 -144 360 -360s-144 -360 -360 -360zM231 156h53v180h193v-180h52v406h-52v-178h-193v178h-53v-406z" />
    <glyph glyph-name="u1F158" unicode="&#x1f158;" 
d="M380 -10c-216 0 -360 144 -360 360s144 360 360 360s360 -144 360 -360s-144 -360 -360 -360zM354 156h52v406h-52v-406z" />
    <glyph glyph-name="u1F159" unicode="&#x1f159;" 
d="M380 -10c-216 0 -360 144 -360 360s144 360 360 360s360 -144 360 -360s-144 -360 -360 -360zM274 150h75c70 0 117 49 117 133v279h-52v-270c0 -57 -23 -94 -74 -94h-66v-48z" />
    <glyph glyph-name="u1F15A" unicode="&#x1f15a;" 
d="M380 -10c-216 0 -360 144 -360 360s144 360 360 360s360 -144 360 -360s-144 -360 -360 -360zM240 156h53v121l72 86l118 -207h60l-145 246l135 160h-61l-179 -218v218h-53v-406z" />
    <glyph glyph-name="u1F15B" unicode="&#x1f15b;" 
d="M380 -10c-216 0 -360 144 -360 360s144 360 360 360s360 -144 360 -360s-144 -360 -360 -360zM265 156h244v46h-191v360h-53v-406z" />
    <glyph glyph-name="u1F15C" unicode="&#x1f15c;" 
d="M380 -10c-216 0 -360 144 -360 360s144 360 360 360s360 -144 360 -360s-144 -360 -360 -360zM206 156h50v306l108 -245h32l109 248v-309h50v406h-52l-122 -283l-123 283h-52v-406z" />
    <glyph glyph-name="u1F15D" unicode="&#x1f15d;" 
d="M380 -10c-216 0 -360 144 -360 360s144 360 360 360s360 -144 360 -360s-144 -360 -360 -360zM228 156h50v324l193 -324h50v406h-49v-326l-193 326h-51v-406z" />
    <glyph glyph-name="u1F15E" unicode="&#x1f15e;" 
d="M380 -10c-216 0 -360 144 -360 360s144 360 360 360s360 -144 360 -360s-144 -360 -360 -360zM367 143h26c91 0 142 59 142 139v139c0 81 -50 140 -142 140h-26c-90 0 -142 -59 -142 -140v-139c0 -79 51 -139 142 -139zM370 192c-57 0 -91 34 -91 96v127
c0 61 33 98 91 98h21c57 0 91 -35 91 -98v-127c0 -60 -33 -96 -91 -96h-21z" />
    <glyph glyph-name="u1F15F" unicode="&#x1f15f;" 
d="M380 -10c-216 0 -360 144 -360 360s144 360 360 360s360 -144 360 -360s-144 -360 -360 -360zM265 156h53v164h111c68 0 114 46 114 113v15c0 68 -46 114 -114 114h-164v-406zM318 365v152h103c42 0 69 -27 69 -69v-14c0 -42 -27 -69 -69 -69h-103z" />
    <glyph glyph-name="u1F160" unicode="&#x1f160;" 
d="M380 -10c-216 0 -360 144 -360 360s144 360 360 360s360 -144 360 -360s-144 -360 -360 -360zM505 105l29 23l-45 52c28 24 43 61 43 105v139c0 81 -51 140 -142 140h-26c-90 0 -142 -59 -142 -140v-139c0 -79 51 -139 142 -139h26c27 0 50 5 69 14zM367 194
c-57 0 -91 35 -91 97v127c0 61 33 98 91 98h22c56 0 90 -35 90 -98v-127c0 -29 -8 -54 -23 -70l-50 61l-29 -23l49 -58c-10 -4 -24 -7 -37 -7h-22z" />
    <glyph glyph-name="u1F161" unicode="&#x1f161;" 
d="M380 -10c-216 0 -360 144 -360 360s144 360 360 360s360 -144 360 -360s-144 -360 -360 -360zM246 156h52v172h93l85 -172h59l-91 177c49 12 79 54 79 109v7c0 68 -46 113 -114 113h-163v-406zM298 373v144h104c41 0 68 -26 68 -70v-5c0 -42 -25 -69 -68 -69h-104z" />
    <glyph glyph-name="u1F162" unicode="&#x1f162;" 
d="M380 -10c-216 0 -360 144 -360 360s144 360 360 360s360 -144 360 -360s-144 -360 -360 -360zM363 143h24c78 0 130 38 130 122c0 61 -30 94 -124 114c-59 13 -100 22 -100 72c0 37 20 65 71 65h18c41 0 71 -17 71 -62h52c0 64 -39 107 -121 107h-21
c-74 0 -122 -39 -122 -112c0 -78 54 -99 143 -118c47 -11 81 -22 81 -68c0 -44 -23 -74 -78 -74h-24c-44 0 -75 17 -75 62h-53c0 -64 40 -108 128 -108z" />
    <glyph glyph-name="u1F163" unicode="&#x1f163;" 
d="M380 -10c-216 0 -360 144 -360 360s144 360 360 360s360 -144 360 -360s-144 -360 -360 -360zM354 139h52v359h120v47h-292v-47h120v-359z" />
    <glyph glyph-name="u1F164" unicode="&#x1f164;" 
d="M380 -10c-216 0 -360 144 -360 360s144 360 360 360s360 -144 360 -360s-144 -360 -360 -360zM373 138h15c89 0 140 60 140 139v273h-53v-269c0 -59 -32 -94 -87 -94h-15c-54 0 -87 34 -87 94v269h-52v-273c0 -79 49 -139 139 -139z" />
    <glyph glyph-name="u1F165" unicode="&#x1f165;" 
d="M380 -10c-216 0 -360 144 -360 360s144 360 360 360s360 -144 360 -360s-144 -360 -360 -360zM355 143h51l136 406h-54l-107 -334l-107 334h-56z" />
    <glyph glyph-name="u1F166" unicode="&#x1f166;" 
d="M380 -10c-216 0 -360 144 -360 360s144 360 360 360s360 -144 360 -360s-144 -360 -360 -360zM255 135h42l84 310l85 -310h42l102 395h-54l-70 -315l-85 315h-39l-84 -316l-72 316h-53z" />
    <glyph glyph-name="u1F167" unicode="&#x1f167;" 
d="M380 -10c-216 0 -360 144 -360 360s144 360 360 360s360 -144 360 -360s-144 -360 -360 -360zM225 151h58l96 165l97 -165h59l-127 209l120 197h-58l-90 -152l-90 152h-58l118 -196z" />
    <glyph glyph-name="u1F168" unicode="&#x1f168;" 
d="M380 -10c-216 0 -360 144 -360 360s144 360 360 360s360 -144 360 -360s-144 -360 -360 -360zM354 138h52v174l124 232h-56l-93 -184l-95 184h-57l125 -232v-174z" />
    <glyph glyph-name="u1F169" unicode="&#x1f169;" 
d="M380 -10c-216 0 -360 144 -360 360s144 360 360 360s360 -144 360 -360s-144 -360 -360 -360zM240 156h266v48h-208l203 311v47h-244v-47h185l-202 -312v-47z" />
    <glyph glyph-name="Iacute_J.loclNLD" horiz-adv-x="667" 
d="M92 772l88 142h69l-102 -142h-55zM515 772l88 142h69l-102 -142h-55zM93 0v700h60v-700h-60zM259 0v58h120c89 0 135 68 135 173v469h61v-469c0 -146 -79 -231 -196 -231h-120z" />
    <glyph glyph-name="I.ss01" horiz-adv-x="299" 
d="M254 643h-74v-586h74v-57h-209v57h74v586h-74v57h209v-57z" />
    <glyph glyph-name="IJ.ss01" horiz-adv-x="721" 
d="M254 700v-57h-74v-586h74v-57h-209v57h74v586h-74v57h209zM567 700h61v-469c0 -146 -79 -231 -196 -231h-120v58h120c89 0 135 68 135 173v469z" />
    <glyph glyph-name="Iacute.ss01" horiz-adv-x="299" 
d="M276 914l-102 -142h-55l88 142h69zM254 700v-57h-74v-586h74v-57h-209v57h74v586h-74v57h209z" />
    <glyph glyph-name="Iacute_J.loclNLD.ss01" horiz-adv-x="721" 
d="M119 772l88 142h69l-102 -142h-55zM725 914l-102 -142h-55l88 142h69zM254 700v-57h-74v-586h74v-57h-209v57h74v586h-74v57h209zM567 231v469h61v-469c0 -146 -79 -231 -196 -231h-120v58h120c89 0 135 68 135 173z" />
    <glyph glyph-name="Icircumflex.ss01" horiz-adv-x="299" 
d="M150 865l-80 -93h-54l109 142h49l109 -142h-54zM254 700v-57h-74v-586h74v-57h-209v57h74v586h-74v57h209z" />
    <glyph glyph-name="Idieresis.ss01" horiz-adv-x="299" 
d="M84 882v-83h-65v83h65zM218 882h65v-83h-65v83zM254 700v-57h-74v-586h74v-57h-209v57h74v586h-74v57h209z" />
    <glyph glyph-name="Idotaccent.ss01" horiz-adv-x="299" 
d="M182 882v-83h-64v83h64zM254 643h-74v-586h74v-57h-209v57h74v586h-74v57h209v-57z" />
    <glyph glyph-name="uni1ECA.ss01" horiz-adv-x="299" 
d="M254 643h-74v-586h74v-57h-209v57h74v586h-74v57h209v-57zM117 -141v83h65v-83h-65z" />
    <glyph glyph-name="Igrave.ss01" horiz-adv-x="299" 
d="M180 772h-55l-102 142h69zM254 643h-74v-586h74v-57h-209v57h74v586h-74v57h209v-57z" />
    <glyph glyph-name="uni1EC8.ss01" horiz-adv-x="299" 
d="M149 893c-29 0 -43 -15 -43 -38h-46c0 47 36 79 89 79s91 -33 91 -82c0 -46 -37 -77 -94 -77v41c31 0 47 14 47 37c0 26 -18 40 -44 40zM254 643h-74v-586h74v-57h-209v57h74v586h-74v57h209v-57z" />
    <glyph glyph-name="Imacron.ss01" horiz-adv-x="299" 
d="M26 867h248v-49h-248v49zM254 700v-57h-74v-586h74v-57h-209v57h74v586h-74v57h209z" />
    <glyph glyph-name="Iogonek.ss01" horiz-adv-x="299" 
d="M254 643h-74v-586h74v-57h-76c-48 -36 -63 -66 -63 -98c0 -27 19 -43 56 -43c12 0 25 1 36 3v-45c-16 -3 -28 -4 -41 -4c-72 0 -106 36 -106 83c0 39 25 73 67 104h-82v57h74v586h-74v57h209v-57z" />
    <glyph glyph-name="Itilde.ss01" horiz-adv-x="299" 
d="M241 890h43c0 -59 -32 -102 -76 -102c-27 0 -47 15 -69 35c-19 19 -29 28 -45 28c-21 0 -35 -24 -35 -59h-43c0 60 35 103 80 103c28 0 50 -19 66 -36c17 -16 29 -27 46 -27c22 0 33 21 33 58zM254 700v-57h-74v-586h74v-57h-209v57h74v586h-74v57h209z" />
    <glyph glyph-name="i.loclTRK" horiz-adv-x="222" 
d="M80 587v83h64v-83h-64zM140 488v-488h-57v488h57z" />
    <glyph glyph-name="i.locl.TRK" horiz-adv-x="222" 
d="M80 589v85h62v-85h-62zM83 0v488h57v-488h-57z" />
    <glyph glyph-name="iacute_j.loclNLD" horiz-adv-x="444" 
d="M81 560l88 142h69l-102 -142h-55zM303 560l88 142h69l-102 -142h-55zM140 488v-488h-57v488h57zM207 -195v54h24c60 0 74 36 74 96v533h57v-533c0 -120 -49 -150 -131 -150h-24z" />
    <glyph glyph-name="a.ss02" horiz-adv-x="512" 
d="M374 488h57v-488h-44l-6 74c-23 -52 -70 -84 -137 -84h-22c-105 0 -170 72 -170 181v141c0 114 67 186 172 186h20c61 0 106 -26 130 -71v61zM252 44c77 0 122 54 122 142v116c0 89 -46 142 -122 142h-28c-72 0 -114 -51 -114 -132v-141c0 -79 43 -127 114 -127h28z" />
    <glyph glyph-name="aacute.ss02" horiz-adv-x="512" 
d="M381 702l-102 -142h-55l88 142h69zM374 488h57v-488h-44l-6 74c-23 -52 -70 -84 -137 -84h-22c-105 0 -170 72 -170 181v141c0 114 67 186 172 186h20c61 0 106 -26 130 -71v61zM252 44c77 0 122 54 122 142v116c0 89 -46 142 -122 142h-28c-72 0 -114 -51 -114 -132
v-141c0 -79 43 -127 114 -127h28z" />
    <glyph glyph-name="abreve.ss02" horiz-adv-x="512" 
d="M255 572c-76 0 -130 46 -130 115h44c0 -40 37 -67 86 -67s86 27 86 67h43c0 -68 -52 -115 -129 -115zM374 488h57v-488h-44l-6 74c-23 -52 -70 -84 -137 -84h-22c-105 0 -170 72 -170 181v141c0 114 67 186 172 186h20c61 0 106 -26 130 -71v61zM252 44
c77 0 122 54 122 142v116c0 89 -46 142 -122 142h-28c-72 0 -114 -51 -114 -132v-141c0 -79 43 -127 114 -127h28z" />
    <glyph glyph-name="uni1EAF.ss02" horiz-adv-x="512" 
d="M381 840l-102 -142h-55l88 142h69zM255 572c-76 0 -130 46 -130 115h44c0 -40 37 -67 86 -67s86 27 86 67h43c0 -68 -52 -115 -129 -115zM374 488h57v-488h-44l-6 74c-23 -52 -70 -84 -137 -84h-22c-105 0 -170 72 -170 181v141c0 114 67 186 172 186h20
c61 0 106 -26 130 -71v61zM252 44c77 0 122 54 122 142v116c0 89 -46 142 -122 142h-28c-72 0 -114 -51 -114 -132v-141c0 -79 43 -127 114 -127h28z" />
    <glyph glyph-name="uni1EB7.ss02" horiz-adv-x="512" 
d="M255 572c-76 0 -130 46 -130 115h44c0 -40 37 -67 86 -67s86 27 86 67h43c0 -68 -52 -115 -129 -115zM374 488h57v-488h-44l-6 74c-23 -52 -70 -84 -137 -84h-22c-105 0 -170 72 -170 181v141c0 114 67 186 172 186h20c61 0 106 -26 130 -71v61zM252 44
c77 0 122 54 122 142v116c0 89 -46 142 -122 142h-28c-72 0 -114 -51 -114 -132v-141c0 -79 43 -127 114 -127h28zM218 -141v83h65v-83h-65z" />
    <glyph glyph-name="uni1EB1.ss02" horiz-adv-x="512" 
d="M285 698h-55l-102 142h69zM255 572c-76 0 -130 46 -130 115h44c0 -40 37 -67 86 -67s86 27 86 67h43c0 -68 -52 -115 -129 -115zM374 488h57v-488h-44l-6 74c-23 -52 -70 -84 -137 -84h-22c-105 0 -170 72 -170 181v141c0 114 67 186 172 186h20c61 0 106 -26 130 -71v61
zM252 44c77 0 122 54 122 142v116c0 89 -46 142 -122 142h-28c-72 0 -114 -51 -114 -132v-141c0 -79 43 -127 114 -127h28z" />
    <glyph glyph-name="uni1EB3.ss02" horiz-adv-x="512" 
d="M254 819c-29 0 -43 -15 -43 -38h-46c0 47 36 79 89 79s91 -33 91 -82c0 -46 -37 -77 -94 -77v41c31 0 47 14 47 37c0 26 -18 40 -44 40zM255 572c-76 0 -130 46 -130 115h44c0 -40 37 -67 86 -67s86 27 86 67h43c0 -68 -52 -115 -129 -115zM374 488h57v-488h-44l-6 74
c-23 -52 -70 -84 -137 -84h-22c-105 0 -170 72 -170 181v141c0 114 67 186 172 186h20c61 0 106 -26 130 -71v61zM252 44c77 0 122 54 122 142v116c0 89 -46 142 -122 142h-28c-72 0 -114 -51 -114 -132v-141c0 -79 43 -127 114 -127h28z" />
    <glyph glyph-name="uni1EB5.ss02" horiz-adv-x="512" 
d="M199 777c-21 0 -35 -24 -35 -59h-43c0 60 35 103 80 103c28 0 50 -19 66 -36c17 -16 29 -27 46 -27c22 0 33 21 33 58h43c0 -59 -32 -102 -76 -102c-27 0 -47 15 -69 35c-19 19 -29 28 -45 28zM255 620c49 0 86 27 86 67h43c0 -68 -52 -115 -129 -115
c-76 0 -130 46 -130 115h44c0 -40 37 -67 86 -67zM374 488h57v-488h-44l-6 74c-23 -52 -70 -84 -137 -84h-22c-105 0 -170 72 -170 181v141c0 114 67 186 172 186h20c61 0 106 -26 130 -71v61zM252 44c77 0 122 54 122 142v116c0 89 -46 142 -122 142h-28
c-72 0 -114 -51 -114 -132v-141c0 -79 43 -127 114 -127h28z" />
    <glyph glyph-name="acircumflex.ss02" horiz-adv-x="512" 
d="M255 653l-80 -93h-54l109 142h49l109 -142h-54zM374 488h57v-488h-44l-6 74c-23 -52 -70 -84 -137 -84h-22c-105 0 -170 72 -170 181v141c0 114 67 186 172 186h20c61 0 106 -26 130 -71v61zM252 44c77 0 122 54 122 142v116c0 89 -46 142 -122 142h-28
c-72 0 -114 -51 -114 -132v-141c0 -79 43 -127 114 -127h28z" />
    <glyph glyph-name="uni1EA5.ss02" horiz-adv-x="512" 
d="M491 789l-103 -142h-54l88 142h69zM255 653l-80 -93h-54l109 142h49l109 -142h-54zM374 427v61h57v-488h-44l-6 74c-23 -52 -70 -84 -137 -84h-22c-105 0 -170 72 -170 181v141c0 114 67 186 172 186h20c61 0 106 -26 130 -71zM252 44c77 0 122 54 122 142v116
c0 89 -46 142 -122 142h-28c-72 0 -114 -51 -114 -132v-141c0 -79 43 -127 114 -127h28z" />
    <glyph glyph-name="uni1EAD.ss02" horiz-adv-x="512" 
d="M255 653l-80 -93h-54l109 142h49l109 -142h-54zM374 488h57v-488h-44l-6 74c-23 -52 -70 -84 -137 -84h-22c-105 0 -170 72 -170 181v141c0 114 67 186 172 186h20c61 0 106 -26 130 -71v61zM252 44c77 0 122 54 122 142v116c0 89 -46 142 -122 142h-28
c-72 0 -114 -51 -114 -132v-141c0 -79 43 -127 114 -127h28zM218 -141v83h65v-83h-65z" />
    <glyph glyph-name="uni1EA7.ss02" horiz-adv-x="512" 
d="M421 648h-54l-103 142h69zM255 653l-80 -93h-54l109 142h49l109 -142h-54zM374 488h57v-488h-44l-6 74c-23 -52 -70 -84 -137 -84h-22c-105 0 -170 72 -170 181v141c0 114 67 186 172 186h20c61 0 106 -26 130 -71v61zM252 44c77 0 122 54 122 142v116
c0 89 -46 142 -122 142h-28c-72 0 -114 -51 -114 -132v-141c0 -79 43 -127 114 -127h28z" />
    <glyph glyph-name="uni1EA9.ss02" horiz-adv-x="512" 
d="M372 809c53 0 91 -33 91 -81c0 -46 -37 -77 -94 -77v41c31 0 47 13 47 37c0 25 -18 39 -44 39c-29 0 -43 -14 -43 -37h-46c0 47 36 78 89 78zM255 653l-80 -93h-54l109 142h49l109 -142h-54zM374 427v61h57v-488h-44l-6 74c-23 -52 -70 -84 -137 -84h-22
c-105 0 -170 72 -170 181v141c0 114 67 186 172 186h20c61 0 106 -26 130 -71zM252 44c77 0 122 54 122 142v116c0 89 -46 142 -122 142h-28c-72 0 -114 -51 -114 -132v-141c0 -79 43 -127 114 -127h28z" />
    <glyph glyph-name="uni1EAB.ss02" horiz-adv-x="512" 
d="M200 787c-22 0 -35 -24 -35 -59h-44c0 60 36 103 80 103c29 0 50 -19 67 -36c16 -16 28 -27 45 -27c23 0 33 21 33 58h43c0 -59 -31 -102 -76 -102c-26 0 -47 15 -68 35c-20 19 -30 28 -45 28zM255 653l-80 -93h-54l109 142h49l109 -142h-54zM374 488h57v-488h-44l-6 74
c-23 -52 -70 -84 -137 -84h-22c-105 0 -170 72 -170 181v141c0 114 67 186 172 186h20c61 0 106 -26 130 -71v61zM252 44c77 0 122 54 122 142v116c0 89 -46 142 -122 142h-28c-72 0 -114 -51 -114 -132v-141c0 -79 43 -127 114 -127h28z" />
    <glyph glyph-name="adieresis.ss02" horiz-adv-x="512" 
d="M189 670v-83h-65v83h65zM388 670v-83h-65v83h65zM374 488h57v-488h-44l-6 74c-23 -52 -70 -84 -137 -84h-22c-105 0 -170 72 -170 181v141c0 114 67 186 172 186h20c61 0 106 -26 130 -71v61zM252 44c77 0 122 54 122 142v116c0 89 -46 142 -122 142h-28
c-72 0 -114 -51 -114 -132v-141c0 -79 43 -127 114 -127h28z" />
    <glyph glyph-name="uni1EA1.ss02" horiz-adv-x="512" 
d="M374 488h57v-488h-44l-6 74c-23 -52 -70 -84 -137 -84h-22c-105 0 -170 72 -170 181v141c0 114 67 186 172 186h20c61 0 106 -26 130 -71v61zM252 44c77 0 122 54 122 142v116c0 89 -46 142 -122 142h-28c-72 0 -114 -51 -114 -132v-141c0 -79 43 -127 114 -127h28z
M218 -141v83h65v-83h-65z" />
    <glyph glyph-name="agrave.ss02" horiz-adv-x="512" 
d="M285 560h-55l-102 142h69zM374 488h57v-488h-44l-6 74c-23 -52 -70 -84 -137 -84h-22c-105 0 -170 72 -170 181v141c0 114 67 186 172 186h20c61 0 106 -26 130 -71v61zM252 44c77 0 122 54 122 142v116c0 89 -46 142 -122 142h-28c-72 0 -114 -51 -114 -132v-141
c0 -79 43 -127 114 -127h28z" />
    <glyph glyph-name="uni1EA3.ss02" horiz-adv-x="512" 
d="M254 681c-29 0 -43 -15 -43 -38h-46c0 47 36 79 89 79s91 -33 91 -82c0 -46 -37 -77 -94 -77v41c31 0 47 14 47 37c0 26 -18 40 -44 40zM374 488h57v-488h-44l-6 74c-23 -52 -70 -84 -137 -84h-22c-105 0 -170 72 -170 181v141c0 114 67 186 172 186h20
c61 0 106 -26 130 -71v61zM252 44c77 0 122 54 122 142v116c0 89 -46 142 -122 142h-28c-72 0 -114 -51 -114 -132v-141c0 -79 43 -127 114 -127h28z" />
    <glyph glyph-name="amacron.ss02" horiz-adv-x="512" 
d="M379 655v-49h-248v49h248zM374 488h57v-488h-44l-6 74c-23 -52 -70 -84 -137 -84h-22c-105 0 -170 72 -170 181v141c0 114 67 186 172 186h20c61 0 106 -26 130 -71v61zM252 44c77 0 122 54 122 142v116c0 89 -46 142 -122 142h-28c-72 0 -114 -51 -114 -132v-141
c0 -79 43 -127 114 -127h28z" />
    <glyph glyph-name="aogonek.ss02" horiz-adv-x="512" 
d="M416 -141c12 0 24 1 35 3v-45c-15 -3 -27 -4 -40 -4c-72 0 -106 35 -106 82c0 41 29 75 81 112l-5 67c-23 -52 -70 -84 -137 -84h-22c-105 0 -170 72 -170 181v141c0 114 67 186 172 186h20c61 0 106 -26 130 -71v61h57v-488c-53 -37 -72 -66 -72 -98
c0 -27 20 -43 57 -43zM252 44c77 0 122 54 122 142v116c0 89 -46 142 -122 142h-28c-72 0 -114 -51 -114 -132v-141c0 -79 43 -127 114 -127h28z" />
    <glyph glyph-name="aring.ss02" horiz-adv-x="512" 
d="M255 544c-55 0 -95 36 -95 91s40 92 95 92c54 0 93 -37 93 -92s-39 -91 -93 -91zM255 692c-34 0 -58 -23 -58 -57s24 -57 58 -57c33 0 57 23 57 57s-24 57 -57 57zM374 488h57v-488h-44l-6 74c-23 -52 -70 -84 -137 -84h-22c-105 0 -170 72 -170 181v141
c0 114 67 186 172 186h20c61 0 106 -26 130 -71v61zM252 44c77 0 122 54 122 142v116c0 89 -46 142 -122 142h-28c-72 0 -114 -51 -114 -132v-141c0 -79 43 -127 114 -127h28z" />
    <glyph glyph-name="atilde.ss02" horiz-adv-x="512" 
d="M199 639c-21 0 -35 -24 -35 -59h-43c0 60 35 103 80 103c28 0 50 -19 66 -36c17 -16 29 -27 46 -27c22 0 33 21 33 58h43c0 -59 -32 -102 -76 -102c-27 0 -47 15 -69 35c-19 19 -29 28 -45 28zM374 488h57v-488h-44l-6 74c-23 -52 -70 -84 -137 -84h-22
c-105 0 -170 72 -170 181v141c0 114 67 186 172 186h20c61 0 106 -26 130 -71v61zM252 44c77 0 122 54 122 142v116c0 89 -46 142 -122 142h-28c-72 0 -114 -51 -114 -132v-141c0 -79 43 -127 114 -127h28z" />
    <glyph glyph-name="ae.ss02" horiz-adv-x="796" 
d="M431 212v-61c0 -68 43 -107 116 -107h32c67 0 106 34 106 91h57c0 -88 -64 -145 -163 -145h-32c-52 0 -93 18 -119 51v-41h-41l-6 74c-23 -52 -70 -84 -137 -84h-22c-105 0 -170 72 -170 181v141c0 114 67 186 172 186h20c61 0 106 -26 130 -71v61h54v-49
c26 38 67 59 120 59h23c107 0 174 -72 174 -186v-100h-314zM252 44c77 0 122 54 122 142v116c0 89 -46 142 -122 142h-28c-72 0 -114 -51 -114 -132v-141c0 -79 43 -127 114 -127h28zM548 444c-76 0 -117 -52 -117 -132v-47h257v47c0 84 -44 132 -117 132h-23z" />
    <glyph glyph-name="g.ss03" horiz-adv-x="528" 
d="M508 488v-43l-84 -8c20 -26 31 -60 31 -99v-37c0 -91 -68 -152 -171 -152h-48c-43 0 -79 10 -108 29c-13 -9 -20 -21 -20 -36v-15c0 -31 24 -41 59 -41h171c92 0 149 -53 149 -128v-19c0 -84 -62 -134 -154 -134h-124c-103 0 -172 50 -172 129v26c0 36 22 67 59 87
c-28 15 -45 40 -45 73v16c0 30 18 54 46 70c-21 25 -33 58 -33 95v37c0 96 69 160 172 160h48c24 0 46 -3 66 -10h158zM398 301v37c0 64 -45 106 -114 106h-48c-69 0 -114 -42 -114 -106v-37c0 -59 45 -98 114 -98h48c69 0 114 39 114 98zM430 -43c0 48 -34 75 -92 75h-173
c-7 0 -14 0 -20 1c-32 -17 -50 -44 -50 -71v-26c0 -48 37 -77 114 -77h124c63 0 97 29 97 80v18z" />
    <glyph glyph-name="gbreve.ss03" horiz-adv-x="528" 
d="M264 572c-76 0 -130 46 -130 115h44c0 -40 37 -67 86 -67s86 27 86 67h43c0 -68 -52 -115 -129 -115zM508 488v-43l-84 -8c20 -26 31 -60 31 -99v-37c0 -91 -68 -152 -171 -152h-48c-43 0 -79 10 -108 29c-13 -9 -20 -21 -20 -36v-15c0 -31 24 -41 59 -41h171
c92 0 149 -53 149 -128v-19c0 -84 -62 -134 -154 -134h-124c-103 0 -172 50 -172 129v26c0 36 22 67 59 87c-28 15 -45 40 -45 73v16c0 30 18 54 46 70c-21 25 -33 58 -33 95v37c0 96 69 160 172 160h48c24 0 46 -3 66 -10h158zM398 301v37c0 64 -45 106 -114 106h-48
c-69 0 -114 -42 -114 -106v-37c0 -59 45 -98 114 -98h48c69 0 114 39 114 98zM430 -43c0 48 -34 75 -92 75h-173c-7 0 -14 0 -20 1c-32 -17 -50 -44 -50 -71v-26c0 -48 37 -77 114 -77h124c63 0 97 29 97 80v18z" />
    <glyph glyph-name="gcircumflex.ss03" horiz-adv-x="528" 
d="M264 653l-80 -93h-54l109 142h49l109 -142h-54zM508 488v-43l-84 -8c20 -26 31 -60 31 -99v-37c0 -91 -68 -152 -171 -152h-48c-43 0 -79 10 -108 29c-13 -9 -20 -21 -20 -36v-15c0 -31 24 -41 59 -41h171c92 0 149 -53 149 -128v-19c0 -84 -62 -134 -154 -134h-124
c-103 0 -172 50 -172 129v26c0 36 22 67 59 87c-28 15 -45 40 -45 73v16c0 30 18 54 46 70c-21 25 -33 58 -33 95v37c0 96 69 160 172 160h48c24 0 46 -3 66 -10h158zM398 301v37c0 64 -45 106 -114 106h-48c-69 0 -114 -42 -114 -106v-37c0 -59 45 -98 114 -98h48
c69 0 114 39 114 98zM430 -43c0 48 -34 75 -92 75h-173c-7 0 -14 0 -20 1c-32 -17 -50 -44 -50 -71v-26c0 -48 37 -77 114 -77h124c63 0 97 29 97 80v18z" />
    <glyph glyph-name="uni0123.ss03" horiz-adv-x="528" 
d="M336 711l-46 -142h-53l31 142h68zM508 488v-43l-84 -8c20 -26 31 -60 31 -99v-37c0 -91 -68 -152 -171 -152h-48c-43 0 -79 10 -108 29c-13 -9 -20 -21 -20 -36v-15c0 -31 24 -41 59 -41h171c92 0 149 -53 149 -128v-19c0 -84 -62 -134 -154 -134h-124
c-103 0 -172 50 -172 129v26c0 36 22 67 59 87c-28 15 -45 40 -45 73v16c0 30 18 54 46 70c-21 25 -33 58 -33 95v37c0 96 69 160 172 160h48c24 0 46 -3 66 -10h158zM398 301v37c0 64 -45 106 -114 106h-48c-69 0 -114 -42 -114 -106v-37c0 -59 45 -98 114 -98h48
c69 0 114 39 114 98zM430 -43c0 48 -34 75 -92 75h-173c-7 0 -14 0 -20 1c-32 -17 -50 -44 -50 -71v-26c0 -48 37 -77 114 -77h124c63 0 97 29 97 80v18z" />
    <glyph glyph-name="gdotaccent.ss03" horiz-adv-x="528" 
d="M296 670v-83h-64v83h64zM508 488v-43l-84 -8c20 -26 31 -60 31 -99v-37c0 -91 -68 -152 -171 -152h-48c-43 0 -79 10 -108 29c-13 -9 -20 -21 -20 -36v-15c0 -31 24 -41 59 -41h171c92 0 149 -53 149 -128v-19c0 -84 -62 -134 -154 -134h-124c-103 0 -172 50 -172 129v26
c0 36 22 67 59 87c-28 15 -45 40 -45 73v16c0 30 18 54 46 70c-21 25 -33 58 -33 95v37c0 96 69 160 172 160h48c24 0 46 -3 66 -10h158zM398 301v37c0 64 -45 106 -114 106h-48c-69 0 -114 -42 -114 -106v-37c0 -59 45 -98 114 -98h48c69 0 114 39 114 98zM430 -43
c0 48 -34 75 -92 75h-173c-7 0 -14 0 -20 1c-32 -17 -50 -44 -50 -71v-26c0 -48 37 -77 114 -77h124c63 0 97 29 97 80v18z" />
    <glyph glyph-name="l.ss04" horiz-adv-x="224" 
d="M83 0v700h57v-700h-57z" />
    <glyph glyph-name="lacute.ss04" horiz-adv-x="224" 
d="M81 772l88 142h69l-102 -142h-55zM83 0v700h57v-700h-57z" />
    <glyph glyph-name="lcaron.ss04" horiz-adv-x="224" 
d="M83 0v700h57v-700h-57zM189 536l31 164h68l-46 -164h-53z" />
    <glyph glyph-name="uni013C.ss04" horiz-adv-x="224" 
d="M83 0v700h57v-700h-57zM49 -195l30 137h69l-46 -137h-53z" />
    <glyph glyph-name="ldot.ss04" horiz-adv-x="263" 
d="M83 0v700h57v-700h-57zM206 317v92h75v-92h-75z" />
    <glyph glyph-name="lslash.ss04" horiz-adv-x="224" 
d="M209 454v-59l-69 -35v-360h-57v332l-67 -34v59l67 34v309h57v-281z" />
    <glyph glyph-name="y.ss05" horiz-adv-x="434" 
d="M363 488h63l-247 -673h-57l68 192l-182 481h63l91 -245c21 -56 40 -109 59 -166c18 57 37 112 56 165z" />
    <glyph glyph-name="yacute.ss05" horiz-adv-x="434" 
d="M346 702l-102 -142h-55l88 142h69zM363 488h63l-247 -673h-57l68 192l-182 481h63l91 -245c21 -56 40 -109 59 -166c18 57 37 112 56 165z" />
    <glyph glyph-name="ycircumflex.ss05" horiz-adv-x="434" 
d="M220 653l-80 -93h-54l109 142h49l109 -142h-54zM363 488h63l-247 -673h-57l68 192l-182 481h63l91 -245c21 -56 40 -109 59 -166c18 57 37 112 56 165z" />
    <glyph glyph-name="ydieresis.ss05" horiz-adv-x="434" 
d="M153 670v-83h-65v83h65zM352 670v-83h-65v83h65zM363 488h63l-247 -673h-57l68 192l-182 481h63l91 -245c21 -56 40 -109 59 -166c18 57 37 112 56 165z" />
    <glyph glyph-name="uni1EF5.ss05" horiz-adv-x="434" 
d="M363 488h63l-247 -673h-57l68 192l-182 481h63l91 -245c21 -56 40 -109 59 -166c18 57 37 112 56 165zM330 -141v83h65v-83h-65z" />
    <glyph glyph-name="ygrave.ss05" horiz-adv-x="434" 
d="M250 560h-55l-102 142h69zM363 488h63l-247 -673h-57l68 192l-182 481h63l91 -245c21 -56 40 -109 59 -166c18 57 37 112 56 165z" />
    <glyph glyph-name="uni1EF7.ss05" horiz-adv-x="434" 
d="M219 681c-29 0 -43 -15 -43 -38h-46c0 47 36 79 89 79s91 -33 91 -82c0 -46 -37 -77 -94 -77v41c31 0 47 14 47 37c0 26 -18 40 -44 40zM363 488h63l-247 -673h-57l68 192l-182 481h63l91 -245c21 -56 40 -109 59 -166c18 57 37 112 56 165z" />
    <glyph glyph-name="uni1EF9.ss05" horiz-adv-x="434" 
d="M164 639c-21 0 -35 -24 -35 -59h-43c0 60 35 103 80 103c28 0 50 -19 66 -36c17 -16 29 -27 46 -27c22 0 33 21 33 58h43c0 -59 -32 -102 -76 -102c-27 0 -47 15 -69 35c-19 19 -29 28 -45 28zM363 488h63l-247 -673h-57l68 192l-182 481h63l91 -245
c21 -56 40 -109 59 -166c18 57 37 112 56 165z" />
    <glyph glyph-name="fl.ss04" horiz-adv-x="498" 
d="M92 554c0 125 52 156 143 156h39v-54h-39c-69 0 -86 -37 -86 -102v-66h105v-52h-105v-436h-57v436h-68v52h68v66zM357 700h57v-700h-57v700z" />
    <glyph glyph-name="a.sc" horiz-adv-x="469" 
d="M402 0l-49 141h-237l-49 -141h-58l198 560h55l198 -560h-58zM134 191h202l-22 62c-27 76 -54 159 -80 238c-25 -79 -52 -160 -78 -236z" />
    <glyph glyph-name="aacute.sc" horiz-adv-x="469" 
d="M361 774l-102 -142h-55l88 142h69zM402 0l-49 141h-237l-49 -141h-58l198 560h55l198 -560h-58zM134 191h202l-22 62c-27 76 -54 159 -80 238c-25 -79 -52 -160 -78 -236z" />
    <glyph glyph-name="abreve.sc" horiz-adv-x="469" 
d="M235 644c-76 0 -130 46 -130 115h44c0 -40 37 -67 86 -67s86 27 86 67h43c0 -68 -52 -115 -129 -115zM402 0l-49 141h-237l-49 -141h-58l198 560h55l198 -560h-58zM134 191h202l-22 62c-27 76 -54 159 -80 238c-25 -79 -52 -160 -78 -236z" />
    <glyph glyph-name="uni1EAF.sc" horiz-adv-x="469" 
d="M361 912l-102 -142h-55l88 142h69zM235 644c-76 0 -130 46 -130 115h44c0 -40 37 -67 86 -67s86 27 86 67h43c0 -68 -52 -115 -129 -115zM402 0l-49 141h-237l-49 -141h-58l198 560h55l198 -560h-58zM134 191h202l-22 62c-27 76 -54 159 -80 238
c-25 -79 -52 -160 -78 -236z" />
    <glyph glyph-name="uni1EB7.sc" horiz-adv-x="469" 
d="M235 644c-76 0 -130 46 -130 115h44c0 -40 37 -67 86 -67s86 27 86 67h43c0 -68 -52 -115 -129 -115zM460 0h-58l-49 141h-237l-49 -141h-58l198 560h55zM134 191h202l-22 62c-27 76 -54 159 -80 238c-25 -79 -52 -160 -78 -236zM202 -141v83h65v-83h-65z" />
    <glyph glyph-name="uni1EB1.sc" horiz-adv-x="469" 
d="M265 770h-55l-102 142h69zM235 644c-76 0 -130 46 -130 115h44c0 -40 37 -67 86 -67s86 27 86 67h43c0 -68 -52 -115 -129 -115zM402 0l-49 141h-237l-49 -141h-58l198 560h55l198 -560h-58zM134 191h202l-22 62c-27 76 -54 159 -80 238c-25 -79 -52 -160 -78 -236z" />
    <glyph glyph-name="uni1EB3.sc" horiz-adv-x="469" 
d="M234 891c-29 0 -43 -15 -43 -38h-46c0 47 36 79 89 79s91 -33 91 -82c0 -46 -37 -77 -94 -77v41c31 0 47 14 47 37c0 26 -18 40 -44 40zM235 644c-76 0 -130 46 -130 115h44c0 -40 37 -67 86 -67s86 27 86 67h43c0 -68 -52 -115 -129 -115zM402 0l-49 141h-237l-49 -141
h-58l198 560h55l198 -560h-58zM134 191h202l-22 62c-27 76 -54 159 -80 238c-25 -79 -52 -160 -78 -236z" />
    <glyph glyph-name="uni1EB5.sc" horiz-adv-x="469" 
d="M179 849c-21 0 -35 -24 -35 -59h-43c0 60 35 103 80 103c28 0 50 -19 66 -36c17 -16 29 -27 46 -27c22 0 33 21 33 58h43c0 -59 -32 -102 -76 -102c-27 0 -47 15 -69 35c-19 19 -29 28 -45 28zM235 692c49 0 86 27 86 67h43c0 -68 -52 -115 -129 -115
c-76 0 -130 46 -130 115h44c0 -40 37 -67 86 -67zM402 0l-49 141h-237l-49 -141h-58l198 560h55l198 -560h-58zM134 191h202l-22 62c-27 76 -54 159 -80 238c-25 -79 -52 -160 -78 -236z" />
    <glyph glyph-name="acircumflex.sc" horiz-adv-x="469" 
d="M235 725l-80 -93h-54l109 142h49l109 -142h-54zM402 0l-49 141h-237l-49 -141h-58l198 560h55l198 -560h-58zM134 191h202l-22 62c-27 76 -54 159 -80 238c-25 -79 -52 -160 -78 -236z" />
    <glyph glyph-name="uni1EA5.sc" horiz-adv-x="469" 
d="M471 861l-103 -142h-54l88 142h69zM235 725l-80 -93h-54l109 142h49l109 -142h-54zM262 560l198 -560h-58l-49 141h-237l-49 -141h-58l198 560h55zM336 191l-22 62c-27 76 -54 159 -80 238c-25 -79 -52 -160 -78 -236l-22 -64h202z" />
    <glyph glyph-name="uni1EAD.sc" horiz-adv-x="469" 
d="M235 725l-80 -93h-54l109 142h49l109 -142h-54zM460 0h-58l-49 141h-237l-49 -141h-58l198 560h55zM134 191h202l-22 62c-27 76 -54 159 -80 238c-25 -79 -52 -160 -78 -236zM202 -141v83h65v-83h-65z" />
    <glyph glyph-name="uni1EA7.sc" horiz-adv-x="469" 
d="M401 720h-54l-103 142h69zM235 725l-80 -93h-54l109 142h49l109 -142h-54zM402 0l-49 141h-237l-49 -141h-58l198 560h55l198 -560h-58zM134 191h202l-22 62c-27 76 -54 159 -80 238c-25 -79 -52 -160 -78 -236z" />
    <glyph glyph-name="uni1EA9.sc" horiz-adv-x="469" 
d="M352 840c-29 0 -43 -14 -43 -37h-46c0 47 36 78 89 78s91 -33 91 -81c0 -46 -37 -77 -94 -77v41c31 0 47 13 47 37c0 25 -18 39 -44 39zM235 725l-80 -93h-54l109 142h49l109 -142h-54zM402 0l-49 141h-237l-49 -141h-58l198 560h55l198 -560h-58zM134 191h202l-22 62
c-27 76 -54 159 -80 238c-25 -79 -52 -160 -78 -236z" />
    <glyph glyph-name="uni1EAB.sc" horiz-adv-x="469" 
d="M180 859c-22 0 -35 -24 -35 -59h-44c0 60 36 103 80 103c29 0 50 -19 67 -36c16 -16 28 -27 45 -27c23 0 33 21 33 58h43c0 -59 -31 -102 -76 -102c-26 0 -47 15 -68 35c-20 19 -30 28 -45 28zM235 725l-80 -93h-54l109 142h49l109 -142h-54zM402 0l-49 141h-237
l-49 -141h-58l198 560h55l198 -560h-58zM134 191h202l-22 62c-27 76 -54 159 -80 238c-25 -79 -52 -160 -78 -236z" />
    <glyph glyph-name="adieresis.sc" horiz-adv-x="469" 
d="M168 742v-83h-65v83h65zM367 742v-83h-65v83h65zM402 0l-49 141h-237l-49 -141h-58l198 560h55l198 -560h-58zM134 191h202l-22 62c-27 76 -54 159 -80 238c-25 -79 -52 -160 -78 -236z" />
    <glyph glyph-name="uni1EA1.sc" horiz-adv-x="469" 
d="M460 0h-58l-49 141h-237l-49 -141h-58l198 560h55zM134 191h202l-22 62c-27 76 -54 159 -80 238c-25 -79 -52 -160 -78 -236zM202 -141v83h65v-83h-65z" />
    <glyph glyph-name="agrave.sc" horiz-adv-x="469" 
d="M265 632h-55l-102 142h69zM402 0l-49 141h-237l-49 -141h-58l198 560h55l198 -560h-58zM134 191h202l-22 62c-27 76 -54 159 -80 238c-25 -79 -52 -160 -78 -236z" />
    <glyph glyph-name="uni1EA3.sc" horiz-adv-x="469" 
d="M234 753c-29 0 -43 -15 -43 -38h-46c0 47 36 79 89 79s91 -33 91 -82c0 -46 -37 -77 -94 -77v41c31 0 47 14 47 37c0 26 -18 40 -44 40zM402 0l-49 141h-237l-49 -141h-58l198 560h55l198 -560h-58zM134 191h202l-22 62c-27 76 -54 159 -80 238
c-25 -79 -52 -160 -78 -236z" />
    <glyph glyph-name="amacron.sc" horiz-adv-x="469" 
d="M359 727v-49h-248v49h248zM402 0l-49 141h-237l-49 -141h-58l198 560h55l198 -560h-58zM134 191h202l-22 62c-27 76 -54 159 -80 238c-25 -79 -52 -160 -78 -236z" />
    <glyph glyph-name="aogonek.sc" horiz-adv-x="469" 
d="M449 -141c12 0 25 1 36 3v-45c-16 -3 -28 -4 -41 -4c-72 0 -106 36 -106 83c0 39 26 73 68 104h-4l-49 141h-237l-49 -141h-58l198 560h55l198 -560h-4c-49 -36 -63 -66 -63 -98c0 -27 19 -43 56 -43zM134 191h202l-22 62c-27 76 -54 159 -80 238
c-25 -79 -52 -160 -78 -236z" />
    <glyph glyph-name="aring.sc" horiz-adv-x="469" 
d="M235 616c-55 0 -95 36 -95 91s40 92 95 92c54 0 93 -37 93 -92s-39 -91 -93 -91zM235 764c-34 0 -58 -23 -58 -57s24 -57 58 -57c33 0 57 23 57 57s-24 57 -57 57zM402 0l-49 141h-237l-49 -141h-58l198 560h55l198 -560h-58zM134 191h202l-22 62c-27 76 -54 159 -80 238
c-25 -79 -52 -160 -78 -236z" />
    <glyph glyph-name="atilde.sc" horiz-adv-x="469" 
d="M179 711c-21 0 -35 -24 -35 -59h-43c0 60 35 103 80 103c28 0 50 -19 66 -36c17 -16 29 -27 46 -27c22 0 33 21 33 58h43c0 -59 -32 -102 -76 -102c-27 0 -47 15 -69 35c-19 19 -29 28 -45 28zM402 0l-49 141h-237l-49 -141h-58l198 560h55l198 -560h-58zM134 191h202
l-22 62c-27 76 -54 159 -80 238c-25 -79 -52 -160 -78 -236z" />
    <glyph glyph-name="ae.sc" horiz-adv-x="741" 
d="M703 510h-286v-201h247v-50h-247v-209h286v-50h-342v142h-211l-80 -142h-62l316 560h379v-50zM361 192v318h-3l-180 -318h183z" />
    <glyph glyph-name="b.sc" horiz-adv-x="503" 
d="M369 293c53 -16 82 -67 82 -128v-20c0 -90 -60 -145 -148 -145h-230v560h209c88 0 148 -54 148 -140v-19c0 -47 -23 -89 -61 -108zM275 511h-147v-198h168c45 0 77 37 77 87v18c0 59 -36 93 -98 93zM396 147v19c0 60 -36 98 -90 98h-178v-215h169c63 0 99 37 99 98z" />
    <glyph glyph-name="c.sc" horiz-adv-x="485" 
d="M240 -8c-120 0 -182 79 -182 188v198c0 109 65 190 182 190h29c104 0 169 -63 169 -152h-56c0 66 -48 100 -114 100h-27c-82 0 -127 -53 -127 -140v-195c0 -89 48 -137 127 -137h27c67 0 115 36 115 102h55c0 -91 -65 -154 -169 -154h-29z" />
    <glyph glyph-name="cacute.sc" horiz-adv-x="485" 
d="M216 632l88 142h69l-102 -142h-55zM240 -8c-120 0 -182 79 -182 188v198c0 109 65 190 182 190h29c104 0 169 -63 169 -152h-56c0 66 -48 100 -114 100h-27c-82 0 -127 -53 -127 -140v-195c0 -89 48 -137 127 -137h27c67 0 115 36 115 102h55c0 -91 -65 -154 -169 -154
h-29z" />
    <glyph glyph-name="ccaron.sc" horiz-adv-x="485" 
d="M222 632l-109 142h54l80 -93l79 93h54l-109 -142h-49zM268 44c67 0 115 36 115 102h55c0 -91 -65 -154 -169 -154h-29c-120 0 -182 79 -182 188v198c0 109 65 190 182 190h29c104 0 169 -63 169 -152h-56c0 66 -48 100 -114 100h-27c-82 0 -127 -53 -127 -140v-195
c0 -89 48 -137 127 -137h27z" />
    <glyph glyph-name="ccedilla.sc" horiz-adv-x="485" 
d="M268 44c67 0 115 36 115 102h55c0 -91 -65 -154 -169 -154l-21 -34c45 -7 71 -31 71 -71c0 -49 -39 -82 -91 -82c-54 0 -89 31 -89 79h45c0 -26 14 -40 44 -40c29 0 46 17 46 43c0 25 -16 37 -49 37h-36l31 69c-107 8 -162 84 -162 187v198c0 109 65 190 182 190h29
c104 0 169 -63 169 -152h-56c0 66 -48 100 -114 100h-27c-82 0 -127 -53 -127 -140v-195c0 -89 48 -137 127 -137h27z" />
    <glyph glyph-name="ccircumflex.sc" horiz-adv-x="485" 
d="M247 725l-80 -93h-54l109 142h49l109 -142h-54zM268 44c67 0 115 36 115 102h55c0 -91 -65 -154 -169 -154h-29c-120 0 -182 79 -182 188v198c0 109 65 190 182 190h29c104 0 169 -63 169 -152h-56c0 66 -48 100 -114 100h-27c-82 0 -127 -53 -127 -140v-195
c0 -89 48 -137 127 -137h27z" />
    <glyph glyph-name="cdotaccent.sc" horiz-adv-x="485" 
d="M215 659v83h64v-83h-64zM240 -8c-120 0 -182 79 -182 188v198c0 109 65 190 182 190h29c104 0 169 -63 169 -152h-56c0 66 -48 100 -114 100h-27c-82 0 -127 -53 -127 -140v-195c0 -89 48 -137 127 -137h27c67 0 115 36 115 102h55c0 -91 -65 -154 -169 -154h-29z" />
    <glyph glyph-name="d.sc" horiz-adv-x="514" 
d="M265 560c122 0 191 -82 191 -194v-175c0 -110 -69 -191 -191 -191h-192v560h192zM400 194v170c0 92 -52 145 -137 145h-135v-458h135c87 0 137 54 137 143z" />
    <glyph glyph-name="eth.sc" horiz-adv-x="514" 
d="M265 560c122 0 191 -82 191 -194v-175c0 -110 -69 -191 -191 -191h-192v252h-66v51h66v257h192zM400 194v170c0 92 -52 145 -137 145h-135v-206h162v-51h-162v-201h135c87 0 137 54 137 143z" />
    <glyph glyph-name="dcaron.sc" horiz-adv-x="514" 
d="M228 632l-109 142h54l80 -93l79 93h54l-109 -142h-49zM265 560c122 0 191 -82 191 -194v-175c0 -110 -69 -191 -191 -191h-192v560h192zM400 194v170c0 92 -52 145 -137 145h-135v-458h135c87 0 137 54 137 143z" />
    <glyph glyph-name="dcroat.sc" horiz-adv-x="514" 
d="M265 560c122 0 191 -82 191 -194v-175c0 -110 -69 -191 -191 -191h-192v252h-66v51h66v257h192zM400 194v170c0 92 -52 145 -137 145h-135v-206h162v-51h-162v-201h135c87 0 137 54 137 143z" />
    <glyph glyph-name="e.sc" horiz-adv-x="453" 
d="M415 510h-287v-201h247v-50h-247v-209h287v-50h-342v560h342v-50z" />
    <glyph glyph-name="eacute.sc" horiz-adv-x="453" 
d="M372 774l-102 -142h-55l88 142h69zM415 510h-287v-201h247v-50h-247v-209h287v-50h-342v560h342v-50z" />
    <glyph glyph-name="ebreve.sc" horiz-adv-x="453" 
d="M246 644c-76 0 -130 46 -130 115h44c0 -40 37 -67 86 -67s86 27 86 67h43c0 -68 -52 -115 -129 -115zM415 510h-287v-201h247v-50h-247v-209h287v-50h-342v560h342v-50z" />
    <glyph glyph-name="ecaron.sc" horiz-adv-x="453" 
d="M221 632l-109 142h54l80 -93l79 93h54l-109 -142h-49zM415 510h-287v-201h247v-50h-247v-209h287v-50h-342v560h342v-50z" />
    <glyph glyph-name="ecircumflex.sc" horiz-adv-x="453" 
d="M246 725l-80 -93h-54l109 142h49l109 -142h-54zM415 510h-287v-201h247v-50h-247v-209h287v-50h-342v560h342v-50z" />
    <glyph glyph-name="uni1EBF.sc" horiz-adv-x="453" 
d="M482 861l-103 -142h-54l88 142h69zM246 725l-80 -93h-54l109 142h49l109 -142h-54zM415 560v-50h-287v-201h247v-50h-247v-209h287v-50h-342v560h342z" />
    <glyph glyph-name="uni1EC7.sc" horiz-adv-x="453" 
d="M246 725l-80 -93h-54l109 142h49l109 -142h-54zM415 510h-287v-201h247v-50h-247v-209h287v-50h-342v560h342v-50zM213 -141v83h65v-83h-65z" />
    <glyph glyph-name="uni1EC1.sc" horiz-adv-x="453" 
d="M412 720h-54l-103 142h69zM246 725l-80 -93h-54l109 142h49l109 -142h-54zM415 510h-287v-201h247v-50h-247v-209h287v-50h-342v560h342v-50z" />
    <glyph glyph-name="uni1EC3.sc" horiz-adv-x="453" 
d="M363 881c53 0 91 -33 91 -81c0 -46 -37 -77 -94 -77v41c31 0 47 13 47 37c0 25 -18 39 -44 39c-29 0 -43 -14 -43 -37h-46c0 47 36 78 89 78zM246 725l-80 -93h-54l109 142h49l109 -142h-54zM415 560v-50h-287v-201h247v-50h-247v-209h287v-50h-342v560h342z" />
    </font>
</defs>
</svg>
